<svg version="1.1" id="Layer_1" xmlns="http://www.w3.org/2000/svg" xmlns:xlink="http://www.w3.org/1999/xlink" x="0px" y="0px"
	 width="100%" viewBox="0 0 864 864" enable-background="new 0 0 864 864" xml:space="preserve">
<path fill="#000000" opacity="1.000000" stroke="none" 
	d="
M746.482910,343.508820 
	C752.256287,360.567627 754.621460,377.864990 756.261169,395.283600 
	C757.414673,407.537384 759.265503,419.740692 759.087585,432.099884 
	C758.625122,464.214325 754.307190,495.754242 745.087708,526.570923 
	C739.731323,544.474915 732.594238,561.629395 724.071899,578.267822 
	C708.845093,607.995300 689.724670,634.869934 666.109558,658.496033 
	C646.481934,678.132690 624.909607,695.391235 600.871521,709.292969 
	C573.049438,725.383118 543.514893,737.252014 512.013733,744.294617 
	C487.370667,749.803955 462.564362,753.638611 437.317505,752.982361 
	C393.223724,751.836182 350.912231,742.567871 310.713257,724.002441 
	C280.170990,709.896851 252.792114,691.154602 228.651321,667.891418 
	C198.634842,638.966309 174.781281,605.616638 157.225800,567.589539 
	C143.964218,538.863525 136.203873,508.722229 131.072372,477.804138 
	C126.689682,451.397644 126.632820,424.777100 129.508896,398.145660 
	C133.680527,359.517731 144.293198,322.714294 161.843124,288.122467 
	C179.235794,253.840546 201.925476,223.258575 230.256088,197.169754 
	C260.228760,169.568741 294.579926,148.760818 332.563873,134.149612 
	C363.678741,122.180710 395.925568,115.267624 429.330505,113.637688 
	C457.463470,112.265007 484.980621,115.557487 512.536987,121.132973 
	C543.941223,127.487022 572.945312,139.457153 600.569641,155.102829 
	C639.213623,176.989822 671.742981,205.789963 697.390320,242.227036 
	C710.070984,260.242462 721.692139,278.888916 730.712280,298.989319 
	C737.107056,313.239410 743.085754,327.724884 746.482910,343.508820 
M320.977356,151.521515 
	C311.389221,155.400803 302.200775,160.185257 293.269684,165.289932 
	C263.840149,182.110748 237.665680,203.139801 215.489151,228.808334 
	C182.277832,267.249237 159.061188,310.939758 147.661026,360.684906 
	C142.364105,383.798218 138.544937,407.020111 138.954956,430.872009 
	C139.204468,445.386871 140.008774,459.780273 142.138687,474.154724 
	C145.293411,495.445618 149.802109,516.459595 156.948242,536.699158 
	C166.387848,563.434387 178.757614,588.760071 195.425461,611.985657 
	C210.848190,633.476257 227.981705,653.268982 248.032974,670.486877 
	C280.990753,698.787476 318.282013,719.067017 360.296478,730.414124 
	C379.427948,735.581055 398.721375,740.153442 418.633240,740.708435 
	C445.765839,741.464722 472.693268,741.089172 499.604431,735.360046 
	C527.867432,729.343018 554.740051,720.168396 580.526733,707.457642 
	C602.167847,696.790344 621.191406,682.248901 639.701843,666.973572 
	C659.489868,650.643799 675.907349,631.277039 690.883118,610.574341 
	C712.010132,581.368347 726.721619,549.144653 736.472961,514.543701 
	C742.182495,494.284393 745.117249,473.577606 747.021118,452.661377 
	C749.628723,424.013062 746.301941,395.722992 741.006653,367.751038 
	C736.100586,341.834900 726.875000,317.199921 715.163391,293.453552 
	C702.615173,268.011108 686.710144,244.957993 668.051453,223.724106 
	C657.697449,211.941177 645.905884,201.748871 633.812439,191.724228 
	C603.263550,166.401337 568.298035,149.661209 530.924683,137.807098 
	C503.356995,129.063171 474.892883,125.108788 445.800934,124.887512 
	C402.388214,124.557304 361.270508,134.065964 320.977356,151.521515 
z"/>
<path fill="#000000" opacity="1.000000" stroke="none" 
	d="
M614.536987,187.402985 
	C655.658020,216.376328 685.634216,254.175690 708.029114,298.505371 
	C719.748352,321.703308 728.752197,345.925201 733.377686,371.315979 
	C740.146667,408.472656 741.945068,445.872253 734.863708,483.497345 
	C730.869263,504.720642 725.167542,525.309570 717.071838,545.168884 
	C710.746765,560.684692 702.751404,575.467712 694.164673,589.947876 
	C679.658142,614.410706 661.091187,635.400208 640.548889,654.761108 
	C625.856262,668.608704 609.765076,680.640808 592.405823,691.063965 
	C572.911011,702.769348 552.573181,712.474792 530.877136,719.289917 
	C499.946045,729.005798 468.294342,732.720093 435.860229,732.587341 
	C385.640961,732.381775 339.161957,719.437622 295.843994,694.527527 
	C263.073883,675.683044 235.416412,650.681091 212.248749,621.101318 
	C192.660721,596.091858 177.628433,568.229126 166.606949,538.279419 
	C159.918640,520.104614 154.482574,501.599152 151.354233,482.515106 
	C146.180099,450.951172 145.581741,419.350586 150.485260,387.583649 
	C156.166641,350.777313 168.636139,316.565430 186.461105,283.977448 
	C207.897400,244.787125 237.102020,212.762817 273.445618,187.118362 
	C302.706207,166.471786 334.790192,151.934860 369.378754,142.484634 
	C398.624237,134.494263 428.156036,132.231628 458.357697,133.415009 
	C487.818756,134.569382 516.127075,140.541473 543.739685,150.196472 
	C566.451233,158.137772 587.645752,169.291336 607.608459,182.746368 
	C609.816284,184.234451 612.037781,185.702286 614.536987,187.402985 
M283.660767,190.178421 
	C270.815643,198.863541 258.343323,208.040314 247.051956,218.705338 
	C220.973129,243.337509 200.669739,272.143036 184.977844,304.344910 
	C168.512558,338.133911 158.753601,373.749664 156.353790,411.192505 
	C154.462479,440.701721 156.148865,470.035461 163.112183,498.989288 
	C171.443176,533.629944 184.976593,565.843384 204.375137,595.827332 
	C224.366180,626.727051 249.075226,652.822998 278.956421,674.181763 
	C301.364075,690.198608 325.731079,702.290833 351.866577,710.814941 
	C373.794556,717.966858 396.302246,722.192200 419.320770,723.991150 
	C448.472534,726.269409 477.320404,723.770996 505.669800,717.411743 
	C529.228149,712.127258 551.842163,703.797302 573.524963,692.722717 
	C602.109009,678.123230 626.801331,658.498352 648.898743,635.716125 
	C673.427429,610.427185 692.542786,581.278687 706.649353,548.811584 
	C720.489929,516.956726 728.257019,483.607727 730.412903,449.216949 
	C733.015442,407.701080 726.492920,367.155121 712.022095,328.090118 
	C700.886536,298.028900 684.485962,271.076508 664.747925,245.708740 
	C640.128113,214.066818 608.926331,191.160110 574.193054,172.482788 
	C555.226807,162.283966 534.996460,155.161621 513.994080,150.054535 
	C492.709137,144.878723 471.265961,141.606689 449.354614,141.215942 
	C421.175476,140.713455 393.683838,144.648560 366.480896,152.064819 
	C336.910950,160.126373 309.604065,172.722244 283.660767,190.178421 
z"/>
<path fill="#000000" opacity="1.000000" stroke="none" 
	d="
M433.047516,494.935913 
	C428.491821,488.331573 422.353882,483.881775 416.174194,479.733246 
	C401.738708,470.042450 388.079315,459.507141 376.122925,446.818359 
	C373.190735,443.706512 369.941406,440.036255 364.991791,443.112610 
	C361.974762,444.987762 362.769806,449.581573 366.560394,455.228882 
	C371.238892,462.199066 377.673279,467.617737 382.990112,474.017029 
	C385.218933,476.699585 387.291504,479.521332 389.294159,482.378571 
	C390.313049,483.832306 391.740723,485.567261 390.133179,487.321533 
	C388.641205,488.949677 386.987885,487.460999 385.603729,486.777679 
	C365.439941,476.823578 352.925354,460.910889 348.913666,438.705902 
	C347.605835,431.466797 345.387360,424.501617 343.689880,417.386017 
	C343.287476,415.699249 342.410614,414.302094 341.181030,413.151184 
	C339.944427,411.993744 338.510498,410.903137 336.717926,411.696106 
	C335.061249,412.428925 335.093292,414.132904 335.200653,415.620422 
	C335.475891,419.434540 335.998230,423.232849 336.208710,427.049225 
	C337.391571,448.496918 341.080261,469.078217 356.056427,485.872040 
	C356.801880,486.707977 357.676910,487.612427 357.227814,489.241058 
	C355.082184,490.955353 353.668427,489.169769 352.508636,487.722351 
	C339.660919,471.687805 329.987976,454.322266 329.811920,433.011017 
	C329.753601,425.949219 329.357971,419.508484 325.263184,412.709106 
	C321.099701,405.795654 322.486176,396.510895 322.976746,388.207947 
	C324.127808,368.725403 331.256287,351.944305 346.493896,339.240906 
	C356.904297,330.561859 369.176666,325.685730 382.571808,324.888153 
	C413.366089,323.054718 435.245331,336.810150 448.700775,364.361450 
	C448.751007,364.464355 448.981049,364.479431 449.429932,364.651794 
	C451.982727,359.359039 454.466675,354.031921 458.027435,349.190063 
	C472.368530,329.689453 504.793060,319.445984 529.114746,327.934174 
	C554.243286,336.703979 569.491943,353.506378 575.431946,378.971985 
	C577.911743,389.603241 576.990234,400.488007 575.369507,411.243134 
	C575.247375,412.053528 575.152527,413.113098 574.623840,413.579254 
	C569.362061,418.218872 570.269470,424.358398 570.524109,430.277069 
	C571.170593,445.306854 565.086670,458.173920 557.653381,470.580658 
	C554.661438,475.574371 551.354553,480.385712 548.043823,485.178406 
	C547.013916,486.669373 546.164429,488.887451 543.485901,488.139771 
	C542.198669,485.693420 544.268799,484.402100 545.279358,482.884003 
	C552.444519,472.120605 558.841736,460.865173 560.225586,447.845367 
	C561.386414,436.924042 561.944031,425.962677 564.634277,415.255707 
	C564.998413,413.806702 565.187195,412.071350 563.298889,411.456177 
	C561.303223,410.806061 559.266296,411.006897 557.754944,412.659973 
	C555.662537,414.948608 554.982910,417.891113 554.173279,420.793488 
	C551.094238,431.831696 549.328064,443.231171 544.464172,453.777618 
	C537.180603,469.570770 524.022522,479.254120 509.789978,487.909546 
	C508.923004,488.436737 507.898682,488.896667 507.016693,488.124481 
	C505.763306,487.027161 506.210480,485.635529 506.892731,484.466705 
	C509.743866,479.582428 512.591125,474.750366 516.549255,470.559784 
	C522.020630,464.767120 527.991394,459.368744 532.266418,452.524933 
	C532.969421,451.399414 533.654297,450.234680 534.136658,449.005371 
	C534.958130,446.911682 535.375793,444.703217 533.339294,443.044891 
	C531.334229,441.412170 528.909058,441.131866 526.839172,442.664764 
	C523.637268,445.036011 520.550598,447.602570 517.653137,450.338470 
	C506.719910,460.662384 494.295227,469.083801 482.400452,478.178772 
	C470.024597,487.641571 459.224304,498.170929 455.348846,514.107788 
	C453.231842,522.813599 453.383484,531.592041 453.453064,540.396790 
	C453.542480,551.713501 453.710144,563.030579 453.979095,574.344238 
	C454.068756,578.115906 452.755463,580.737000 448.816376,580.805542 
	C445.017883,580.871582 443.738800,578.157166 443.792145,574.728821 
	C443.976196,562.902405 444.057953,551.072327 444.425934,539.251404 
	C444.917053,523.475464 443.454346,508.259705 433.047516,494.935913 
M418.792267,445.174194 
	C419.814636,450.223358 418.884338,455.060120 417.496429,459.934265 
	C415.045807,468.540375 415.362610,468.951782 422.757355,473.682892 
	C429.684082,478.114594 435.944214,483.248871 440.113281,490.579437 
	C441.166809,492.431885 441.534546,494.972321 443.987976,496.006622 
	C445.249023,494.026947 444.725555,492.159912 444.746429,490.392212 
	C444.889709,478.236328 444.746246,466.070923 445.219299,453.929016 
	C445.351593,450.533844 444.457886,449.059814 441.465302,448.138947 
	C432.900970,445.503510 425.238464,441.284637 418.864746,434.883514 
	C418.271790,434.287994 417.545166,433.870911 416.287354,434.486145 
	C415.904358,437.923462 417.638275,441.057953 418.792267,445.174194 
M464.997559,451.030975 
	C462.185150,451.454803 459.324951,451.724854 456.569183,451.003693 
	C452.434418,449.921661 451.154480,451.635590 451.184540,455.545258 
	C451.268890,466.516663 451.185394,477.489380 451.170013,488.461578 
	C451.166168,491.202515 451.169434,493.943481 451.169434,496.684418 
	C451.576874,496.832001 451.984314,496.979614 452.391724,497.127197 
	C457.589233,485.140472 467.844482,478.372375 477.923889,471.409485 
	C481.459442,468.967133 483.171326,465.719452 482.802521,461.224396 
	C482.477478,457.262634 482.711426,453.249573 482.794800,449.261200 
	C482.875000,445.423126 481.222809,444.398499 477.868591,446.113251 
	C474.011383,448.085083 470.114777,449.931702 464.997559,451.030975 
M426.084534,373.536407 
	C420.859009,379.478729 419.669159,388.993317 423.288086,395.897919 
	C427.814056,404.533081 440.716827,405.198120 446.142883,397.133362 
	C450.599030,390.510223 448.616791,384.028320 445.687012,377.698608 
	C442.035919,369.810303 433.824677,367.910858 426.084534,373.536407 
M466.857544,429.358612 
	C469.766663,426.869843 472.741913,424.401001 474.655914,421.029694 
	C476.230072,418.256958 476.713043,415.255035 474.038635,412.834778 
	C471.351654,410.403198 468.722015,411.778351 466.427734,413.645935 
	C465.029236,414.784302 463.865631,416.231354 462.688232,417.617645 
	C458.073364,423.051514 453.869568,428.874329 446.917297,431.773071 
	C442.574829,433.583679 438.659210,433.286652 434.552704,431.011749 
	C428.144531,427.461761 422.574249,423.236176 419.869934,416.091125 
	C419.309204,414.609589 418.316864,413.405640 416.547699,413.626221 
	C414.962433,413.823883 413.901855,414.857330 413.242737,416.343689 
	C411.815399,419.562408 411.949310,422.542175 414.710938,424.969025 
	C416.326294,426.388611 418.078400,427.688202 419.902069,428.829071 
	C427.995544,433.892303 435.022003,440.892334 445.131104,442.295135 
	C449.345093,442.879883 452.861847,442.553070 456.009338,439.201202 
	C459.180786,435.823669 462.858948,432.921967 466.857544,429.358612 
M475.952393,395.324188 
	C479.012878,390.766602 479.544952,385.669281 478.702179,380.458893 
	C477.099548,370.550659 466.453552,365.808777 458.662415,371.535889 
	C453.841034,375.079987 452.421051,380.301910 452.262543,386.049072 
	C452.097260,392.041595 452.855042,397.800354 459.286041,400.091919 
	C465.332642,402.246582 471.145660,401.352570 475.952393,395.324188 
M487.023743,434.500275 
	C489.835846,431.521027 492.033722,428.382050 489.718048,423.437775 
	C484.373352,427.194336 479.810974,431.440826 474.449127,434.624573 
	C469.291199,437.687225 462.573090,438.325073 459.090851,444.285217 
	C469.261536,444.130493 478.211273,440.562256 487.023743,434.500275 
M441.984711,418.529022 
	C438.333862,414.863342 434.714996,411.052917 428.988861,411.143555 
	C424.949158,411.207489 423.722839,413.260284 425.960938,416.542450 
	C429.425507,421.623260 434.216400,425.158722 440.259735,426.589081 
	C442.220947,427.053223 444.532471,427.551331 446.385406,425.662354 
	C446.400330,422.654175 444.264740,420.944885 441.984711,418.529022 
M481.700806,420.566956 
	C480.908020,422.332062 480.115204,424.097137 478.742371,427.153687 
	C483.346680,422.959900 485.426605,419.156494 484.776489,414.155701 
	C484.364166,410.984039 482.819244,408.706940 478.574188,407.455444 
	C481.223633,411.755707 482.764435,415.533417 481.700806,420.566956 
z"/>
<path fill="#000000" opacity="1.000000" stroke="none" 
	d="
M336.761475,508.265015 
	C322.120789,494.848083 309.758545,480.057068 301.639435,462.208344 
	C295.143036,447.927032 290.138336,433.069092 288.986298,417.262482 
	C287.342712,394.711243 289.401245,372.610504 299.059967,351.834656 
	C310.037476,328.222229 327.991760,312.192017 352.335175,302.741577 
	C377.213379,293.083527 400.983826,295.664093 424.111389,307.662201 
	C433.933350,312.757629 441.987671,320.330475 449.423706,328.651978 
	C452.547791,327.394012 454.455536,325.030640 456.477631,322.925629 
	C475.069733,303.571198 497.863220,295.034576 524.477661,296.789764 
	C540.278503,297.831787 554.686646,303.577148 567.735596,312.207367 
	C590.521484,327.277435 600.958801,350.079651 607.415100,375.741638 
	C612.964661,397.799408 611.381165,419.398163 606.114624,440.935699 
	C599.777405,466.851685 586.203064,488.561951 566.628235,506.776093 
	C553.344788,519.136230 538.156799,528.641479 523.015564,538.340881 
	C514.886536,543.548218 507.063721,549.234741 499.124115,554.736023 
	C495.685577,557.118530 494.243317,556.623535 493.623077,552.438843 
	C492.710144,546.279297 495.796936,541.474731 499.485535,537.070984 
	C506.005432,529.286804 514.651550,524.252869 523.036133,518.767456 
	C556.689209,496.750702 581.269775,468.192596 587.289612,426.843903 
	C592.043640,394.189270 583.027466,365.327087 561.289612,340.903778 
	C550.460327,328.736664 535.628052,322.707123 519.490601,320.373688 
	C497.239105,317.156219 477.619385,323.089569 460.674103,337.754639 
	C457.804504,340.238068 455.242645,343.186584 453.003601,346.259064 
	C450.654083,349.483215 449.011414,349.568878 446.633545,346.331421 
	C432.637360,327.275482 412.602173,320.022217 390.129761,319.421265 
	C364.557312,318.737335 344.360626,330.373688 330.052094,351.101166 
	C319.260315,366.734222 312.390259,384.293945 311.061005,403.572021 
	C309.345978,428.445160 315.475800,451.343750 328.197266,472.723358 
	C337.246490,487.931488 350.488647,499.033203 363.509949,510.434845 
	C374.320709,519.900940 387.195465,526.553528 398.083405,535.903015 
	C402.421814,539.628357 406.407623,543.614502 407.451965,549.623352 
	C407.882294,552.099060 407.761810,554.603821 405.354065,555.738342 
	C402.927979,556.881470 402.091949,554.214478 400.754425,552.879395 
	C393.952911,546.090271 385.543304,541.642029 377.376160,536.835388 
	C363.168549,528.473755 349.096161,519.914124 336.761475,508.265015 
z"/>
<path fill="#000000" opacity="1.000000" stroke="none" 
	d="
M426.081268,616.967285 
	C427.113983,619.649353 431.259796,621.160034 428.612885,624.399109 
	C427.071930,626.284790 420.014282,625.081604 418.016205,622.747803 
	C416.625427,621.123352 415.523682,619.224670 414.460358,617.353271 
	C413.068024,614.903015 411.172913,613.621399 408.319489,614.314758 
	C405.553406,614.987000 406.101105,617.363037 406.151672,619.221252 
	C406.268066,623.500366 404.257721,625.186279 400.100006,625.179260 
	C395.647644,625.171753 395.602966,622.371765 395.635742,619.125977 
	C395.728149,609.983887 395.886200,600.835144 395.627319,591.700073 
	C395.494690,587.020325 397.353394,585.438843 401.799500,585.717102 
	C405.774567,585.965820 409.800995,585.522400 413.759186,585.883667 
	C420.470734,586.496155 426.625519,588.388428 429.113953,595.683899 
	C431.420929,602.447449 428.820709,607.650696 423.604095,611.851379 
	C423.218842,614.058533 424.915955,615.192932 426.081268,616.967285 
M408.122375,595.170044 
	C404.996887,597.117432 404.646301,600.535950 406.077942,602.926575 
	C408.102905,606.307983 412.031616,604.836487 415.130371,604.136536 
	C417.413330,603.620911 419.583740,602.127869 419.202545,599.293457 
	C418.857178,596.725586 417.051819,595.236694 414.400360,595.080322 
	C412.586578,594.973389 410.762909,595.034607 408.122375,595.170044 
z"/>
<path fill="#000000" opacity="1.000000" stroke="none" 
	d="
M642.117920,318.206421 
	C638.084290,318.730103 634.197754,322.162079 631.112061,316.987488 
	C628.002747,311.773071 632.715698,309.855743 635.145569,307.173828 
	C640.921570,300.798553 646.250732,293.982422 652.630127,288.255951 
	C657.866272,291.946045 658.079895,293.382904 654.265137,297.735138 
	C651.037903,301.417175 647.785522,305.077179 643.804932,309.583954 
	C650.377930,309.018677 655.320251,307.118683 660.323059,305.591644 
	C663.087219,304.747894 665.054749,304.894928 666.614868,307.654083 
	C668.137878,310.347351 667.395203,312.283661 665.411865,314.298309 
	C661.758728,318.009125 658.238647,321.850891 655.018616,326.071503 
	C660.568420,325.538513 665.435669,323.554230 670.346985,321.739655 
	C673.360352,320.626343 675.474426,321.212555 676.694275,324.423401 
	C677.655823,326.954193 677.164795,328.597443 674.449829,329.395264 
	C665.356628,332.067322 656.252930,334.706024 647.191101,337.481079 
	C644.319031,338.360596 642.779724,336.924011 641.457458,334.823059 
	C640.117065,332.693451 639.606689,330.636414 641.670837,328.507721 
	C645.214661,324.853058 649.199219,321.555298 652.135010,316.553772 
	C648.394531,316.291748 645.502258,317.545868 642.117920,318.206421 
z"/>
<path fill="#000000" opacity="1.000000" stroke="none" 
	d="
M482.689392,612.359497 
	C484.926819,615.498291 486.993652,618.318298 488.943848,621.216797 
	C490.503448,623.534790 489.874176,624.902649 487.012878,625.221436 
	C482.943939,625.674683 479.442139,624.897949 476.920868,621.294922 
	C475.109314,618.706177 473.158386,616.209473 471.177429,613.745850 
	C468.622559,610.568481 466.907745,610.834656 465.033051,614.504333 
	C464.235443,616.065674 464.113373,617.718018 464.217163,619.367371 
	C464.500824,623.874268 461.967834,625.160767 458.028503,625.140503 
	C453.921509,625.119446 453.744049,622.443054 453.763550,619.353027 
	C453.822296,610.031006 453.850861,600.707275 453.723785,591.386536 
	C453.673859,587.724609 454.882355,585.837585 458.827606,585.701599 
	C462.797577,585.564697 464.271393,587.338440 464.176025,591.048889 
	C464.104431,593.834167 464.161896,596.622742 464.161896,600.098450 
	C468.555054,597.438965 471.159729,593.992249 473.685059,590.647888 
	C477.459106,585.650024 482.198425,584.870483 488.571198,586.406372 
	C486.702942,590.444763 483.512421,593.103149 480.998840,596.192200 
	C475.667206,602.744507 475.608734,602.700806 480.646210,609.696594 
	C481.229462,610.506592 481.859894,611.282715 482.689392,612.359497 
z"/>
<path fill="#000000" opacity="1.000000" stroke="none" 
	d="
M357.350281,606.380859 
	C359.891602,600.544495 362.347473,595.084045 364.616974,589.547180 
	C366.028107,586.104431 368.731964,585.757629 371.925537,585.679077 
	C375.133942,585.600281 376.738068,587.179626 377.932983,589.878601 
	C382.171936,599.453247 386.561707,608.961243 390.778412,618.545471 
	C391.607849,620.430725 394.338898,622.953613 391.082214,624.465027 
	C388.174286,625.814575 384.552917,626.255615 382.032013,622.929382 
	C380.484741,620.887817 380.971283,617.070374 377.773865,616.652466 
	C373.682251,616.117859 369.479034,616.341553 365.326508,616.405640 
	C363.042694,616.440857 362.566528,618.489014 361.828156,620.143860 
	C360.800049,622.447998 359.827576,624.872253 356.800781,625.060913 
	C354.679474,625.193115 352.265137,625.796204 350.678833,623.921265 
	C349.008575,621.947021 350.881989,620.183716 351.662689,618.459900 
	C353.446198,614.522034 355.338165,610.633240 357.350281,606.380859 
M368.143158,607.127808 
	C370.167816,608.127380 372.157471,608.064331 374.314301,606.947388 
	C374.528198,604.194519 373.428619,602.014587 371.672607,599.700073 
	C369.378937,601.677307 368.301392,603.920410 368.143158,607.127808 
z"/>
<path fill="#000000" opacity="1.000000" stroke="none" 
	d="
M577.093506,241.119568 
	C581.425110,235.611130 585.611816,230.438812 589.646179,225.150269 
	C591.687927,222.473770 593.827026,222.097061 596.390747,224.225082 
	C598.821106,226.242355 601.205750,228.314453 603.626953,230.342834 
	C608.221252,234.191788 611.601562,238.758255 609.721069,245.041946 
	C607.887817,251.167740 603.289856,254.096756 596.909485,253.788071 
	C595.633911,255.900833 595.778503,258.127808 595.310547,260.209442 
	C594.834595,262.326660 596.279968,266.316833 592.398865,265.631042 
	C589.242737,265.073303 586.514709,262.465271 587.139160,258.298431 
	C587.409668,256.493408 587.638733,254.680496 587.824585,252.864822 
	C588.068115,250.485794 587.330627,248.471680 584.998474,247.582626 
	C582.495850,246.628601 581.399170,248.641968 580.349365,250.326660 
	C578.434937,253.398697 576.315063,253.794510 573.391174,251.491653 
	C570.301086,249.057938 572.130493,247.296783 573.802673,245.328232 
	C574.878235,244.062073 575.861145,242.717239 577.093506,241.119568 
M591.173828,242.391281 
	C592.551758,243.642212 594.162109,244.441620 595.928345,245.018890 
	C598.080139,245.722168 599.976440,245.394241 601.215332,243.492783 
	C602.461853,241.579575 601.954163,239.656601 600.444763,238.034927 
	C599.655029,237.186432 598.813110,236.365143 597.894348,235.663025 
	C596.389221,234.512878 594.757507,232.304916 592.842224,234.486557 
	C591.105957,236.464264 587.494446,238.316360 591.173828,242.391281 
z"/>
<path fill="#000000" opacity="1.000000" stroke="none" 
	d="
M664.473572,368.397064 
	C662.990356,368.819763 661.887878,369.289398 660.747559,369.414490 
	C658.231995,369.690430 657.145203,367.949677 656.611755,365.916962 
	C656.067383,363.842743 656.953796,362.384338 659.065857,361.701782 
	C667.461426,358.988770 675.852539,356.261688 684.237793,353.516968 
	C686.236206,352.862854 687.414307,353.841949 688.318115,355.427582 
	C689.583862,357.648285 690.731018,359.760498 688.562195,362.247345 
	C684.414429,367.003326 681.138123,372.372223 677.308533,378.620209 
	C682.512085,378.449249 686.415161,376.762299 690.215027,375.112579 
	C693.401428,373.729187 695.036438,374.396454 696.332825,377.590851 
	C697.747559,381.076965 695.921814,381.953888 693.159546,382.760956 
	C684.695068,385.234009 676.257874,387.802490 667.836365,390.418762 
	C665.965881,390.999908 664.589172,390.794281 663.636841,388.985382 
	C662.442200,386.716125 662.395874,384.570343 664.114746,382.484222 
	C668.128601,377.612854 672.060730,372.681122 674.562073,366.252502 
	C670.818298,365.709961 667.924194,367.538818 664.473572,368.397064 
z"/>
<path fill="#000000" opacity="1.000000" stroke="none" 
	d="
M463.129211,181.505371 
	C464.143158,179.617966 465.549286,179.261765 467.127991,179.385284 
	C472.929291,179.839081 478.730042,180.302048 484.527588,180.801376 
	C487.177338,181.029602 489.069244,182.263336 488.892639,185.174805 
	C488.695221,188.429535 486.415955,189.188385 483.593384,188.982895 
	C480.282135,188.741837 476.975342,188.416306 473.660400,188.258987 
	C471.955139,188.178085 470.724335,189.060257 470.637634,190.872116 
	C470.553558,192.628815 472.012054,193.050201 473.323273,193.249207 
	C475.784607,193.622803 478.282959,193.747849 480.749237,194.094864 
	C483.293488,194.452835 485.283783,195.538940 485.021179,198.556107 
	C484.752869,201.639267 482.591461,202.214691 480.001862,202.019775 
	C477.515778,201.832626 475.036804,201.526825 472.548218,201.404633 
	C470.283295,201.293427 469.211182,202.517731 469.200867,204.769135 
	C469.190918,206.939560 470.473236,207.575439 472.380524,207.745361 
	C475.691620,208.040375 478.994141,208.436890 482.296356,208.824539 
	C484.983734,209.140030 486.679901,210.383987 486.285461,213.391495 
	C485.919373,216.182816 484.031891,216.811188 481.590668,216.617538 
	C475.790894,216.157501 469.994843,215.637222 464.189148,215.270309 
	C460.813995,215.057007 459.576141,213.400757 459.715027,210.092392 
	C460.113373,200.604355 461.483734,191.239120 463.129211,181.505371 
z"/>
<path fill="#000000" opacity="1.000000" stroke="none" 
	d="
M672.607910,425.360107 
	C671.257507,421.903900 669.791382,418.874237 668.960449,415.679382 
	C666.981812,408.071350 670.396423,400.024109 676.865173,396.315033 
	C684.012512,392.216888 692.558594,393.125732 698.580994,398.624420 
	C703.620911,403.226044 705.533752,413.263031 702.573730,419.427307 
	C701.701294,421.244232 700.516296,422.562744 698.320679,421.908600 
	C696.006226,421.219025 695.045837,419.393097 695.833801,417.239136 
	C696.995605,414.063110 696.817078,411.062103 695.606812,408.034637 
	C693.534912,402.851471 687.272827,400.789581 681.689331,403.418518 
	C676.844971,405.699402 675.156616,411.873962 678.014954,416.705414 
	C678.752319,417.951782 679.617676,418.891663 681.183960,418.512848 
	C682.570862,418.177368 682.866211,417.011749 682.860779,415.792419 
	C682.848572,413.062225 683.367798,410.523529 686.703674,410.527863 
	C689.961182,410.532074 689.809937,413.420837 690.210999,415.642578 
	C692.035461,425.748810 692.031128,425.797791 681.751160,427.154999 
	C678.667542,427.562164 675.189087,429.757446 672.607910,425.360107 
z"/>
<path fill="#000000" opacity="1.000000" stroke="none" 
	d="
M627.486816,276.196930 
	C624.865356,279.582458 622.617126,279.050049 620.366089,276.289276 
	C618.892944,274.482513 617.288696,272.783051 615.800903,270.987732 
	C614.249939,269.116150 612.722107,269.503967 611.057434,270.822205 
	C609.163147,272.322205 609.257141,273.789124 610.893127,275.405853 
	C613.381470,277.864899 615.793701,280.401703 618.308411,282.832977 
	C620.296265,284.754913 620.143372,286.492737 618.275757,288.403503 
	C616.402466,290.319977 614.604309,290.544952 612.716125,288.537048 
	C608.609741,284.170288 604.498108,279.808014 600.430176,275.405548 
	C598.354187,273.158813 598.538635,271.001648 600.777039,268.887970 
	C607.195984,262.826874 613.591125,256.740173 619.948669,250.614868 
	C621.878784,248.755295 623.760315,248.617584 625.581360,250.551529 
	C629.918701,255.157822 634.207520,259.810791 638.456238,264.498962 
	C639.715942,265.889008 640.920166,267.506531 638.930664,269.226166 
	C637.067993,270.836151 634.914490,272.077881 632.729248,269.957886 
	C630.344116,267.643951 628.227112,265.053497 625.995728,262.581299 
	C624.575378,261.007690 623.205261,259.640900 621.003296,261.615417 
	C618.807739,263.584167 619.885071,265.033783 621.461853,266.587433 
	C623.122253,268.223419 624.706177,269.936707 626.343811,271.596222 
	C627.541870,272.810181 628.781006,273.989136 627.486816,276.196930 
z"/>
<path fill="#000000" opacity="1.000000" stroke="none" 
	d="
M358.654755,234.193054 
	C353.478180,230.161224 347.067657,230.450500 342.520752,234.670837 
	C341.241364,235.858322 341.299713,237.288467 341.263824,238.781448 
	C341.232025,240.104950 341.424744,241.527084 341.008514,242.729126 
	C340.082672,245.402786 337.643188,246.574203 335.144196,246.500381 
	C332.771027,246.430298 332.884186,244.018890 332.814270,242.215866 
	C332.434937,232.433105 332.096710,222.648743 331.739777,212.865112 
	C331.645325,210.275940 331.813324,207.957169 334.764648,206.725677 
	C337.557434,205.560349 339.741150,205.884857 342.010651,207.950958 
	C348.634674,213.981339 355.435638,219.817184 362.068634,225.837936 
	C363.577423,227.207474 366.350006,228.437927 365.474182,230.818649 
	C364.524780,233.399399 361.905518,234.555145 358.654755,234.193054 
M340.261261,219.775375 
	C340.652771,221.742493 339.178223,224.475754 341.847870,225.470413 
	C343.567139,226.110962 345.361298,225.140839 346.607117,222.589111 
	C344.248230,221.870361 344.110962,217.863235 340.261261,219.775375 
z"/>
<path fill="#000000" opacity="1.000000" stroke="none" 
	d="
M547.931763,218.910629 
	C552.730957,215.034058 557.271179,211.399826 561.745544,207.686279 
	C563.857727,205.933212 565.887573,205.295959 568.556824,206.692627 
	C571.125427,208.036591 572.265198,209.931061 572.009033,212.698517 
	C571.075439,222.779480 570.103943,232.856964 569.127380,242.933884 
	C568.974121,244.515640 568.438660,246.237625 566.553101,245.900253 
	C563.905762,245.426590 560.526550,244.162811 561.031128,241.175568 
	C562.219849,234.137222 557.463623,232.526199 552.777405,230.246109 
	C550.439697,229.108688 548.631409,228.625275 546.491882,230.511307 
	C542.855164,233.717178 539.897095,232.262878 536.768555,228.374908 
	C540.458862,225.235168 544.052368,222.177811 547.931763,218.910629 
M560.460754,219.065170 
	C559.041382,220.058594 557.165466,220.656723 557.075562,222.938690 
	C558.617615,224.123184 559.982300,225.597580 562.534668,224.926025 
	C562.157532,222.824417 564.666138,220.251190 560.460754,219.065170 
z"/>
<path fill="#000000" opacity="1.000000" stroke="none" 
	d="
M232.875122,305.931732 
	C230.762268,303.151428 230.107666,300.662476 232.212143,297.908173 
	C234.203369,295.302063 236.676300,295.672241 239.409836,296.286041 
	C248.314911,298.285614 257.248627,300.157593 266.171387,302.078491 
	C268.445374,302.568024 270.682983,303.372589 269.699585,306.271515 
	C268.869568,308.718262 267.857880,311.495148 264.151764,310.580597 
	C262.322449,310.129181 260.464020,308.465057 258.566559,310.276917 
	C255.673813,313.039154 253.140106,316.143219 251.479752,319.781281 
	C250.700043,321.489746 252.313538,322.835632 253.254486,324.182068 
	C254.312759,325.696381 255.424408,327.240814 254.394913,329.204498 
	C253.559723,330.797546 252.940964,332.805573 250.919495,333.139099 
	C248.870148,333.477173 248.295853,331.448517 247.350006,330.164215 
	C241.819901,322.654999 238.176254,314.017792 232.875122,305.931732 
M243.261765,305.772827 
	C241.731171,309.100281 245.029358,309.951935 246.065903,312.082825 
	C247.944336,310.846802 249.149796,309.622803 249.258453,307.617584 
	C247.881088,305.725220 245.662430,306.314819 243.261765,305.772827 
z"/>
<path fill="#000000" opacity="1.000000" stroke="none" 
	d="
M542.493530,201.579132 
	C539.117065,204.226883 536.371155,204.893356 533.302979,201.230469 
	C530.232727,197.565079 525.086182,197.026657 521.527527,199.171570 
	C517.590393,201.544571 515.384583,207.821762 516.888733,212.372345 
	C518.521301,217.311310 521.787659,219.369110 527.270325,218.834717 
	C528.422058,218.722458 529.546082,218.351212 530.694641,218.175980 
	C533.661682,217.723312 535.009277,219.859177 535.822021,221.996674 
	C536.813965,224.605576 534.509216,225.400223 532.651978,226.137802 
	C523.387024,229.817368 511.293915,224.441010 508.333923,215.358795 
	C504.842377,204.645538 510.996643,192.867844 521.621216,189.930389 
	C530.957031,187.349258 541.066833,192.789383 542.493530,201.579132 
z"/>
<path fill="#000000" opacity="1.000000" stroke="none" 
	d="
M217.438721,328.294312 
	C223.728729,324.125732 228.708862,324.027191 233.344284,327.750183 
	C237.585129,331.156281 239.070709,337.332916 236.412491,343.187378 
	C234.548737,347.292145 233.368301,350.466705 238.915604,352.537292 
	C241.381790,353.457825 241.433838,355.680664 240.124146,357.973358 
	C238.730133,360.413696 237.129471,361.224396 234.426514,359.825409 
	C226.754105,355.854340 219.020065,352.001221 211.279694,348.163330 
	C208.227997,346.650208 207.017670,344.595795 208.733673,341.347748 
	C211.133026,336.806274 213.048294,331.950867 217.438721,328.294312 
M223.328857,344.932007 
	C223.482071,344.991913 223.634094,345.100800 223.788666,345.104492 
	C226.816925,345.177826 229.983994,341.329926 229.569153,337.883636 
	C229.230377,335.069336 227.540802,333.062134 224.653763,333.535248 
	C220.880569,334.153503 219.633865,337.688385 218.682144,340.738525 
	C217.756302,343.705627 220.878067,343.788483 223.328857,344.932007 
z"/>
<path fill="#000000" opacity="1.000000" stroke="none" 
	d="
M422.834442,194.082001 
	C421.582703,191.501190 420.411713,189.293167 419.402069,187.013687 
	C418.565918,185.125992 416.851990,182.845856 419.845703,181.492554 
	C422.500824,180.292313 425.512146,179.810806 427.216827,183.137070 
	C429.187317,186.981857 430.875092,190.970612 432.734314,194.873657 
	C433.785034,197.079391 434.318085,199.616867 437.134277,201.644836 
	C439.267914,195.679001 441.288177,189.976608 443.355682,184.291382 
	C443.804413,183.057449 444.205170,181.707779 445.009033,180.722198 
	C446.586853,178.787659 448.763000,178.833405 450.954620,179.596375 
	C453.552582,180.500809 452.784271,182.497711 452.204102,184.164810 
	C448.869110,193.747681 445.447052,203.300400 442.024628,212.852631 
	C441.163116,215.257095 439.158447,215.841888 436.848114,215.996857 
	C434.133392,216.178940 432.473175,214.902817 431.386475,212.534592 
	C428.611053,206.486191 425.788666,200.459335 422.834442,194.082001 
z"/>
<path fill="#000000" opacity="1.000000" stroke="none" 
	d="
M540.793152,622.686401 
	C539.732056,625.154480 537.864502,625.191223 536.013062,625.199829 
	C529.701172,625.229248 523.387512,625.152954 517.077942,625.283081 
	C513.356262,625.359802 511.617371,623.991150 511.669159,620.039490 
	C511.797577,610.241882 511.726410,600.440063 511.601837,590.641602 
	C511.555267,586.979858 513.177979,585.671753 516.732117,585.677917 
	C520.327759,585.684204 522.388306,586.624878 522.275452,590.730896 
	C522.088379,597.536194 522.328857,604.352844 522.158752,611.158997 
	C522.074097,614.547913 523.279907,616.102478 526.752258,615.910950 
	C529.402039,615.764893 532.078430,616.031006 534.719849,615.821655 
	C539.538879,615.439758 541.544434,617.539185 540.793152,622.686401 
z"/>
<path fill="#000000" opacity="1.000000" stroke="none" 
	d="
M509.495544,678.425903 
	C509.066376,677.089783 508.746979,676.145691 508.444427,675.196167 
	C507.823151,673.246033 507.255341,671.240295 509.214294,669.718140 
	C511.415497,668.007874 513.613403,668.690063 515.658691,670.097412 
	C519.009766,672.403137 522.318054,674.771057 526.525452,677.733032 
	C525.593506,673.914673 525.004395,671.203064 524.259827,668.534851 
	C523.524780,665.900879 524.637085,664.362000 527.003418,663.530701 
	C529.827637,662.538635 531.071960,664.419128 531.760803,666.576599 
	C533.627563,672.423889 535.384644,678.309204 537.027283,684.223328 
	C537.555542,686.125183 539.311401,688.441223 536.574890,689.994385 
	C534.266357,691.304626 531.830688,691.279419 529.568970,689.544312 
	C526.173767,686.939697 522.732910,684.394592 518.417969,682.383484 
	C519.235779,685.101807 520.029175,687.827759 520.878174,690.536316 
	C521.731812,693.259521 520.954529,695.159363 518.100586,695.843079 
	C515.184143,696.541809 513.778259,694.853027 513.106201,692.300537 
	C511.923889,687.810242 510.775513,683.310974 509.495544,678.425903 
z"/>
<path fill="#000000" opacity="1.000000" stroke="none" 
	d="
M309.993225,642.634521 
	C310.542969,646.616699 309.701355,650.383667 311.819183,654.097229 
	C314.076782,652.902588 314.760345,650.618103 315.800781,648.693359 
	C317.138519,646.218628 318.836823,645.284302 321.474487,646.761414 
	C324.102173,648.232910 324.233154,650.095032 322.744232,652.554504 
	C319.647858,657.669373 316.714203,662.882507 313.678223,668.034363 
	C312.689941,669.711426 311.910767,671.989319 309.386658,671.455444 
	C306.718567,670.891052 304.999359,669.043457 304.819580,666.218689 
	C304.559845,662.138672 304.729431,658.008911 303.199738,653.675537 
	C300.407166,655.328186 299.511230,657.862976 298.177917,660.037903 
	C296.682343,662.477478 294.723938,663.892456 292.047913,661.922974 
	C289.501984,660.049194 290.698578,658.098572 292.121185,655.925232 
	C295.210999,651.205078 297.959839,646.262939 300.910187,641.449585 
	C301.996460,639.677368 302.650208,637.212646 305.446686,637.478760 
	C308.233154,637.744019 309.197235,639.907837 309.993225,642.634521 
z"/>
<path fill="#000000" opacity="1.000000" stroke="none" 
	d="
M442.942505,683.222473 
	C443.910797,677.538818 446.412079,676.405884 450.063110,680.038879 
	C453.310150,683.269897 455.918091,687.143250 459.818390,691.988037 
	C459.818390,688.041199 459.856110,685.492859 459.808044,682.946167 
	C459.757294,680.256348 460.727142,678.235352 463.620728,678.116821 
	C466.465027,678.000305 467.121765,680.165771 467.236511,682.506592 
	C467.529053,688.474243 467.794769,694.443237 468.053986,700.412476 
	C468.153107,702.696106 467.839447,704.820374 465.235443,705.609070 
	C462.943146,706.303223 461.518707,704.979736 460.144958,703.371033 
	C457.190277,699.911072 454.714355,695.999878 450.919617,692.893982 
	C450.919617,696.269775 450.937683,699.186462 450.913788,702.102905 
	C450.895386,704.346802 450.140961,706.032715 447.551910,706.149719 
	C444.706726,706.278198 443.820648,704.599670 443.727997,702.078674 
	C443.502289,695.937439 443.219635,689.798279 442.942505,683.222473 
z"/>
<path fill="#000000" opacity="1.000000" stroke="none" 
	d="
M387.721283,211.375671 
	C388.555847,214.323074 389.219574,216.897247 389.983612,219.441254 
	C390.897919,222.485397 390.935242,225.024399 387.090088,226.001846 
	C383.563782,226.898254 382.350525,224.951706 381.547821,222.010254 
	C380.017975,216.404587 378.184753,210.879852 376.729767,205.256256 
	C375.747681,201.460205 374.304413,199.156479 369.837524,200.877777 
	C367.222290,201.885544 364.827637,201.447220 363.943604,198.246567 
	C363.106171,195.214447 365.040588,194.018799 367.465332,193.279465 
	C374.137909,191.244904 380.822449,189.249588 387.498932,187.227753 
	C389.763855,186.541885 391.365570,187.171432 392.319946,189.423920 
	C393.198029,191.496353 393.162842,193.167252 391.090424,194.625687 
	C388.831360,196.215439 384.360596,195.305862 384.501526,199.486633 
	C384.593628,202.217514 385.942993,204.903931 386.712189,207.615097 
	C387.029419,208.733231 387.302002,209.864014 387.721283,211.375671 
z"/>
<path fill="#000000" opacity="1.000000" stroke="none" 
	d="
M357.612518,662.573120 
	C360.689697,663.898499 363.665833,664.715637 366.139465,666.311584 
	C373.009735,670.744507 373.176544,678.343994 366.479767,683.069702 
	C364.390411,684.544128 364.182800,685.999146 364.602722,688.122681 
	C364.933319,689.794495 366.207947,692.100098 363.645996,692.791992 
	C361.143799,693.467773 359.144531,691.995056 358.177246,689.532410 
	C357.570923,687.988708 357.377869,686.246826 356.592285,684.817566 
	C355.259308,682.392273 353.439026,681.521667 351.996887,684.719116 
	C350.808655,687.353577 349.278320,689.164856 346.310303,687.631897 
	C343.443115,686.151001 344.705048,683.598633 345.406342,681.446289 
	C347.159027,676.067200 349.077545,670.742371 350.865112,665.374268 
	C351.973358,662.046143 353.890472,660.685181 357.612518,662.573120 
M356.393555,675.090027 
	C357.022095,676.486206 358.321411,676.777039 359.629364,677.052368 
	C361.463715,677.438538 363.023987,677.082520 363.532745,675.071716 
	C364.034393,673.088989 362.792358,672.033997 361.111572,671.329468 
	C358.002655,670.026184 356.347351,670.976013 356.393555,675.090027 
z"/>
<path fill="#000000" opacity="1.000000" stroke="none" 
	d="
M273.776642,247.086227 
	C276.581512,243.676285 278.852936,244.182266 281.325500,247.121368 
	C286.452484,253.215759 291.756409,259.161346 297.332855,265.564575 
	C300.762787,262.728302 303.960449,260.170471 307.054749,257.493195 
	C308.938843,255.862991 310.494019,255.759903 312.079468,257.856323 
	C313.456665,259.677368 314.795441,261.380463 312.411011,263.418060 
	C308.112732,267.091125 303.834869,270.788300 299.570770,274.500977 
	C297.373291,276.414307 295.424194,276.171356 293.542023,274.027954 
	C287.063293,266.650177 280.560211,259.293823 274.072510,251.923920 
	C272.851959,250.537384 272.456116,249.037323 273.776642,247.086227 
z"/>
<path fill="#000000" opacity="1.000000" stroke="none" 
	d="
M652.746704,585.432861 
	C655.852173,585.884705 656.461853,583.343750 657.857483,581.838501 
	C659.622375,579.934998 661.574890,578.778564 663.871887,580.856018 
	C666.178284,582.941956 664.493530,584.674561 663.160950,586.444641 
	C661.927795,588.082703 659.627136,589.086182 659.842834,591.861755 
	C662.559387,593.109070 663.701050,590.722351 665.185730,589.492004 
	C666.578125,588.338135 667.587891,586.719360 668.989868,585.580933 
	C670.530579,584.329895 672.158081,584.915894 673.492371,586.157043 
	C674.778503,587.353333 674.099304,588.432434 673.299866,589.657349 
	C670.637024,593.737122 667.082336,597.009094 663.731812,600.462708 
	C662.071716,602.173889 660.283325,602.143616 658.460327,600.516479 
	C653.497314,596.086670 648.487061,591.709717 643.506287,587.299744 
	C641.729431,585.726501 642.104187,584.140747 643.503052,582.527283 
	C646.227661,579.384644 648.889099,576.186584 651.646362,573.073120 
	C652.976196,571.571594 654.493103,569.737183 656.552917,571.985046 
	C658.248352,573.835327 659.038818,576.006958 656.870667,578.166626 
	C655.573853,579.458374 654.202698,580.676147 652.918701,581.980103 
	C651.971497,582.942017 650.935791,583.965637 652.746704,585.432861 
z"/>
<path fill="#000000" opacity="1.000000" stroke="none" 
	d="
M341.268372,666.053955 
	C341.176117,671.197144 341.156433,675.853394 340.966156,680.502747 
	C340.894836,682.245239 341.042633,684.493591 338.336273,684.470581 
	C335.909424,684.449951 334.366394,683.248901 333.835938,680.692017 
	C332.516144,674.330750 327.263184,671.827332 321.723083,675.008667 
	C319.275818,676.414001 317.118591,676.300903 315.552856,674.180481 
	C313.949402,672.009033 316.301086,671.026306 317.554810,669.853882 
	C322.408447,665.315063 327.298492,660.815247 332.142883,656.266663 
	C333.889984,654.626221 335.461639,653.159851 338.242279,654.430115 
	C340.869781,655.630554 341.371368,657.587646 341.294800,660.078186 
	C341.238586,661.905396 341.276947,663.735535 341.268372,666.053955 
z"/>
<path fill="#000000" opacity="1.000000" stroke="none" 
	d="
M422.868622,679.717285 
	C427.981812,676.810974 430.287109,677.487793 431.915314,682.195007 
	C434.086212,688.471069 436.163910,694.780457 438.187500,701.105652 
	C438.698242,702.702026 440.132904,704.757263 437.512939,705.781616 
	C435.431366,706.595520 433.204559,705.806885 432.334320,703.898315 
	C430.751862,700.427734 427.892731,699.780273 424.679657,699.346313 
	C422.183319,699.009216 420.095459,699.343201 418.683197,701.767212 
	C417.332611,704.085327 415.135742,705.170532 412.790894,703.700378 
	C410.097717,702.011902 411.910706,699.695862 413.045013,698.077332 
	C416.992950,692.443848 419.465698,686.058838 422.868622,679.717285 
z"/>
<path fill="#000000" opacity="1.000000" stroke="none" 
	d="
M247.546188,624.874146 
	C251.481323,617.750488 257.131348,612.344421 262.301086,606.553589 
	C263.337006,605.393250 264.940979,604.909912 266.406403,605.872253 
	C270.758148,608.729858 274.852783,611.971497 276.761353,616.997681 
	C278.295837,621.038757 276.775604,624.456787 273.562225,627.216309 
	C270.086548,630.201172 266.307495,630.378784 262.446503,628.277771 
	C259.141571,626.479370 256.369537,623.731628 252.443375,627.853699 
	C250.815475,629.562866 248.547791,627.405518 247.546188,624.874146 
M269.340637,618.071106 
	C268.219452,616.062927 266.830627,614.471436 264.282013,615.721252 
	C262.872894,616.412170 262.016663,617.702637 262.353607,619.340576 
	C262.768707,621.358337 264.319763,622.418030 266.216339,622.511536 
	C268.651306,622.631653 269.709717,621.136169 269.340637,618.071106 
z"/>
<path fill="#000000" opacity="1.000000" stroke="none" 
	d="
M254.682617,282.316895 
	C253.295166,281.087708 252.227325,280.027466 251.043945,279.117462 
	C248.878128,277.452026 248.751907,275.730255 250.459900,273.611053 
	C252.192642,271.461151 254.134277,270.554321 256.386902,272.552002 
	C260.988281,276.632690 265.628265,280.695740 269.919983,285.090637 
	C272.833893,288.074585 275.026672,288.098816 277.636597,284.922394 
	C279.212616,283.004242 281.172516,281.406464 282.884277,279.593292 
	C284.165253,278.236450 285.445129,277.401489 287.136261,278.890594 
	C288.730255,280.294189 290.148895,281.994934 288.504517,284.018677 
	C284.630219,288.786774 280.655060,293.486816 276.477570,297.988739 
	C274.456818,300.166473 272.423279,298.381531 270.825714,296.962921 
	C265.482178,292.218048 260.234497,287.365143 254.682617,282.316895 
z"/>
<path fill="#000000" opacity="1.000000" stroke="none" 
	d="
M235.487183,584.536255 
	C236.914703,583.938965 238.023621,583.545227 239.034927,582.977600 
	C241.050430,581.846436 242.716141,582.141296 244.480850,583.651917 
	C246.326263,585.231689 246.449829,586.792969 245.526398,588.920837 
	C242.623795,595.609497 239.931381,602.389526 237.007660,609.068542 
	C236.334610,610.606079 235.805725,613.104187 233.415207,612.469604 
	C230.926620,611.808899 230.157898,609.285217 230.926834,607.185730 
	C232.439301,603.056152 230.238419,600.622986 227.764572,598.035339 
	C226.338409,596.543518 225.327530,595.253723 222.763824,596.479248 
	C220.238068,597.686584 218.137192,595.804260 217.340607,593.498535 
	C216.463730,590.960327 219.056259,590.618103 220.611893,590.008301 
	C225.410767,588.127380 230.281570,586.429932 235.487183,584.536255 
z"/>
<path fill="#000000" opacity="1.000000" stroke="none" 
	d="
M587.382080,664.083191 
	C585.745483,656.297180 584.378113,648.789551 582.996216,641.284668 
	C582.503967,638.611694 582.943726,636.398499 585.516174,634.859253 
	C588.015503,633.363647 589.490479,635.078430 591.257324,636.294678 
	C596.043213,639.588989 600.918396,642.753723 605.691833,646.065613 
	C607.540955,647.348511 609.844421,648.211609 610.803223,650.827881 
	C608.982544,653.199219 607.143555,654.934814 603.788818,653.135132 
	C598.876160,650.499756 592.806824,654.172913 592.524231,659.948303 
	C592.364746,663.206787 591.121094,664.932068 587.382080,664.083191 
z"/>
<path fill="#000000" opacity="1.000000" stroke="none" 
	d="
M296.645752,639.640381 
	C294.003998,643.084961 291.754700,646.381226 288.694794,649.018799 
	C284.152435,652.934265 278.819824,652.947510 273.746429,648.941162 
	C269.300690,645.430481 268.574982,640.560364 271.635193,635.196167 
	C274.032532,630.993896 276.857208,627.098572 279.973785,623.412964 
	C281.376526,621.754150 282.927124,620.685791 285.044250,622.517334 
	C287.005798,624.214294 286.740356,625.801697 285.250427,627.673157 
	C282.872559,630.659912 280.504333,633.673523 278.401855,636.854126 
	C276.850708,639.200684 276.125916,641.975159 278.945831,643.935547 
	C281.656036,645.819580 283.977814,644.615784 285.799744,642.192810 
	C287.596069,639.803894 289.251251,637.288757 291.235016,635.067078 
	C292.877777,633.227295 293.779083,629.236877 297.658722,632.020020 
	C301.667908,634.895996 298.602112,637.070007 296.645752,639.640381 
z"/>
<path fill="#000000" opacity="1.000000" stroke="none" 
	d="
M435.925110,594.142578 
	C436.142059,586.342529 436.991852,585.370728 442.231995,585.762390 
	C444.958679,585.966187 446.145599,587.309204 446.152527,589.876160 
	C446.180359,600.206360 446.174500,610.536560 446.191254,620.866760 
	C446.197113,624.468994 444.054047,625.244141 440.931580,625.210449 
	C437.732788,625.175842 435.850830,624.139099 435.875946,620.614807 
	C435.937683,611.951172 435.908356,603.286926 435.925110,594.142578 
z"/>
<path fill="#000000" opacity="1.000000" stroke="none" 
	d="
M632.988953,614.097900 
	C630.187561,612.922119 627.692505,611.983093 625.303223,610.825623 
	C623.398682,609.902954 620.876892,608.917053 622.388489,606.110413 
	C623.637146,603.791992 625.988342,603.156494 628.433533,604.289246 
	C632.486877,606.166870 636.517883,608.064514 641.277466,609.257874 
	C641.712036,605.755310 639.459534,603.524536 638.331482,600.951294 
	C637.536011,599.136597 636.330688,597.490051 635.635925,595.645142 
	C634.443176,592.477844 636.966980,590.894226 639.053223,589.873047 
	C641.552002,588.649841 641.919495,591.317871 642.582642,592.875000 
	C645.250916,599.140991 647.832581,605.443848 650.458862,611.727783 
	C651.446167,614.090149 652.321411,616.428284 650.160828,618.652039 
	C647.900024,620.979065 645.679993,619.814026 643.351135,618.703125 
	C640.054871,617.130737 636.681396,615.720093 632.988953,614.097900 
z"/>
<path fill="#000000" opacity="1.000000" stroke="none" 
	d="
M493.802338,613.952271 
	C493.829559,605.989990 493.918884,598.518799 493.857056,591.048828 
	C493.825958,587.295471 495.369446,585.625610 499.236359,585.707520 
	C503.198364,585.791565 504.121826,588.254333 503.835602,591.315796 
	C502.982452,600.441650 503.261047,609.538879 503.858337,618.656677 
	C504.061981,621.765442 503.736115,624.766602 499.506226,625.120300 
	C495.984711,625.414612 493.548492,624.660767 493.783325,620.419617 
	C493.893311,618.433472 493.802063,616.436157 493.802338,613.952271 
z"/>
<path fill="#000000" opacity="1.000000" stroke="none" 
	d="
M413.181824,218.204956 
	C406.728668,220.329727 405.986450,219.920090 404.900391,213.734222 
	C403.494324,205.725662 402.100983,197.714310 400.795349,189.688995 
	C400.302979,186.662354 400.621399,184.005341 404.535126,183.426727 
	C408.170013,182.889343 409.291992,185.212662 409.819000,187.985962 
	C411.461029,196.627167 412.952057,205.296982 414.534363,213.949707 
	C414.817047,215.495560 414.911896,216.927963 413.181824,218.204956 
z"/>
<path fill="#000000" opacity="1.000000" stroke="none" 
	d="
M391.428894,699.668091 
	C390.038483,697.646118 389.821045,696.001343 391.756165,694.633850 
	C393.257721,693.572632 394.605164,693.622498 396.335388,694.553101 
	C400.357269,696.716431 402.003143,695.765442 402.675598,691.347290 
	C402.949951,689.544800 403.223633,687.741089 403.557281,685.948975 
	C404.074371,683.171753 403.268921,681.431763 400.184143,681.112854 
	C399.052643,680.995972 397.907684,680.589722 396.867950,680.103516 
	C395.337952,679.388000 394.685333,678.052917 395.117706,676.402405 
	C395.555511,674.731384 396.737335,673.965210 398.487122,674.174988 
	C398.816284,674.214478 399.138733,674.315002 399.468201,674.346252 
	C412.647583,675.597473 412.644318,675.596313 410.463104,688.836548 
	C410.274261,689.982971 410.213257,691.151001 410.014984,692.295471 
	C408.131653,703.165833 400.953827,706.153931 391.428894,699.668091 
z"/>
<path fill="#000000" opacity="1.000000" stroke="none" 
	d="
M560.183594,674.817688 
	C558.637024,671.844238 557.103210,669.268005 555.905762,666.544006 
	C554.432800,663.193176 553.346008,659.745300 548.468201,662.417053 
	C546.833008,663.312683 545.675842,661.918091 545.025574,660.453796 
	C544.270447,658.753540 544.355408,657.070862 546.175964,656.152527 
	C550.766174,653.837036 555.402100,651.607544 560.069641,649.451965 
	C562.105530,648.511719 564.092651,648.845215 565.261353,650.905701 
	C566.580505,653.231506 565.219177,654.757080 563.181152,655.607117 
	C560.181519,656.858032 560.289368,658.737061 561.621887,661.160461 
	C563.539185,664.647339 565.255005,668.248291 567.253601,671.686157 
	C568.714172,674.198486 569.129517,676.295166 566.199707,677.972900 
	C562.862000,679.884277 561.309265,678.137817 560.183594,674.817688 
z"/>
<path fill="#000000" opacity="1.000000" stroke="none" 
	d="
M389.802246,672.774597 
	C391.417755,673.589600 391.516174,674.777100 391.238159,675.939270 
	C389.923615,681.434204 388.980011,687.072693 387.064667,692.355591 
	C384.479156,699.487061 374.647675,700.420410 369.932678,694.342041 
	C368.706085,692.760742 368.646912,691.279114 370.012146,689.880127 
	C371.445526,688.411255 372.787354,688.033203 374.726532,689.621582 
	C378.555084,692.757751 379.536224,692.355408 381.229858,687.609436 
	C381.843231,685.890625 382.265198,684.103210 382.769196,682.345642 
	C383.643677,679.296204 383.060211,677.324036 379.460052,676.606750 
	C377.294617,676.175293 374.420135,675.258728 375.232086,672.127380 
	C376.105499,668.758850 378.804443,669.534790 381.380402,670.147827 
	C384.137299,670.804016 386.888214,671.401978 389.802246,672.774597 
z"/>
<path fill="#000000" opacity="1.000000" stroke="none" 
	d="
M305.617523,232.264923 
	C304.077942,229.519043 301.028656,227.302994 304.916199,224.379730 
	C307.415558,222.500320 309.467468,222.419724 311.194885,225.103760 
	C316.218933,232.910233 321.145844,240.779144 326.154907,248.595352 
	C327.975311,251.435944 326.807983,253.075302 324.257965,254.608826 
	C321.490845,256.272949 319.910370,254.981140 318.531555,252.797058 
	C314.280945,246.063873 310.056396,239.314194 305.617523,232.264923 
z"/>
<path fill="#000000" opacity="1.000000" stroke="none" 
	d="
M608.133789,618.099487 
	C610.064575,616.646423 611.775085,615.297058 613.635071,617.415344 
	C615.548523,619.594604 614.469238,621.386047 612.613708,622.945190 
	C610.289612,624.897949 610.759338,626.869629 612.397278,629.020203 
	C615.019531,632.463196 617.461304,636.044739 620.111572,639.465210 
	C621.829163,641.681824 621.547546,643.318604 619.263672,644.854492 
	C617.042480,646.348450 615.344543,646.158569 613.828247,643.805298 
	C611.394470,640.028259 608.808777,636.349365 606.305176,632.617004 
	C604.766846,630.323669 602.990906,629.399963 600.522522,631.380005 
	C598.879272,632.698181 597.205078,633.033875 595.819519,631.016846 
	C594.232422,628.706421 595.746643,627.321960 597.433044,626.058105 
	C600.894897,623.463684 604.375061,620.893677 608.133789,618.099487 
z"/>
<path fill="#000000" opacity="1.000000" stroke="none" 
	d="
M658.389771,345.324982 
	C664.507080,342.611969 670.291748,340.092621 676.033264,337.478516 
	C679.195068,336.038971 681.353210,336.495239 682.652649,340.047699 
	C683.904846,343.470886 682.341003,345.103882 679.378235,345.980652 
	C672.019592,348.158234 665.257568,351.781830 658.176880,354.630798 
	C655.651855,355.646759 653.227905,356.965179 651.681824,353.150055 
	C650.131714,349.325409 651.809753,347.555725 655.251892,346.559235 
	C656.205322,346.283234 657.111328,345.843658 658.389771,345.324982 
z"/>
<path fill="#000000" opacity="1.000000" stroke="none" 
	d="
M478.521851,678.650269 
	C480.299438,685.847229 480.328552,692.847717 481.033722,699.771667 
	C481.274628,702.136902 480.697906,704.174561 477.888367,704.524963 
	C475.142548,704.867432 474.022980,703.275757 473.675629,700.776489 
	C472.808350,694.536255 471.852570,688.308289 471.000336,682.066101 
	C470.741730,680.172058 471.027191,678.295288 472.951508,677.340576 
	C474.884369,676.381653 476.808167,676.378540 478.521851,678.650269 
z"/>
<path fill="#000000" opacity="1.000000" stroke="none" 
	d="
M571.621765,659.352661 
	C569.927368,656.275696 568.371643,653.543396 566.833496,650.801270 
	C565.692383,648.767029 565.839661,647.009460 567.983643,645.704407 
	C570.273560,644.310303 572.057556,644.788147 573.356628,647.129211 
	C576.567078,652.914612 579.814758,658.679749 582.974243,664.492798 
	C584.049744,666.471558 583.993713,668.274292 581.665710,669.506714 
	C579.319092,670.748962 577.540344,670.309998 576.264221,667.982727 
	C574.752869,665.226440 573.265625,662.456909 571.621765,659.352661 
z"/>
<path fill="#000000" opacity="1.000000" stroke="none" 
	d="
M628.349243,631.652893 
	C624.237976,626.643738 620.409729,621.861938 616.481506,617.163879 
	C614.676025,615.004578 614.410400,613.231506 616.844543,611.296326 
	C619.098938,609.504028 620.663147,610.099243 622.252808,612.134827 
	C626.122986,617.090820 630.088318,621.972595 633.951172,626.934204 
	C635.247559,628.599365 635.981689,630.488220 634.206848,632.304321 
	C632.244324,634.312439 630.354858,633.627014 628.349243,631.652893 
z"/>
<path fill="#000000" opacity="1.000000" stroke="none" 
	d="
M507.213318,689.771362 
	C507.614807,691.963257 508.067963,693.737610 508.300171,695.540466 
	C508.591309,697.800415 507.222961,698.932861 505.200409,699.281982 
	C503.202637,699.626831 502.168823,698.580505 501.703217,696.651306 
	C500.148071,690.207947 498.408020,683.807434 496.958588,677.341248 
	C496.419708,674.937317 496.031433,672.021179 499.450043,671.282043 
	C502.933807,670.528931 503.491425,673.356201 504.074280,675.807861 
	C505.146423,680.317566 506.140381,684.845947 507.213318,689.771362 
z"/>
<path fill="#000000" opacity="1.000000" stroke="none" 
	d="
M548.843262,678.187378 
	C549.307556,679.477051 549.609619,680.425415 549.962952,681.354248 
	C550.737610,683.390625 550.380005,684.837341 548.127441,685.664551 
	C546.103455,686.407776 544.494873,686.250183 543.621765,684.101746 
	C540.877563,677.348877 538.131836,670.595215 535.518555,663.791260 
	C534.605591,661.414124 536.081238,659.971375 538.166260,659.249817 
	C540.352722,658.493103 541.601135,659.740540 542.354431,661.656555 
	C544.474365,667.048828 546.588074,672.443542 548.843262,678.187378 
z"/>
</svg>