<svg version="1.1" id="Layer_1" xmlns="http://www.w3.org/2000/svg" xmlns:xlink="http://www.w3.org/1999/xlink" x="0px" y="0px"
	 width="100%" viewBox="0 0 1024 1024" enable-background="new 0 0 1024 1024" xml:space="preserve">
<path fill="#000000" opacity="1.000000" stroke="none" 
	d="
M238.574158,357.424866 
	C256.977600,378.924805 281.166138,391.244202 305.786530,402.931366 
	C343.645447,420.902832 383.486572,433.671600 422.869598,447.656677 
	C456.951508,459.759247 490.716980,472.597473 522.326050,490.504242 
	C550.720520,506.589905 576.855103,525.374573 596.050964,552.281128 
	C631.297302,601.685242 634.537354,653.662048 607.712891,707.793152 
	C606.868042,709.497925 606.259644,711.546265 604.139954,712.297729 
	C602.458862,711.476562 603.277893,710.227051 603.643250,709.275635 
	C610.456238,691.538635 610.678345,673.175354 608.932861,654.615784 
	C606.384827,627.523376 594.487122,604.917053 575.201843,586.202332 
	C558.420349,569.917480 537.951294,560.110229 515.410706,554.470764 
	C496.393188,549.712769 477.098969,547.530212 457.489563,548.704590 
	C455.119049,548.846558 453.325745,547.893311 451.528564,546.616821 
	C415.752136,521.206116 369.204376,523.380676 333.737732,551.938599 
	C325.478729,558.588806 318.353760,566.245789 312.923828,575.345276 
	C310.466858,579.462646 307.844604,580.191895 303.102234,578.915894 
	C285.641632,574.218079 269.319672,567.487732 255.873413,555.033691 
	C244.891647,544.862244 236.752686,532.867676 233.175323,518.112976 
	C232.862579,516.823059 232.664108,515.499268 232.509521,514.179932 
	C232.436447,513.556335 232.592804,512.905762 232.732910,511.199585 
	C245.895126,518.844116 259.381927,523.627380 274.514557,522.317993 
	C255.640854,513.275452 238.540222,502.115997 226.622757,484.503662 
	C214.534592,466.639069 211.467392,446.828796 214.155533,425.440491 
	C228.440216,440.985382 245.073074,451.726532 266.155457,455.994690 
	C265.819580,452.633392 263.465118,451.946808 261.909515,450.716034 
	C244.371399,436.840607 228.237411,421.667419 219.209137,400.669189 
	C209.803894,378.794250 210.256912,356.594360 218.803909,334.506958 
	C219.840439,331.828278 220.900864,328.912048 224.952026,327.030579 
	C226.768158,338.526306 230.578110,348.802551 238.574158,357.424866 
z"/>
<path fill="#000000" opacity="1.000000" stroke="none" 
	d="
M789.570129,432.565247 
	C802.322205,424.576019 812.720154,414.315979 823.450623,403.522888 
	C826.512939,409.418060 826.394531,415.179199 827.009705,420.609467 
	C830.512756,451.533081 830.376343,482.386017 824.473633,513.088562 
	C817.519287,549.261292 801.818542,581.168823 777.819763,608.987000 
	C752.180847,638.706482 720.843384,661.493958 687.830688,682.179077 
	C663.239319,697.587585 637.650024,711.173157 611.474609,723.665466 
	C609.508057,724.604004 607.626282,726.391113 605.014709,725.570129 
	C603.955505,722.879456 606.101807,721.467834 607.285156,719.883667 
	C621.344299,701.062256 631.603271,680.501038 635.678589,657.207092 
	C640.239258,631.138428 636.736328,605.861145 627.940430,581.071777 
	C621.370972,562.557129 612.352783,544.974365 607.201843,525.926086 
	C603.605835,512.627686 601.676208,499.255096 603.641907,485.435730 
	C605.225220,474.305023 609.711609,464.758698 617.624451,456.799164 
	C618.671143,455.746277 619.688232,454.663696 620.700928,453.577972 
	C620.778625,453.494690 620.711182,453.276062 620.711182,452.370697 
	C613.990723,453.867371 610.194641,448.825317 605.172791,445.852783 
	C593.905762,439.183533 582.389343,440.959656 571.651978,447.745636 
	C563.063965,453.173279 556.416504,460.652618 551.167847,469.297211 
	C547.627014,475.128998 544.406555,481.157410 541.120544,487.140594 
	C539.881226,489.397278 538.493958,491.399017 535.755432,489.445282 
	C533.303894,487.696228 528.120911,486.808228 530.511169,482.462891 
	C540.791199,463.774200 550.651550,444.497375 571.648560,435.152252 
	C582.707825,430.230133 594.088989,429.114441 605.595764,433.899811 
	C605.749573,433.963776 605.936218,433.997620 606.048218,434.106476 
	C613.283936,441.141510 622.575073,442.982330 631.987915,445.112549 
	C637.467285,446.352600 642.620056,449.449219 646.047485,454.299255 
	C644.524353,456.895477 642.297974,456.708130 640.462769,457.193390 
	C624.293457,461.468658 616.015808,472.004150 615.040283,488.802979 
	C613.840942,509.455627 619.386047,528.655090 626.701965,547.592163 
	C632.758606,563.269470 639.629028,578.649292 643.961426,594.967163 
	C652.017700,625.310669 650.972534,655.251038 640.320251,684.819641 
	C639.812927,686.227783 639.301025,687.635132 638.843994,689.059753 
	C638.754456,689.338928 638.908447,689.696106 638.956787,690.068420 
	C640.475891,691.316833 641.889404,690.197937 643.072937,689.574463 
	C681.417786,669.374939 715.859680,644.453430 740.137146,607.664673 
	C747.592468,596.367188 751.909668,583.910461 751.063782,569.936462 
	C749.599243,545.741089 723.901550,530.144836 700.991028,539.848022 
	C694.634583,542.540222 688.893188,546.242249 684.481689,551.651917 
	C682.208984,554.438965 680.632874,554.949463 678.702942,551.292725 
	C672.656006,539.835754 662.619690,533.901611 650.279358,531.364868 
	C644.526062,530.182190 644.291321,529.859863 646.009155,524.110291 
	C649.665771,511.871002 658.433594,503.416046 667.560791,495.301239 
	C683.987000,480.697113 703.510925,471.400818 723.475830,462.824158 
	C743.808533,454.089508 764.959412,447.186279 784.156738,435.893921 
	C785.878357,434.881226 787.560913,433.802246 789.570129,432.565247 
z"/>
<path fill="#000000" opacity="1.000000" stroke="none" 
	d="
M596.088318,721.019653 
	C579.762634,755.689758 550.853577,774.688782 516.565186,787.108643 
	C506.013214,790.930786 495.120972,789.038452 484.371277,788.075928 
	C455.711731,785.509766 427.538116,780.377502 400.774414,769.519470 
	C338.794159,744.374023 294.175140,701.918945 271.456726,638.081482 
	C269.036682,631.281372 266.944489,624.310059 266.209137,616.837769 
	C269.498047,616.927429 269.370300,619.253113 269.915161,620.756470 
	C282.628723,655.835938 304.024231,684.257812 334.924072,705.302673 
	C345.594910,712.570129 356.967682,718.367493 370.070496,720.061340 
	C378.969727,721.211792 387.275208,719.390503 395.323761,715.812073 
	C406.615356,710.791870 418.126495,706.481445 430.443970,704.704712 
	C447.119568,702.299377 462.962769,705.812317 478.317444,711.868530 
	C489.679291,716.349792 501.309937,718.408447 513.485901,717.965454 
	C520.508240,717.709900 527.501282,718.203674 534.084045,721.033691 
	C535.907104,721.817505 537.756165,722.696960 539.327026,723.884705 
	C546.744324,729.492981 545.825500,737.352600 537.239502,740.823608 
	C526.537781,745.149902 515.114685,745.333801 503.822174,745.962952 
	C498.065796,746.283691 492.276794,746.019104 486.459900,746.610596 
	C492.161102,750.222168 498.467224,750.877075 504.840210,751.149963 
	C523.290161,751.939880 540.735962,748.880615 555.732117,737.195312 
	C563.447205,731.183594 568.795288,723.003845 574.781189,715.434570 
	C577.271790,712.285156 579.860413,709.239014 582.889465,706.619934 
	C586.102722,703.841675 589.752014,701.850525 594.154053,701.863525 
	C600.048279,701.880981 602.481628,705.049316 600.606995,710.607300 
	C599.441406,714.063232 597.721619,717.332153 596.088318,721.019653 
z"/>
<path fill="#000000" opacity="1.000000" stroke="none" 
	d="
M203.049194,782.982361 
	C198.976547,783.593140 197.566589,780.203552 195.837646,777.790649 
	C183.310715,760.308289 171.549988,742.330200 161.556335,723.251587 
	C141.149323,684.293274 127.258400,643.079285 119.409492,599.856812 
	C113.242722,565.897522 112.626892,531.694946 115.465225,497.329895 
	C119.598000,447.292694 132.636795,399.716003 154.368561,354.537506 
	C174.454391,312.780731 200.335495,274.982025 232.767838,241.777634 
	C236.527985,237.927994 237.277817,237.971985 240.094376,242.649368 
	C242.316742,246.339951 246.479507,249.576523 246.429779,253.729538 
	C246.377960,258.057953 241.422119,260.445312 238.586563,263.610321 
	C205.583130,300.448456 179.424408,341.585907 160.967316,387.486237 
	C147.606750,420.712250 138.721115,455.120575 135.056564,490.822571 
	C129.613434,543.851990 134.359100,595.846558 150.375244,646.774109 
	C164.040024,690.224792 184.070786,730.415039 211.337234,766.949707 
	C215.521469,772.556274 215.488174,772.493652 210.134644,776.592224 
	C207.763123,778.407776 205.603424,780.500000 203.180954,782.734131 
	C203.014328,783.001587 203.049194,782.982361 203.049194,782.982361 
z"/>
<path fill="#000000" opacity="1.000000" stroke="none" 
	d="
M875.646423,393.328979 
	C859.907043,352.363434 838.597534,315.080536 810.613647,281.697266 
	C807.190430,277.613556 803.705811,273.577911 800.143066,269.615814 
	C797.859985,267.076843 797.368347,265.036041 800.460632,262.584045 
	C802.909119,260.642548 805.158936,258.266052 806.922913,255.689713 
	C809.443481,252.008286 811.212158,252.762482 813.786560,255.656067 
	C838.273804,283.179199 859.062866,313.180573 875.682617,346.114380 
	C899.070312,392.459290 913.354065,441.488892 917.846741,493.086761 
	C925.621765,582.381958 906.865845,665.890930 860.914185,743.083984 
	C854.005310,754.690063 846.427124,765.834656 838.455383,776.733826 
	C836.255554,779.741516 834.429626,779.939148 831.484009,777.854431 
	C819.809753,769.592224 819.916565,769.761719 828.116028,758.267090 
	C853.697693,722.404907 872.174194,683.079468 884.820068,640.953674 
	C895.918030,603.984497 900.926208,566.092529 900.513428,527.601379 
	C900.020142,481.606598 891.856812,436.882843 875.646423,393.328979 
z"/>
<path fill="#000000" opacity="1.000000" stroke="none" 
	d="
M341.780487,641.916016 
	C341.774384,631.767822 341.898102,622.104004 341.705048,612.446594 
	C341.622009,608.291870 343.277100,606.820740 347.317688,606.902954 
	C355.809387,607.075745 364.306946,606.978394 372.802032,606.966492 
	C379.591309,606.957031 379.641876,606.880554 379.663483,599.875610 
	C379.689117,591.560181 378.991211,583.261414 379.491180,574.922791 
	C379.700897,571.424438 380.919800,570.146423 384.215271,570.151733 
	C395.035400,570.169189 405.858307,570.242798 416.674713,570.024719 
	C421.441742,569.928589 423.204742,571.808044 423.064331,576.534668 
	C422.812225,585.022461 423.209198,593.532837 422.842682,602.012512 
	C422.663757,606.151917 424.145386,607.144226 427.936920,607.051208 
	C436.593781,606.838745 445.258881,606.952454 453.920654,606.956604 
	C460.196228,606.959595 460.103577,607.319275 460.556183,613.323425 
	C461.296844,623.149170 460.247192,632.952759 460.755096,642.761475 
	C461.097992,649.383789 460.171448,650.283447 453.604919,650.287964 
	C445.109711,650.293701 436.610748,650.435425 428.121002,650.219238 
	C424.133789,650.117737 422.845154,651.736206 422.903137,655.516479 
	C423.035919,664.175598 422.803711,672.840576 422.959747,681.498901 
	C423.037659,685.821838 421.869507,687.753601 416.976929,687.560791 
	C406.331787,687.141357 395.655792,687.188843 385.002106,687.446045 
	C380.298431,687.559570 378.857727,685.754883 378.982727,681.303528 
	C379.211639,673.147949 379.112793,664.981201 379.048584,656.819946 
	C379.001678,650.854980 378.464478,650.372864 372.345337,650.338013 
	C364.849792,650.295349 357.353882,650.328613 349.858154,650.307922 
	C341.853729,650.285828 341.853760,650.275024 341.780487,641.916016 
z"/>
<path fill="#000000" opacity="1.000000" stroke="none" 
	d="
M697.744263,466.822205 
	C673.896606,478.903351 653.787109,494.558960 641.042358,518.299866 
	C637.221313,525.417725 634.712219,532.943665 634.031799,541.040466 
	C633.900269,542.605286 634.198303,544.442200 632.140198,545.327026 
	C630.066772,544.224365 630.106445,542.060181 629.628479,540.225708 
	C622.288330,512.053894 630.723694,488.306580 650.356689,467.945984 
	C667.536743,450.129120 689.077820,438.761780 710.913208,427.899536 
	C732.980347,416.922089 755.936096,407.733978 777.269714,395.291779 
	C792.926575,386.160461 807.562317,375.772705 816.864563,359.543854 
	C819.539307,354.877472 821.650146,350.031433 821.926819,344.543945 
	C822.000977,343.073792 822.096924,341.513855 823.699097,340.490753 
	C826.546448,340.915161 826.872009,343.553986 827.674927,345.562408 
	C835.244385,364.496246 829.963623,381.192657 818.283630,396.522797 
	C808.098267,409.891296 794.521240,419.231689 780.151123,427.541748 
	C760.049255,439.166351 738.550171,447.841461 717.455933,457.376770 
	C710.931396,460.326111 704.530457,463.548950 697.744263,466.822205 
z"/>
<path fill="#000000" opacity="1.000000" stroke="none" 
	d="
M533.465576,615.555298 
	C539.305176,625.289673 544.721985,634.847656 549.259583,644.852905 
	C555.627441,658.893738 556.707397,672.840332 546.955994,685.945007 
	C538.905762,696.763550 527.960449,701.204407 514.606079,699.290283 
	C501.601105,697.426208 492.793396,689.949707 487.724457,678.077087 
	C482.253204,665.262146 485.176971,652.905884 490.685303,640.951355 
	C496.888275,627.489319 505.533813,615.363281 512.311035,602.198059 
	C514.389160,598.161072 515.823914,593.687134 519.909363,588.652405 
	C524.015198,598.634949 528.668152,606.925049 533.465576,615.555298 
M508.380615,687.070984 
	C510.690552,687.203369 510.283142,686.424438 508.864014,685.492004 
	C504.886536,682.878723 502.033325,679.257019 499.397278,675.378967 
	C498.366272,673.862122 497.958038,671.686707 495.741638,670.946594 
	C494.591461,678.063171 498.686401,683.359497 508.380615,687.070984 
z"/>
<path fill="#000000" opacity="1.000000" stroke="none" 
	d="
M584.276917,134.090805 
	C584.270203,147.496246 584.270203,160.413788 584.270203,173.705399 
	C585.653687,170.557068 586.991028,167.463028 588.368713,164.387009 
	C595.720154,147.973022 603.180359,131.606567 610.363464,115.119316 
	C611.967957,111.436722 613.939941,110.646111 617.707764,111.543564 
	C626.608154,113.663559 626.468140,113.496559 626.415527,122.536247 
	C626.298279,142.659103 626.378967,162.783112 626.378967,182.504501 
	C630.842834,172.678085 635.648438,162.171570 640.391235,151.636780 
	C644.424622,142.677841 648.524414,133.744293 652.310303,124.680656 
	C653.821960,121.061562 655.770081,119.650063 659.565552,121.103317 
	C661.106628,121.693352 662.783325,121.931549 664.401062,122.318275 
	C667.769714,123.123520 668.755493,124.948601 667.114563,128.158859 
	C655.365540,151.144135 643.654297,174.148727 631.912109,197.137512 
	C631.538818,197.868362 631.108398,198.838745 630.456848,199.116745 
	C624.621399,201.606583 619.603882,197.704224 614.203918,196.791901 
	C610.792603,196.215561 610.882996,193.111267 610.950012,190.372360 
	C611.296631,176.220932 611.648926,162.069641 611.985840,147.917999 
	C612.028137,146.140381 611.991516,144.360870 611.991516,142.184769 
	C609.508789,143.006256 609.312134,144.817871 608.679443,146.203979 
	C602.733093,159.230927 596.723206,172.230911 590.982178,185.348312 
	C589.188416,189.446899 586.934875,190.648010 582.460388,189.597946 
	C565.986938,185.731949 568.980713,188.397537 569.036377,172.914459 
	C569.114807,151.096588 569.606628,129.280121 569.941711,107.463341 
	C570.041077,100.992157 570.585022,100.576447 576.931030,101.789429 
	C585.248657,103.379265 585.312561,103.380905 585.100952,111.640160 
	C584.913330,118.963249 584.562439,126.282150 584.276917,134.090805 
z"/>
<path fill="#000000" opacity="1.000000" stroke="none" 
	d="
M382.580933,712.355103 
	C348.836395,707.932495 325.544403,690.018005 312.686981,659.249329 
	C292.576904,611.124329 318.240631,557.559509 368.776276,541.028381 
	C411.089874,527.186829 457.962463,547.595886 475.863312,587.707153 
	C476.903625,590.038208 478.485382,592.351624 477.774384,595.189575 
	C475.448730,595.482117 475.254120,593.627075 474.564453,592.469788 
	C456.811035,562.678955 430.494385,547.722168 395.937347,548.407043 
	C355.941498,549.199646 321.622864,583.033997 318.950195,622.575012 
	C316.199921,663.263245 340.828217,696.610718 380.599274,707.753967 
	C383.660614,708.611633 387.143463,708.696716 389.625122,711.362549 
	C387.573761,713.908386 385.198181,712.512329 382.580933,712.355103 
z"/>
<path fill="#000000" opacity="1.000000" stroke="none" 
	d="
M294.142883,206.698029 
	C312.925720,207.555466 323.054077,228.057159 313.161926,244.447189 
	C307.825043,253.289749 299.592468,259.033691 290.949646,264.105682 
	C277.673553,271.896667 280.775513,271.709747 272.506805,260.028442 
	C260.293030,242.773865 247.918777,225.632950 235.673645,208.400452 
	C231.567505,202.621902 231.608719,202.505417 237.121506,198.216034 
	C244.205627,192.703979 251.009705,186.807373 259.152740,182.768463 
	C266.371704,179.187897 273.460632,178.180954 280.305359,183.355469 
	C287.101105,188.492996 289.280426,195.457428 287.757538,203.711853 
	C287.637299,204.363693 287.515442,205.022385 287.491089,205.681473 
	C287.480286,205.973969 287.710602,206.275375 287.883026,206.699509 
	C289.795380,206.699509 291.752258,206.699509 294.142883,206.698029 
M275.204742,236.348160 
	C277.195953,239.219421 279.165924,242.105682 281.182251,244.959213 
	C288.265594,254.983856 290.704010,255.063278 298.949219,245.558334 
	C299.493011,244.931473 300.029663,244.286438 300.478485,243.591034 
	C303.876923,238.325333 303.412506,232.948395 299.067383,226.919052 
	C295.017334,221.299133 290.408875,219.040192 285.089050,220.582993 
	C279.604431,222.173584 275.039062,225.434448 270.438721,229.286957 
	C272.042450,231.680801 273.415009,233.729599 275.204742,236.348160 
M268.862152,195.359772 
	C263.176422,193.256088 255.203903,195.503830 251.729385,199.976929 
	C250.433563,201.645203 251.329895,202.758072 252.155670,203.964233 
	C255.252472,208.487488 258.438629,212.949844 261.512848,217.488174 
	C263.197479,219.975113 265.020905,219.916245 267.433746,218.471939 
	C276.777557,212.878876 277.673767,203.515335 268.862152,195.359772 
z"/>
<path fill="#000000" opacity="1.000000" stroke="none" 
	d="
M737.258545,204.191254 
	C731.579590,214.977661 726.099060,225.453384 720.517700,235.875168 
	C719.408203,237.946915 718.591064,241.365387 715.388794,240.137375 
	C711.867615,238.787079 707.328186,238.191391 706.300415,233.351166 
	C706.026733,232.062408 706.059509,230.701157 706.020325,229.371170 
	C705.550476,213.391876 705.095764,197.412125 704.630127,181.432709 
	C704.563660,179.148849 704.520447,176.854187 703.408508,174.694092 
	C701.589844,175.481613 701.167419,177.191376 700.416443,178.611023 
	C694.031982,190.680206 687.705200,202.780029 681.286194,214.830765 
	C680.243225,216.788696 679.595886,219.764877 676.668335,219.349579 
	C673.563354,218.909119 670.445496,217.647308 668.342346,215.198471 
	C666.735657,213.327713 668.520081,211.390640 669.409180,209.709930 
	C678.285889,192.929199 687.228943,176.183533 696.152344,159.427505 
	C698.500427,155.018463 700.735718,150.544113 703.241882,146.226913 
	C704.373352,144.277725 704.476624,140.989059 708.110718,141.541580 
	C712.421631,142.197006 716.950623,146.060211 717.197266,149.453491 
	C717.559326,154.433472 717.969971,159.418930 718.064209,164.407654 
	C718.334412,178.709946 719.683472,192.971100 719.216003,208.186279 
	C721.896240,206.357742 722.673035,204.200653 723.707397,202.283920 
	C730.270630,190.121765 736.973816,178.030655 743.276123,165.734314 
	C745.753357,160.901031 748.406433,163.056107 751.349670,164.613098 
	C754.224304,166.133804 757.042480,167.272369 754.568604,171.684311 
	C748.625854,182.282791 743.109680,193.120468 737.258545,204.191254 
z"/>
<path fill="#000000" opacity="1.000000" stroke="none" 
	d="
M411.361084,169.869873 
	C412.703522,176.200134 413.197327,182.098282 411.924072,188.117676 
	C409.118805,201.379990 400.041138,208.012543 387.747467,211.236099 
	C376.247040,214.251678 366.479065,211.056595 359.149139,201.863159 
	C347.785370,187.610321 341.641754,171.256058 341.878815,152.912964 
	C342.222717,126.302597 373.526764,116.659531 388.890167,127.722946 
	C395.719879,132.641098 400.533356,139.053696 403.894867,146.674545 
	C407.133789,154.017380 409.512238,161.635620 411.361084,169.869873 
M395.460907,194.673447 
	C396.643433,192.035370 397.081299,189.242386 396.903534,186.392319 
	C395.853943,169.564056 390.328003,154.273331 380.860962,140.383911 
	C379.941986,139.035690 378.694031,137.837112 377.393311,136.836060 
	C370.288757,131.368271 360.344666,134.897491 358.011780,143.551056 
	C356.885773,147.727905 357.537750,151.796417 358.159943,155.908646 
	C360.228149,169.577774 364.899200,182.323776 372.323029,193.950516 
	C378.233154,203.206589 388.618408,203.688507 395.460907,194.673447 
z"/>
<path fill="#000000" opacity="1.000000" stroke="none" 
	d="
M417.410889,177.420135 
	C410.192963,161.210129 406.601807,144.833679 410.702393,127.528351 
	C413.727142,114.763199 422.608276,107.187538 436.416473,105.101334 
	C449.415314,103.137421 459.971191,107.853447 466.317383,119.377701 
	C475.111969,135.348099 478.506195,152.430756 474.488068,170.473709 
	C471.445312,184.137039 462.335968,192.222351 448.705200,194.079437 
	C434.289703,196.043442 424.588226,190.952225 417.410889,177.420135 
M457.408752,144.111176 
	C455.554108,135.654190 453.720642,127.177902 448.324554,120.072693 
	C445.046936,115.756950 440.583374,114.495575 435.445496,115.645454 
	C430.316010,116.793457 427.291595,120.398033 426.499023,125.300972 
	C423.564697,143.453384 427.181061,160.709106 434.847717,177.134857 
	C437.700653,183.247345 442.833221,185.073563 449.519867,183.742691 
	C454.709381,182.709824 458.079987,178.590485 458.858002,172.228287 
	C459.978210,163.067566 458.986877,153.999771 457.408752,144.111176 
z"/>
<path fill="#000000" opacity="1.000000" stroke="none" 
	d="
M481.644775,154.243164 
	C480.519653,138.297745 481.097351,122.794617 480.691132,107.312248 
	C480.574432,102.865067 482.029144,100.918869 486.585754,100.849655 
	C492.737396,100.756195 498.880493,99.956459 505.030304,99.915192 
	C525.561646,99.777405 536.995544,109.726746 540.026794,129.959122 
	C541.653320,140.815155 541.154236,151.498688 538.285950,162.125366 
	C534.259460,177.042862 523.297668,185.890457 507.858612,186.253250 
	C500.863800,186.417618 493.886871,186.145477 486.902435,185.466141 
	C482.992767,185.085846 481.770966,183.334671 481.795502,179.707520 
	C481.851837,171.378464 481.711609,163.048096 481.644775,154.243164 
M505.403046,111.094879 
	C496.325653,111.202049 496.243896,111.203514 496.402222,120.053986 
	C496.553864,128.531342 496.978210,137.003738 497.137970,145.481049 
	C497.294678,153.796860 497.240204,162.116440 497.342102,170.433594 
	C497.370636,172.763809 497.363159,175.063065 500.498962,175.834991 
	C510.972900,178.413330 520.490845,173.228622 522.754944,162.788498 
	C525.723328,149.100418 525.466553,135.344299 521.025452,121.932228 
	C518.344299,113.835068 514.782043,111.457321 505.403046,111.094879 
z"/>
<path fill="#000000" opacity="1.000000" stroke="none" 
	d="
M774.393555,262.358063 
	C772.616577,264.592072 770.808838,266.401123 769.568726,268.539459 
	C766.614014,273.634033 762.896057,273.878937 757.781189,271.718109 
	C750.802734,268.769958 744.231018,265.319885 738.606140,260.233063 
	C729.193909,251.721130 726.481628,241.095169 730.507507,229.346817 
	C736.051453,213.168518 745.737793,199.776428 760.309143,190.406128 
	C777.699280,179.223175 802.056763,187.970383 808.739319,207.632889 
	C810.962341,214.173691 809.139526,219.834961 804.641235,224.653320 
	C800.894043,228.667267 795.296204,229.065628 791.017395,226.060760 
	C786.512512,222.897156 786.229797,220.108597 790.012329,216.147171 
	C794.028076,211.941528 794.949158,207.222549 792.586792,202.957581 
	C790.517151,199.221069 784.828857,196.843430 779.959595,197.701340 
	C776.602844,198.292740 773.621765,199.719406 771.022339,201.909042 
	C760.161255,211.057816 751.527405,221.975266 745.701050,234.929962 
	C740.998352,245.386093 743.603394,252.245071 753.540466,257.850769 
	C756.572876,259.561371 758.602661,259.358551 760.646729,256.344574 
	C764.383545,250.834442 768.539490,245.608627 772.278625,240.099976 
	C774.519165,236.799103 776.686523,236.366882 780.142578,238.465530 
	C788.763062,243.700165 788.843445,243.567596 782.836304,251.387466 
	C780.097717,254.952499 777.359314,258.517700 774.393555,262.358063 
z"/>
<path fill="#000000" opacity="1.000000" stroke="none" 
	d="
M514.752686,796.729919 
	C524.202881,795.339661 532.811218,792.526794 540.822327,788.882812 
	C542.452820,790.396729 541.993286,791.511902 541.346558,792.498474 
	C531.332825,807.774170 520.428528,822.243530 503.623383,830.748108 
	C496.479553,834.363342 489.029053,837.435852 480.656982,835.267944 
	C474.423248,833.653809 469.711243,830.316650 468.305817,823.659607 
	C466.941345,817.196411 469.984467,812.376526 474.645569,808.374207 
	C481.502197,802.486633 490.020386,800.691040 498.536530,799.077393 
	C503.756287,798.088379 509.056610,797.524414 514.752686,796.729919 
z"/>
<path fill="#000000" opacity="1.000000" stroke="none" 
	d="
M362.806274,218.605179 
	C352.379150,224.241776 342.224518,229.590378 332.135132,235.059372 
	C328.702637,236.919968 326.814667,235.977859 325.076508,232.578445 
	C314.018066,210.950928 302.900177,189.351974 291.543518,167.880249 
	C289.329865,163.694931 290.171875,161.699905 294.208771,159.811417 
	C303.862335,155.295380 302.269745,154.251175 307.332153,163.918060 
	C316.131317,180.720398 324.735901,197.624817 333.385223,214.505325 
	C336.476990,220.539413 336.558807,220.616760 342.686279,217.433716 
	C346.967712,215.209641 351.183105,212.852982 355.517517,210.739090 
	C357.301514,209.869003 359.409241,207.608841 361.284088,209.978500 
	C363.123749,212.303741 365.677460,214.900192 362.806274,218.605179 
z"/>
<path fill="#000000" opacity="1.000000" stroke="none" 
	d="
M685.464478,148.357773 
	C677.718140,167.908295 670.097534,187.093063 662.499817,206.286896 
	C660.307861,211.824234 659.680359,212.136612 653.976562,210.127426 
	C643.996704,206.611954 645.018433,206.890533 648.601074,198.114166 
	C657.284363,176.842697 665.666931,155.447388 674.019287,134.042938 
	C675.522034,130.192001 677.290649,128.877853 681.487244,130.472397 
	C691.058411,134.109085 691.126770,133.929138 687.425720,143.346420 
	C686.816650,144.896057 686.207825,146.445786 685.464478,148.357773 
z"/>
<path fill="#000000" opacity="1.000000" stroke="none" 
	d="
M528.389893,923.195435 
	C528.376587,914.351135 528.231201,905.717224 528.085754,897.083252 
	C528.035950,894.128052 528.638428,891.859253 532.348328,891.695190 
	C536.138123,891.527527 536.843811,893.823425 536.871399,896.753357 
	C537.006226,911.065186 537.101013,925.377258 537.193665,939.689453 
	C537.205994,941.590942 536.993347,943.475647 534.694214,943.993530 
	C531.833923,944.637878 529.530273,943.989807 527.907593,941.230286 
	C523.185364,933.199585 518.349182,925.235779 513.541992,917.255188 
	C512.782837,915.994873 511.942535,914.783447 510.106201,913.645752 
	C510.106201,916.351562 510.099548,919.057373 510.107574,921.763184 
	C510.126404,928.087158 510.127472,934.411438 510.186371,940.735046 
	C510.213562,943.652283 508.790527,944.986755 505.937134,945.044800 
	C503.027527,945.104004 500.989380,944.130920 500.983795,940.866943 
	C500.958221,925.889282 500.957916,910.911682 500.989563,895.934082 
	C500.993225,894.196716 501.455811,892.514160 503.490509,892.117188 
	C506.109283,891.606201 508.567017,892.014221 510.079956,894.474854 
	C512.344482,898.157898 514.359436,901.995422 516.651611,905.660339 
	C520.399353,911.652649 523.632507,917.986572 528.389893,923.195435 
z"/>
<path fill="#000000" opacity="1.000000" stroke="none" 
	d="
M311.396912,862.423706 
	C314.587494,856.346069 317.549866,850.564819 320.657623,844.862793 
	C321.756439,842.846802 322.013428,839.529846 325.586670,840.354492 
	C329.064575,841.157166 330.884552,843.454712 331.026855,847.158386 
	C331.346558,855.478638 331.788544,863.794312 332.210052,872.110413 
	C332.301025,873.905273 331.952118,875.770325 333.049377,877.777832 
	C335.194519,877.087280 335.759644,875.045898 336.616394,873.452271 
	C339.692657,867.730103 342.698212,861.966431 345.570587,856.139648 
	C346.877563,853.488342 348.339905,852.164612 351.417877,853.612061 
	C354.668579,855.140747 354.726959,857.156616 353.222107,860.047668 
	C346.761108,872.460144 340.443207,884.947083 334.008179,897.373230 
	C332.989197,899.340881 332.268860,902.115723 329.049438,901.133118 
	C325.951691,900.187500 323.945312,898.381470 323.857391,894.709351 
	C323.650177,886.053955 323.186981,877.404541 322.817047,868.753113 
	C322.740570,866.964294 322.619476,865.177307 322.488251,862.843079 
	C319.868134,864.080200 319.236206,866.206543 318.302673,867.990662 
	C315.290314,873.747742 312.400604,879.568909 309.407593,885.336365 
	C308.145386,887.768616 306.952637,890.197693 303.352631,888.167053 
	C300.215088,886.397217 299.647095,884.556824 301.474640,881.336792 
	C304.926056,875.255676 307.996918,868.958618 311.396912,862.423706 
z"/>
<path fill="#000000" opacity="1.000000" stroke="none" 
	d="
M607.376404,903.274170 
	C605.600464,903.497253 605.525452,903.515564 605.822815,904.733948 
	C607.638794,912.175293 609.465942,919.614075 611.344604,927.039795 
	C612.113159,930.077576 613.047791,932.978455 608.555542,933.993958 
	C603.973572,935.029663 603.724060,931.643799 602.990295,928.804504 
	C599.657104,915.907593 596.353271,903.002930 593.119995,890.080688 
	C592.606628,888.028992 590.598022,885.515503 593.826843,883.994995 
	C596.684753,882.649048 599.471069,882.424927 602.042725,885.094238 
	C608.631714,891.933167 615.382080,898.616394 622.044617,905.384888 
	C622.853333,906.206543 623.519409,907.168701 624.707703,907.816589 
	C624.687744,901.568726 622.568604,895.890076 621.322632,890.049988 
	C620.662781,886.957031 619.792542,883.909180 619.030090,880.837830 
	C618.321472,877.983276 619.578125,876.440918 622.312622,875.730957 
	C625.219788,874.976257 626.651550,876.135315 627.338135,878.944336 
	C630.895630,893.498474 634.532104,908.033264 638.134338,922.576477 
	C638.550842,924.258179 638.835144,925.973755 636.813232,926.854919 
	C634.458130,927.881531 632.087280,928.632690 629.895264,926.395691 
	C625.580200,921.992004 621.210205,917.642090 616.906006,913.227905 
	C613.766541,910.008179 610.696289,906.720825 607.376404,903.274170 
z"/>
<path fill="#000000" opacity="1.000000" stroke="none" 
	d="
M379.387268,918.408325 
	C383.589142,904.328369 387.755432,890.646606 391.700653,876.901428 
	C392.745117,873.262573 394.425934,871.976868 398.171326,873.143311 
	C403.556641,874.820496 409.157532,875.763245 414.165070,878.627014 
	C419.243073,881.531189 422.221558,885.731323 421.933167,891.571899 
	C421.616791,897.980530 419.002655,903.285767 412.373108,905.369141 
	C409.011292,906.425598 408.507874,908.219849 409.384003,911.333435 
	C410.869690,916.612854 411.978485,921.997009 413.363953,927.306274 
	C414.406616,931.301880 412.886810,932.042847 409.248383,931.137390 
	C405.424072,930.185730 403.368439,928.204346 402.646698,924.135803 
	C401.544769,917.924072 399.806915,911.824768 398.325317,905.681030 
	C397.902405,903.927368 397.067383,902.209473 397.967438,900.324341 
	C399.766479,898.959595 401.832214,899.973999 403.758484,899.737854 
	C408.019012,899.215759 411.078491,896.048218 411.693390,891.387695 
	C412.254272,887.136963 410.310181,884.432007 406.551453,882.692627 
	C402.906921,881.006165 400.856445,881.681885 399.692383,885.903320 
	C396.510071,897.443970 393.010284,908.898193 389.540497,920.357605 
	C388.905487,922.454834 388.544800,925.503052 385.152985,924.409790 
	C382.433716,923.533325 378.272980,923.716187 379.387268,918.408325 
z"/>
<path fill="#000000" opacity="1.000000" stroke="none" 
	d="
M419.472107,797.346558 
	C432.845337,789.980408 446.200745,792.136353 459.492279,796.176819 
	C463.489044,797.391724 467.923065,798.139099 470.748047,801.505981 
	C470.769287,802.872620 470.039673,803.371216 469.255463,803.593323 
	C460.141510,806.174561 452.498322,811.623535 444.421570,816.234314 
	C439.197998,819.216248 433.884521,822.086914 427.578491,821.622803 
	C421.506226,821.175903 416.500092,818.808960 414.432678,812.651062 
	C412.408417,806.621887 414.203735,801.531860 419.472107,797.346558 
z"/>
<path fill="#000000" opacity="1.000000" stroke="none" 
	d="
M229.777435,619.788086 
	C217.296249,619.084656 209.880066,610.835693 212.418915,600.993408 
	C214.126282,594.374512 219.499191,589.985535 226.464722,589.519775 
	C240.756531,588.564087 259.083221,602.619995 261.937561,616.749207 
	C261.994904,617.032959 261.774048,617.373047 261.413269,618.616272 
	C250.847214,613.242065 240.588501,617.564880 229.777435,619.788086 
z"/>
<path fill="#000000" opacity="1.000000" stroke="none" 
	d="
M271.003723,867.883789 
	C266.274048,862.127441 266.156250,856.048523 269.675293,850.391479 
	C276.087646,840.083313 283.072266,830.130920 289.828094,820.036743 
	C292.021851,816.759033 294.091187,818.963013 296.137756,820.241150 
	C298.568787,821.759399 299.699799,823.455811 297.714478,826.344971 
	C292.530334,833.889526 287.506104,841.545410 282.504944,849.213501 
	C280.964203,851.575684 279.566559,854.054871 278.346771,856.597229 
	C276.554108,860.333557 277.032684,863.850769 280.470947,866.392334 
	C284.192322,869.143066 287.559418,867.446899 290.234680,864.622070 
	C292.621643,862.101685 294.653839,859.207642 296.600708,856.315613 
	C301.155762,849.549255 305.615936,842.717285 310.009521,835.844666 
	C311.754242,833.115540 313.560913,832.244812 316.544800,834.212463 
	C319.515411,836.171265 319.449341,838.145508 317.646454,840.856812 
	C312.209015,849.034119 307.051300,857.400146 301.514404,865.508118 
	C292.767670,878.316528 282.431061,879.143250 271.003723,867.883789 
z"/>
<path fill="#000000" opacity="1.000000" stroke="none" 
	d="
M367.262482,863.060364 
	C374.818665,861.266052 380.061554,865.407837 379.275879,872.347168 
	C377.684387,886.403931 375.924561,900.441772 374.191559,914.482178 
	C373.934540,916.564392 373.961914,919.530579 370.851715,918.874329 
	C368.004303,918.273560 364.229706,918.066711 363.863708,913.766296 
	C363.794464,912.952576 363.981903,912.108398 364.110596,911.287720 
	C365.519745,902.300720 363.984619,900.201782 354.957123,898.590759 
	C350.687714,897.828735 349.830566,901.606628 347.943939,903.868347 
	C346.091370,906.089172 344.739136,908.531250 341.088409,907.011169 
	C336.992249,905.305725 336.424561,904.010132 339.072937,900.471924 
	C348.356934,888.068909 357.680328,875.695251 367.262482,863.060364 
M368.531433,876.625793 
	C363.545685,879.579651 361.716736,885.010315 358.615845,889.425354 
	C357.682251,890.754578 358.914703,891.957825 360.181091,892.537720 
	C362.057098,893.396790 363.808777,894.906738 366.500214,894.017944 
	C367.931946,888.575867 368.926086,882.964722 368.531433,876.625793 
z"/>
<path fill="#000000" opacity="1.000000" stroke="none" 
	d="
M203.000336,783.015442 
	C212.573471,779.170898 221.447357,773.886108 230.623840,769.206604 
	C236.541489,766.188965 236.618973,766.415710 242.197083,772.252380 
	C245.517899,775.727051 243.417969,778.110474 241.579987,780.956726 
	C234.094467,792.548645 226.717331,804.210571 219.219559,815.794495 
	C217.963028,817.735718 216.950134,820.728333 213.548431,818.468018 
	C209.325943,815.662292 208.586533,813.065247 211.118164,809.630676 
	C216.448395,802.399536 215.648376,798.534912 207.944534,793.446838 
	C206.441574,792.454163 205.199600,792.574829 203.801285,793.373474 
	C201.925049,794.445129 199.967392,795.394836 198.180847,796.598877 
	C193.995209,799.419861 192.034668,796.352600 190.318039,793.500977 
	C188.344879,790.223083 191.623398,789.678833 193.438507,788.590149 
	C196.429062,786.796570 199.515167,785.162292 202.805084,783.221619 
	C203.049194,782.982361 203.014328,783.001587 203.000336,783.015442 
M230.210953,781.264954 
	C230.565109,780.554688 231.158936,779.899414 230.530106,778.559326 
	C224.791870,781.604004 218.965363,784.386536 213.484970,788.294861 
	C214.380875,789.524231 214.808884,790.221680 215.342331,790.826050 
	C219.738663,795.806824 220.616028,795.715759 224.329742,790.054932 
	C226.147293,787.284485 228.026001,784.554138 230.210953,781.264954 
z"/>
<path fill="#000000" opacity="1.000000" stroke="none" 
	d="
M723.943115,851.057129 
	C730.835327,858.069946 737.534302,864.776550 744.096802,871.614014 
	C745.603943,873.184265 748.884155,874.852966 745.424683,877.517273 
	C742.764465,879.566162 739.951904,882.632874 736.604187,878.299805 
	C735.995850,877.512512 735.183533,876.874573 734.625122,876.058350 
	C732.110840,872.383057 729.341064,871.957886 725.362976,874.252502 
	C716.651184,879.277832 718.100708,877.885864 720.376038,886.413208 
	C721.021667,888.832886 722.031067,891.089722 719.285645,893.095703 
	C714.976013,896.244751 712.996460,895.663513 711.661377,890.450989 
	C708.073975,876.445251 704.636658,862.399109 700.853271,848.446716 
	C699.731689,844.310730 700.757019,842.070984 704.482544,840.042847 
	C708.292297,837.968872 711.229248,837.066284 714.412048,841.060608 
	C717.196411,844.554932 720.580933,847.571106 723.943115,851.057129 
M712.785583,860.821167 
	C713.049561,861.785156 713.303711,862.752014 713.579163,863.712646 
	C715.806091,871.479370 716.535095,871.731384 723.414917,867.040527 
	C723.785156,866.788147 723.975098,866.271179 724.564880,865.423340 
	C720.153687,860.612061 715.731873,855.789246 711.310059,850.966431 
	C710.978027,851.159302 710.645935,851.352173 710.313904,851.545044 
	C711.058411,854.383057 711.802979,857.221130 712.785583,860.821167 
z"/>
<path fill="#000000" opacity="1.000000" stroke="none" 
	d="
M481.294250,890.721619 
	C486.081909,890.234009 487.476227,892.859619 488.116089,896.584534 
	C490.567352,910.854370 493.124603,925.106079 495.615753,939.369202 
	C495.940948,941.230957 497.106476,943.928833 494.114655,944.171631 
	C491.265289,944.403015 487.547943,945.834900 485.754364,941.856567 
	C485.219727,940.670715 484.931793,939.274658 484.917297,937.970642 
	C484.858185,932.647644 482.886475,930.411011 476.981140,929.748413 
	C470.956085,929.072327 468.756958,931.066284 467.636505,936.219788 
	C467.221313,938.129395 466.966278,940.315125 465.017456,941.412781 
	C462.737671,942.696838 460.351532,941.934448 458.328796,940.857178 
	C456.047638,939.642273 457.421417,937.594360 458.009644,935.985291 
	C463.098633,922.064575 468.397736,908.218628 473.304016,894.234558 
	C474.801697,889.965759 477.703369,890.457886 481.294250,890.721619 
M476.874084,922.759583 
	C478.619904,922.628662 480.543365,923.456482 482.230164,921.629089 
	C481.785919,915.394775 481.083313,909.048401 479.166260,902.713989 
	C476.870300,908.407104 474.939026,914.165649 473.165253,919.972229 
	C472.366821,922.585999 474.483582,922.485168 476.874084,922.759583 
z"/>
<path fill="#000000" opacity="1.000000" stroke="none" 
	d="
M282.037231,827.843140 
	C274.330536,836.913208 263.706146,837.295654 257.560333,829.004700 
	C256.590302,827.696106 255.152390,826.280945 256.432739,824.569397 
	C257.835114,822.694824 259.377625,824.163391 260.847809,824.808350 
	C265.757233,826.962341 270.148499,826.052368 272.923401,822.345520 
	C275.584076,818.791321 275.667419,813.880554 273.119965,810.766418 
	C270.131348,807.112732 268.242310,806.997192 265.257751,810.674011 
	C258.028198,819.580505 250.899826,828.569397 243.756851,837.545837 
	C239.654648,842.700867 238.796249,842.707214 234.032211,838.256592 
	C232.041229,836.396484 231.820526,834.933350 233.600571,832.793030 
	C242.956360,821.543152 252.245636,810.237488 261.489349,798.895203 
	C263.441437,796.500000 265.299103,796.046387 267.796295,798.080078 
	C271.656036,801.223511 276.032928,803.705872 279.448059,807.427734 
	C285.102051,813.589539 286.027344,819.932861 282.037231,827.843140 
z"/>
<path fill="#000000" opacity="1.000000" stroke="none" 
	d="
M779.695312,809.261963 
	C785.627014,813.227966 791.261353,816.988586 796.895752,820.749146 
	C797.088867,820.589294 797.281982,820.429382 797.475098,820.269531 
	C791.513794,809.781494 785.551025,799.294189 779.592529,788.804504 
	C778.622620,787.097168 777.273132,785.530945 778.659180,783.323608 
	C781.244690,779.205627 784.480042,779.086853 786.807983,783.374329 
	C793.876282,796.392151 800.762329,809.508789 807.823120,822.530762 
	C809.250366,825.163147 809.188232,827.243347 806.688843,829.006958 
	C804.016724,830.892456 802.055420,834.864380 797.779175,832.284485 
	C794.502380,830.307312 791.263062,828.264099 788.061035,826.167847 
	C778.869629,820.150879 769.694824,814.108337 760.540588,808.034973 
	C758.851807,806.914612 755.915833,805.905518 758.087402,803.248596 
	C759.898071,801.033203 761.748230,797.340332 765.729004,799.857056 
	C770.369263,802.790833 774.848694,805.978821 779.695312,809.261963 
z"/>
<path fill="#000000" opacity="1.000000" stroke="none" 
	d="
M797.993164,763.006104 
	C799.220398,761.624451 800.148804,760.435974 801.237732,759.419495 
	C802.792297,757.968384 804.275513,758.553772 805.628174,759.842712 
	C806.986267,761.136780 807.604675,762.565613 806.215576,764.199768 
	C804.061035,766.734375 801.874634,769.242065 799.676025,771.738586 
	C798.059753,773.573853 798.045166,775.277222 799.977722,776.886963 
	C800.105225,776.993164 800.221252,777.113831 800.337646,777.232666 
	C807.481140,784.536255 807.492615,784.547424 814.490173,777.263672 
	C816.207458,775.476257 817.859497,773.862915 820.389404,776.029968 
	C822.977295,778.246765 821.555115,780.018005 819.895996,781.912720 
	C813.539673,789.171875 813.558411,789.188293 820.655090,795.912903 
	C825.356689,800.367859 825.368408,800.378418 829.800293,795.468262 
	C831.360657,793.739624 832.842224,791.940125 834.370361,790.182251 
	C835.923218,788.395996 837.548340,787.106201 839.787292,789.283936 
	C841.637939,791.084167 841.958496,792.817139 840.071411,794.884705 
	C835.474304,799.921631 830.974915,805.047729 826.440369,810.141724 
	C824.757507,812.032288 823.079285,811.914062 821.281372,810.260437 
	C810.260498,800.123779 799.231934,789.995605 788.180115,779.892761 
	C786.021973,777.919861 785.940308,776.120422 788.005676,773.966187 
	C791.343811,770.484070 794.520874,766.847473 797.993164,763.006104 
z"/>
<path fill="#000000" opacity="1.000000" stroke="none" 
	d="
M251.499390,563.503052 
	C259.752930,571.976562 262.760986,582.240234 264.685547,592.816711 
	C262.738556,593.943787 261.942810,593.256042 261.182648,592.618530 
	C256.226990,588.462891 250.389374,586.098450 244.295303,584.240601 
	C240.308411,583.025146 236.326035,581.796570 232.864075,579.347595 
	C226.001099,574.492798 224.121078,566.204041 228.520996,560.165894 
	C232.516708,554.682434 239.926804,554.294189 246.741959,559.301331 
	C248.344803,560.478882 249.749420,561.926270 251.499390,563.503052 
z"/>
<path fill="#000000" opacity="1.000000" stroke="none" 
	d="
M292.348511,616.107178 
	C290.996124,619.257080 290.877625,622.618591 288.284760,624.607666 
	C287.659943,624.397461 287.157837,624.376465 287.075134,624.179443 
	C282.949463,614.348022 276.107880,606.046204 271.504303,596.492432 
	C270.493927,594.395569 269.898651,592.113403 270.058411,589.741760 
	C270.404602,584.601807 273.501923,580.337952 277.884827,579.281006 
	C282.998474,578.047913 286.745575,580.605835 289.250183,584.591736 
	C295.389648,594.362427 295.715576,604.895691 292.348511,616.107178 
z"/>
<path fill="#000000" opacity="1.000000" stroke="none" 
	d="
M721.360474,837.430298 
	C718.269165,834.805847 718.344971,832.625549 721.459045,830.427307 
	C728.386108,825.537476 735.234009,820.535645 742.117615,815.584106 
	C744.090515,814.164917 745.899048,813.642761 747.663513,816.051514 
	C749.356567,818.362793 748.618164,819.872498 746.651733,821.527283 
	C740.218506,826.941162 740.226685,827.007385 745.090759,833.944885 
	C751.105042,842.523010 757.046204,851.157654 763.285339,859.570312 
	C765.781494,862.936096 764.719849,864.654114 761.778564,866.790466 
	C758.622070,869.083191 756.706543,868.765503 754.514587,865.480713 
	C748.330566,856.213745 741.912415,847.101624 735.510925,837.981567 
	C731.676392,832.518738 731.623230,832.581482 725.728333,836.036804 
	C724.478210,836.769592 723.372864,837.981140 721.360474,837.430298 
z"/>
<path fill="#000000" opacity="1.000000" stroke="none" 
	d="
M647.058167,875.015198 
	C642.726562,871.033264 642.864868,869.487488 647.485168,867.517761 
	C655.123718,864.261292 662.796509,861.085144 670.453064,857.870911 
	C672.551147,856.990173 674.614197,856.239258 675.916687,859.040649 
	C677.186218,861.770996 676.031006,863.478394 673.544678,864.605408 
	C672.637756,865.016479 671.739380,865.466431 670.796753,865.775330 
	C667.300537,866.921143 666.739380,868.987610 668.173950,872.303955 
	C672.789368,882.973633 677.066345,893.791260 681.776428,904.417725 
	C683.609131,908.552490 682.516541,910.439758 678.440674,911.745056 
	C675.076355,912.822449 673.618713,911.596191 672.431824,908.603760 
	C668.513062,898.723083 664.360107,888.935547 660.382446,879.077820 
	C657.284424,871.400085 657.343079,871.382568 649.821167,874.310852 
	C649.052368,874.610107 648.240051,874.797546 647.058167,875.015198 
z"/>
<path fill="#000000" opacity="1.000000" stroke="none" 
	d="
M434.649811,913.543701 
	C432.773315,921.396423 431.136658,928.872253 429.169312,936.259949 
	C427.849152,941.217224 424.938568,944.903992 419.496277,945.910278 
	C416.471954,946.469543 413.831543,945.662292 411.726318,943.513733 
	C409.975494,941.726868 409.759338,939.415588 412.661896,939.126038 
	C418.670258,938.526733 419.578735,934.040955 420.574982,929.684204 
	C423.725983,915.904358 426.703125,902.084595 429.724060,888.275146 
	C430.379303,885.279907 430.619019,882.183228 435.222504,883.204163 
	C439.316528,884.112061 440.714111,885.875488 439.618744,890.201416 
	C437.702332,897.769775 436.342133,905.479065 434.649811,913.543701 
z"/>
<path fill="#000000" opacity="1.000000" stroke="none" 
	d="
M434.777832,943.838013 
	C439.137604,942.132202 440.082031,938.508911 440.718750,934.878174 
	C443.162323,920.944092 445.421844,906.977600 447.886566,893.047302 
	C448.313599,890.633728 447.790131,887.406311 451.527313,886.773621 
	C456.409332,885.947083 458.813721,888.224060 458.011627,893.221375 
	C455.822418,906.861328 453.572662,920.491943 451.255035,934.110657 
	C450.554657,938.226257 449.437927,942.260437 447.017578,945.764893 
	C444.147186,949.920959 438.583740,951.718323 434.737030,949.555542 
	C431.999908,948.016541 430.189636,946.057129 434.777832,943.838013 
z"/>
<path fill="#000000" opacity="1.000000" stroke="none" 
	d="
M576.780151,895.112000 
	C576.823914,891.964050 574.030579,888.770142 577.865662,886.655029 
	C582.238647,884.243042 585.525635,885.847046 586.383789,890.820190 
	C588.752686,904.547729 590.931641,918.309448 593.457214,932.007629 
	C594.165771,935.850769 593.138855,937.462158 589.319092,938.124939 
	C585.202637,938.839111 583.656799,937.231262 583.056091,933.350220 
	C581.102234,920.727539 578.926636,908.139221 576.780151,895.112000 
z"/>
<path fill="#000000" opacity="1.000000" stroke="none" 
	d="
M648.547729,889.516602 
	C651.448792,898.234192 654.087830,906.628723 657.029968,914.915710 
	C658.433716,918.869568 656.614441,920.154785 653.295898,921.351685 
	C649.661682,922.662476 648.145325,921.308105 647.084473,918.030884 
	C642.688354,904.449768 638.232483,890.887207 633.668030,877.361877 
	C632.646667,874.335266 632.794373,872.363098 636.237732,871.204346 
	C639.588928,870.076538 641.997498,870.201599 643.241333,874.080750 
	C644.862366,879.136353 646.678162,884.129456 648.547729,889.516602 
z"/>
<path fill="#000000" opacity="1.000000" stroke="none" 
	d="
M706.724365,896.469849 
	C707.192749,901.205139 703.416748,901.177612 700.862122,902.057251 
	C698.363098,902.917786 697.517334,900.565735 696.647339,898.781799 
	C690.465271,886.105774 684.361450,873.390869 678.083008,860.762878 
	C676.411499,857.401062 676.804688,855.419739 680.379150,853.672058 
	C683.952515,851.924866 685.673706,852.775696 687.307373,856.235596 
	C693.610901,869.586121 700.143494,882.828491 706.724365,896.469849 
z"/>
<path fill="#000000" opacity="1.000000" stroke="none" 
	d="
M557.167236,936.905762 
	C557.945618,942.166443 554.863708,942.883972 551.181274,943.096008 
	C546.939148,943.340210 546.955750,940.423645 546.724915,937.470032 
	C545.648987,923.702698 544.622925,909.929321 543.301025,896.184814 
	C542.959656,892.635864 543.560791,890.857361 547.454102,890.607971 
	C551.041626,890.378174 552.967896,891.065491 553.297974,895.231079 
	C554.387939,908.986694 555.839050,922.713745 557.167236,936.905762 
z"/>
<path fill="#000000" opacity="1.000000" stroke="none" 
	d="
M764.452209,834.526855 
	C759.545715,828.410095 754.962158,822.486511 750.123108,816.779663 
	C747.519226,813.708801 747.638062,811.430237 750.759583,808.833435 
	C754.131042,806.028687 756.006226,807.829468 758.079346,810.451721 
	C766.743835,821.411499 775.368774,832.406494 784.258118,843.182434 
	C787.217773,846.770264 785.437988,848.635437 782.838379,850.957458 
	C779.633484,853.820190 777.909912,851.835876 776.025879,849.367432 
	C772.292175,844.475342 768.460144,839.658264 764.452209,834.526855 
z"/>
<path fill="#000000" opacity="1.000000" stroke="none" 
	d="
M382.814697,785.347473 
	C385.707764,778.930481 390.413757,776.412170 397.036224,778.273010 
	C403.722778,780.151978 410.215790,782.726318 416.771301,785.058594 
	C417.819733,785.431641 419.102325,785.823181 419.214203,787.242432 
	C419.345459,788.907471 418.007355,789.490601 416.801514,790.013123 
	C410.410645,792.782410 404.012695,795.592773 397.073761,796.691467 
	C388.854370,797.992920 383.241791,793.627136 382.814697,785.347473 
z"/>
</svg>