<svg version="1.1" id="Layer_1" xmlns="http://www.w3.org/2000/svg" xmlns:xlink="http://www.w3.org/1999/xlink" x="0px" y="0px"
	 width="100%" viewBox="0 0 656 656" enable-background="new 0 0 656 656" xml:space="preserve">
<path fill="#000000" opacity="1.000000" stroke="none" 
	d="
M432.303955,95.570786 
	C465.999298,111.075539 496.140533,131.113312 520.756592,158.523331 
	C553.584717,195.077515 576.638000,237.106140 584.866150,285.827820 
	C597.714844,361.909576 581.227417,431.656403 534.026306,492.942627 
	C503.805206,532.181885 464.656952,560.198792 417.823883,577.118164 
	C386.300690,588.506531 353.827209,594.696899 320.347076,592.996399 
	C227.233978,588.267029 154.675690,547.188110 105.091431,467.835114 
	C86.305168,437.770172 75.173111,404.544220 70.386536,369.132904 
	C65.096519,329.997131 67.746727,291.688812 80.389915,254.335037 
	C94.148422,213.686066 117.349121,179.022690 147.994904,148.940002 
	C172.278732,125.102371 200.022781,106.771240 231.260178,93.927887 
	C263.567993,80.644409 297.332733,73.118820 332.468323,74.036003 
	C366.897217,74.934731 400.124390,82.091331 432.303955,95.570786 
M497.574707,519.059143 
	C498.482544,518.327209 499.442322,517.650635 500.290710,516.855225 
	C534.518982,484.767365 558.626587,446.447510 570.708923,400.979187 
	C580.643433,363.593384 584.708801,325.834106 576.767761,287.376312 
	C563.653748,223.866241 531.945129,172.012497 479.810944,133.286179 
	C421.986633,90.333122 356.824005,75.090614 286.120667,86.727211 
	C235.300079,95.091431 191.542297,119.112854 154.309738,154.586639 
	C125.017441,182.495255 103.547066,215.622101 89.806046,253.803436 
	C77.786133,287.202423 74.457603,321.634583 77.592003,356.655731 
	C80.712807,391.525116 90.620277,424.498718 107.666122,455.319153 
	C127.408745,491.015656 153.704559,520.719177 187.928284,542.833008 
	C247.373291,581.243713 311.956146,593.931946 381.416626,578.785278 
	C425.113953,569.256592 463.753021,549.524719 497.574707,519.059143 
z"/>
<path fill="#000000" opacity="1.000000" stroke="none" 
	d="
M566.212036,392.117126 
	C558.209778,423.186981 545.151672,451.433411 526.229431,476.886047 
	C494.896027,519.033142 454.526367,549.036011 404.620270,565.473145 
	C369.226074,577.130676 332.960693,580.687012 295.697021,575.768677 
	C255.294144,570.436035 218.495743,556.227112 185.702026,532.577942 
	C148.327499,505.625366 120.428955,470.641541 102.315163,427.990784 
	C87.222748,392.454132 81.991180,355.271362 83.959648,317.091248 
	C85.852692,280.374084 97.147636,246.304779 115.760704,214.583740 
	C144.565796,165.493134 185.085831,129.744644 237.578186,107.876221 
	C271.745209,93.642166 307.279846,87.673958 344.480072,90.501778 
	C403.984558,95.025070 455.441589,117.349113 498.326965,158.636719 
	C533.067566,192.082977 556.916504,232.100815 567.735901,279.501953 
	C571.305847,295.142670 573.851929,310.924194 573.848938,326.921936 
	C573.844849,348.764709 571.776306,370.465332 566.212036,392.117126 
M453.275757,132.272156 
	C446.502747,127.995018 439.351044,124.421814 432.210266,120.814590 
	C405.076050,107.107483 376.209076,99.422470 346.015747,97.430862 
	C310.852417,95.111412 276.683990,99.935852 243.724075,113.229736 
	C188.353470,135.562637 146.320999,172.719986 118.152428,225.246582 
	C97.991470,262.841187 88.145401,302.824707 90.829544,345.885864 
	C92.358086,370.408112 96.538795,394.124786 105.316238,417.005920 
	C127.457397,474.723694 166.013901,517.798157 221.230194,545.652710 
	C273.140839,571.839722 327.638123,577.608093 383.956696,563.998596 
	C432.428986,552.285095 473.265289,527.495239 506.461884,490.044312 
	C540.386475,451.772095 559.652771,407.074493 565.561523,356.577972 
	C568.985901,327.313019 566.135864,298.351318 557.976013,270.042084 
	C540.935791,210.924103 505.495117,165.640701 453.275757,132.272156 
z"/>
<path fill="#000000" opacity="1.000000" stroke="none" 
	d="
M410.124817,329.090454 
	C418.964966,322.855682 427.512909,316.828857 436.613342,310.412476 
	C433.831848,308.744232 431.751526,309.374054 429.583862,310.058472 
	C423.021118,312.130463 418.181671,316.820099 412.926086,320.879486 
	C407.655060,324.950714 402.427643,329.078766 397.131287,333.116547 
	C395.691223,334.214447 393.900391,335.640381 392.289307,333.753540 
	C390.566711,331.736115 392.607697,330.402710 393.892395,329.237915 
	C397.594025,325.881805 401.444672,322.689758 405.134460,319.321136 
	C406.408325,318.158142 408.233826,317.271393 408.260651,314.582733 
	C405.176819,315.064697 403.082031,316.814758 401.015930,318.679779 
	C397.185669,322.137299 393.436737,325.700439 389.428009,328.940063 
	C386.102020,331.627930 384.059326,331.103394 380.941223,327.048798 
	C388.352661,321.504669 394.240784,314.147552 402.265747,309.274414 
	C404.402710,307.976746 406.886871,306.414490 409.301453,307.300354 
	C414.851685,309.336639 419.343689,307.520203 424.292633,305.093750 
	C430.263580,302.166199 436.727325,301.009766 442.654358,305.858307 
	C443.684631,306.701111 444.818420,306.379791 445.979706,306.063721 
	C447.584198,305.626953 449.211945,305.110046 450.853729,305.006165 
	C456.415985,304.654297 461.736298,305.493774 464.798950,310.786346 
	C467.688263,315.779419 465.824738,320.656128 462.773132,324.797485 
	C456.816772,332.880981 448.806122,339.078827 442.071075,346.442841 
	C425.443298,364.623474 403.948547,375.188843 382.249207,385.529236 
	C379.247528,386.959595 376.317596,388.593140 373.520386,390.390869 
	C361.449829,398.148438 348.981506,400.614319 334.548401,396.984802 
	C316.014343,392.324066 297.096313,389.117340 278.217651,385.890320 
	C270.200043,384.519867 262.662079,386.017456 255.021423,387.426208 
	C252.055832,387.972961 250.719894,387.098572 249.785034,384.476227 
	C243.244736,366.129944 236.667572,347.796753 230.048126,329.478882 
	C228.785217,325.984009 229.645157,324.431152 233.332382,322.845825 
	C240.327438,319.838318 246.906189,315.849030 253.609955,312.179993 
	C275.166443,300.381989 296.578186,303.109680 317.939514,312.733795 
	C318.243164,312.870605 318.546112,313.012604 318.836029,313.175842 
	C331.869537,320.514313 345.416412,326.047638 360.692963,326.649902 
	C367.342987,326.912109 373.705414,329.367615 380.083099,331.231720 
	C385.513428,332.818878 389.803772,336.323181 393.216400,340.776855 
	C396.294922,344.794464 395.900665,349.208954 393.969910,353.556519 
	C391.368378,359.414398 386.376770,361.858307 380.354492,362.116852 
	C369.700958,362.574249 359.090607,362.245941 348.454285,360.890289 
	C335.818909,359.279816 323.315979,355.392731 310.310577,358.017670 
	C308.474762,358.388214 305.386719,359.099670 305.059265,355.953064 
	C304.733978,352.826965 306.921356,351.232117 310.010010,350.864532 
	C319.191681,349.771667 328.294281,350.584381 337.341187,352.094116 
	C350.010956,354.208405 362.815735,354.774109 375.592133,355.682587 
	C376.911469,355.776398 378.285034,355.750488 379.575226,355.490814 
	C383.506500,354.699585 387.090576,353.257355 387.740784,348.650970 
	C388.354828,344.300659 385.652344,341.862976 382.154114,340.124115 
	C372.921570,335.534973 363.004272,333.232483 352.838867,332.551880 
	C342.463776,331.857239 332.974854,328.878571 323.812012,324.161285 
	C313.452118,318.827728 303.040924,313.708893 291.180267,312.142395 
	C275.321106,310.047882 261.687042,315.539673 248.643219,323.487793 
	C236.175262,331.085022 236.611908,327.090240 242.139877,342.917664 
	C245.871750,353.602631 249.766312,364.234375 253.271286,374.993134 
	C254.574310,378.992859 256.311279,380.221985 260.534302,379.029968 
	C271.046906,376.062744 281.399689,378.994171 291.641113,380.933716 
	C308.482544,384.123169 325.188446,388.022675 342.010529,391.321899 
	C349.024719,392.697510 355.988312,391.944122 362.317780,388.161896 
	C377.500580,379.089142 393.776978,372.113251 409.275116,363.665955 
	C421.990570,356.735413 431.901123,346.185242 442.175018,336.226837 
	C447.542908,331.023804 453.304169,326.136047 457.597748,319.903870 
	C458.709473,318.290161 460.122223,316.722809 458.970581,314.460968 
	C457.730408,312.025330 455.527679,312.057281 453.356110,312.235321 
	C448.487518,312.634552 444.011414,313.953461 439.852905,316.827362 
	C427.668335,325.247986 416.237427,334.810577 402.928894,341.545471 
	C401.220795,342.409882 399.339996,345.110901 397.504852,342.129059 
	C395.857513,339.452332 397.471283,337.512054 399.882690,335.991241 
	C403.262146,333.859894 406.521759,331.538483 410.124817,329.090454 
z"/>
<path fill="#000000" opacity="1.000000" stroke="none" 
	d="
M147.101059,328.959595 
	C147.091843,331.706879 147.091843,334.003723 147.091843,337.488129 
	C150.065262,333.772247 152.104660,330.841034 154.535309,328.281372 
	C157.685593,324.963867 161.694656,322.859131 166.065216,321.539276 
	C170.414642,320.225830 172.669617,321.804413 172.127182,326.415771 
	C170.813522,337.583679 166.432739,346.915009 155.328979,351.672455 
	C148.768173,354.483521 148.730179,354.498932 150.152008,361.598724 
	C150.822235,364.945496 151.684677,368.253784 152.915726,371.604126 
	C155.225754,363.825256 158.441605,356.845367 165.033325,351.970062 
	C167.162109,350.395630 169.459763,348.176147 172.178177,349.340698 
	C174.939209,350.523468 174.842026,353.775269 175.061401,356.378418 
	C176.004425,367.569305 172.120407,376.730988 162.822937,383.163544 
	C159.513153,385.453400 158.938904,387.498352 161.029022,390.895020 
	C163.000717,394.099243 164.450378,397.624908 167.472610,401.267029 
	C167.369415,393.660461 169.302429,387.445892 173.252106,381.909210 
	C173.928345,380.961273 174.591980,379.988556 175.383209,379.140991 
	C180.099396,374.088837 182.871140,374.660706 185.114685,381.266876 
	C188.681702,391.770050 186.567551,401.405670 179.854340,409.932312 
	C177.225784,413.270905 177.384033,415.543823 180.267197,418.418854 
	C185.145447,423.283295 190.578827,427.351807 196.495132,430.825439 
	C197.787872,431.584442 199.082260,432.347473 200.322128,433.187927 
	C201.866608,434.234802 202.683304,435.650940 201.638000,437.441681 
	C200.584747,439.246033 199.050278,438.441406 197.679214,437.858185 
	C189.215637,434.258179 182.307709,428.422211 176.338684,421.686279 
	C173.108124,418.040680 170.324600,417.090271 165.673950,418.402771 
	C154.100754,421.668945 144.751358,417.265594 137.130127,408.662079 
	C133.161697,404.182129 134.118790,401.434784 139.859650,399.698669 
	C146.674042,397.637909 153.302017,398.681213 160.512756,401.468842 
	C158.300583,397.013519 156.385483,393.224487 154.533493,389.404907 
	C153.078918,386.404968 150.363266,387.204376 147.960709,387.180664 
	C135.404053,387.056641 125.341179,380.302307 120.725204,368.841461 
	C118.743095,363.920135 120.109215,361.996399 125.437874,362.188995 
	C133.137833,362.467316 140.080048,364.865845 146.774811,370.550262 
	C145.689468,365.355316 144.728607,361.206329 143.981308,357.019257 
	C143.491531,354.275024 141.515915,353.848816 139.316895,353.350708 
	C126.543541,350.457550 118.188110,341.251648 116.349152,328.150787 
	C115.726562,323.715393 117.183174,322.378052 121.672279,323.263702 
	C128.070602,324.526001 132.683151,327.284119 141.828964,335.594299 
	C141.828964,330.676117 141.800735,326.550385 141.838562,322.425232 
	C141.865250,319.514984 139.581024,318.504364 137.627853,317.338135 
	C126.642555,310.778717 121.938896,301.028076 122.614594,288.412567 
	C122.898346,283.114899 124.340515,282.081543 129.123108,284.350891 
	C136.561935,287.880585 141.307785,293.945557 144.848816,302.486328 
	C146.321167,297.412231 147.545731,293.368927 148.661011,289.295685 
	C149.654968,285.665497 146.827179,283.885529 144.806091,281.761658 
	C136.810898,273.359833 134.179153,263.522766 137.009888,252.291824 
	C138.402710,246.765823 141.069839,245.841049 145.550339,249.495728 
	C150.430145,253.476135 153.890778,258.507477 155.344788,264.753540 
	C155.636765,266.007751 155.606445,267.380280 156.911362,268.548401 
	C159.317032,265.372833 159.034744,261.571289 159.610321,258.081787 
	C161.499435,246.628555 167.575012,238.505966 178.307907,234.006165 
	C182.936050,232.065765 184.255768,233.025513 184.397766,238.110443 
	C184.741791,250.428970 179.795456,259.674957 168.640213,265.351837 
	C165.565201,266.916718 162.355881,268.407501 161.684921,273.228699 
	C168.257126,268.796967 175.014862,266.997864 182.379852,267.708801 
	C184.892578,267.951355 187.699005,267.958405 188.983353,270.422241 
	C190.379105,273.099854 188.194031,275.163849 186.672409,277.060852 
	C179.299149,286.253021 170.058456,291.265442 157.922684,289.532227 
	C156.159042,289.280334 154.547012,289.313538 153.873672,291.402130 
	C152.509933,295.632111 150.852982,299.787811 150.170624,305.265778 
	C155.836319,298.812958 162.226639,295.511810 169.696884,294.367523 
	C172.518433,293.935333 175.663254,293.682312 177.479019,296.307617 
	C179.233734,298.844666 177.518524,301.465424 176.267563,303.782776 
	C171.431839,312.740753 164.593384,319.404236 154.041962,320.416809 
	C148.494751,320.949158 146.338135,323.162567 147.101059,328.959595 
M170.052536,305.585449 
	C171.317001,303.546387 173.179062,301.735291 172.829117,299.007446 
	C163.107727,298.051758 151.145660,306.911194 150.411499,315.760071 
	C158.536819,315.830383 164.801285,312.476501 170.052536,305.585449 
M178.687576,238.617355 
	C168.297287,244.273682 163.011673,252.930191 164.394272,262.366211 
	C168.225433,260.969299 171.799866,259.119537 174.207306,255.925507 
	C178.028381,250.855942 181.240479,245.414017 178.687576,238.617355 
M165.170944,357.755280 
	C159.595703,364.170410 156.353806,371.275269 157.734436,380.410583 
	C167.963776,375.543182 173.446396,362.875427 169.344589,354.960663 
	C167.766022,355.150146 166.754166,356.285767 165.170944,357.755280 
M152.617172,414.126312 
	C157.465576,415.122925 162.261353,415.590881 167.107391,413.167145 
	C159.155823,403.909058 148.260223,400.706024 140.750214,405.266632 
	C143.328522,409.620514 147.138702,412.306671 152.617172,414.126312 
M151.556320,268.146667 
	C150.404861,261.968323 147.991043,256.581696 142.419464,252.861145 
	C138.096405,263.068695 142.296066,276.241577 150.859940,279.770081 
	C152.446060,276.260223 151.516342,272.585571 151.556320,268.146667 
M135.886703,347.679413 
	C137.598450,347.973328 139.222122,349.334076 141.064240,348.169739 
	C140.351135,338.670227 130.576508,328.876862 121.909401,328.919739 
	C121.467934,335.941895 126.092499,342.396393 135.886703,347.679413 
M167.355270,329.282227 
	C167.907593,326.552521 166.811096,326.023193 164.354355,326.852661 
	C156.702057,329.436462 149.561523,339.934143 150.040359,348.029297 
	C158.645920,346.901489 164.485855,340.738464 167.355270,329.282227 
M140.311447,303.333313 
	C137.704895,297.195526 134.483337,291.623840 127.644310,288.844849 
	C125.967903,299.895935 131.754166,310.090942 141.193268,313.156830 
	C142.674576,309.998718 141.213181,307.056183 140.311447,303.333313 
M168.030594,284.711090 
	C174.681992,282.800262 180.177200,279.436981 184.062027,272.562103 
	C175.768280,270.856903 169.406555,272.942535 163.769745,277.469025 
	C161.579880,279.227539 157.667252,280.861694 158.949097,284.104645 
	C160.083115,286.973663 163.720276,284.747864 166.238510,284.910736 
	C166.564056,284.931763 166.896530,284.845795 168.030594,284.711090 
M142.530930,372.932831 
	C137.658539,369.067596 132.443497,366.359741 125.784653,367.452423 
	C128.501587,377.678833 140.809738,384.926025 149.254425,381.645630 
	C148.082977,378.217255 145.459396,375.899139 142.530930,372.932831 
M172.418823,395.168213 
	C172.158600,399.588074 171.593918,404.050995 174.001251,408.210083 
	C181.747223,403.368927 184.858826,388.879425 179.671066,381.591736 
	C175.553497,384.922394 173.901474,389.537537 172.418823,395.168213 
z"/>
<path fill="#000000" opacity="1.000000" stroke="none" 
	d="
M475.026123,376.261414 
	C477.892548,372.631439 480.231689,374.445618 482.316956,376.569275 
	C488.429504,382.794312 491.501556,390.321808 491.338165,400.136169 
	C494.688995,395.640472 496.612244,391.496216 498.686432,387.425415 
	C499.989746,384.867584 498.382294,383.812073 496.657043,382.655701 
	C486.490082,375.840973 482.640869,366.145905 483.752411,354.216339 
	C483.965424,351.930176 483.711792,349.215027 486.237640,348.101898 
	C488.899261,346.928925 490.988068,348.799683 492.992462,350.295471 
	C499.697021,355.298737 503.606476,362.083374 505.733612,371.709808 
	C507.252686,365.803894 508.431641,361.355469 509.533661,356.888031 
	C510.255096,353.963470 508.523132,352.658478 506.077728,351.753265 
	C494.535034,347.480438 488.846344,338.691895 487.152924,326.920288 
	C486.223511,320.459442 488.853394,318.367950 494.816833,320.834900 
	C502.377350,323.962463 508.071289,329.068695 511.638855,336.807251 
	C511.638855,332.124176 511.725952,327.438873 511.607697,322.758759 
	C511.530975,319.721649 508.989960,319.634552 506.875610,319.458008 
	C495.271759,318.489197 487.511414,312.150909 482.468292,302.061615 
	C479.287018,295.697205 480.688110,293.516876 487.649902,293.656830 
	C495.702881,293.818726 502.320618,297.278107 508.525482,303.380096 
	C508.309509,298.061310 506.932709,293.869537 505.461792,289.725372 
	C504.350494,286.594330 501.767853,288.186371 499.878754,288.438751 
	C487.992065,290.026520 479.130402,285.061523 472.408417,275.748627 
	C468.048676,269.708466 469.150879,267.449341 476.583771,266.493256 
	C483.786469,265.566772 490.417175,267.494293 496.763550,271.283600 
	C496.067505,266.985229 495.924835,266.768219 491.690704,264.823639 
	C479.905304,259.411011 474.752411,249.884338 474.669647,237.279800 
	C474.635681,232.102753 476.292938,231.022049 481.161682,233.063446 
	C492.486206,237.811661 498.668060,246.470551 500.123871,258.571594 
	C500.494385,261.651459 500.621429,264.767609 502.898224,268.032013 
	C504.681793,260.942810 506.788971,254.668152 512.119141,250.154602 
	C514.279663,248.325073 516.460327,245.964890 519.548035,247.080521 
	C522.275085,248.065857 522.188110,251.116455 522.655396,253.493942 
	C524.393127,262.334869 523.137512,271.312073 516.874268,277.376068 
	C509.103973,284.899200 510.376709,291.971863 514.585083,300.501892 
	C517.096191,295.125824 519.897583,290.105865 524.674194,286.642426 
	C527.613647,284.511047 530.876404,281.183563 534.412537,283.170044 
	C537.887024,285.121857 536.125183,289.551636 535.826050,292.893158 
	C534.885864,303.395782 530.122559,311.554504 520.538086,316.517487 
	C518.065369,317.797913 516.942261,319.662964 517.099670,322.555511 
	C517.307190,326.369720 517.150696,330.203705 518.283142,334.904572 
	C519.582031,333.331421 520.754456,331.629181 522.203674,330.209473 
	C526.483032,326.017090 531.603943,323.355560 537.556641,322.481750 
	C542.339111,321.779663 543.737122,323.319641 542.464783,328.100616 
	C539.251038,340.177032 532.639771,349.219849 519.808472,352.214569 
	C516.549683,352.975128 514.970520,354.708252 514.447205,357.865936 
	C513.877441,361.303284 513.125427,364.710388 512.236145,369.232788 
	C517.332397,365.006561 522.481445,362.586151 528.224792,361.973450 
	C531.608276,361.612518 535.954651,360.266632 538.104065,363.422333 
	C540.415283,366.815430 536.831909,369.918427 535.046570,372.691406 
	C529.226196,381.731628 521.003357,386.829620 509.988800,386.293335 
	C506.233612,386.110474 504.153870,387.426727 502.775299,390.864441 
	C501.440979,394.191803 499.569611,397.303833 497.464081,401.432068 
	C504.880554,397.454163 511.811707,396.833710 518.960449,399.029053 
	C524.594116,400.759064 525.195068,402.903198 521.408630,407.482666 
	C513.101929,417.529053 502.700623,421.067963 490.210388,417.071960 
	C486.922546,416.020142 485.321167,417.252777 483.415375,419.376923 
	C477.259338,426.238068 470.401123,432.276978 462.103790,436.466583 
	C460.480316,437.286316 458.410217,439.172638 457.007843,436.373322 
	C455.699371,433.761444 457.663452,432.618469 459.737457,431.462738 
	C466.912750,427.464386 473.291382,422.423676 479.029449,416.519348 
	C481.234589,414.250336 481.876801,412.544891 479.574036,409.802795 
	C471.158478,399.781799 469.927887,388.594299 475.026123,376.261414 
M487.763641,282.862793 
	C492.144806,283.935120 496.534943,285.744751 501.030731,283.000366 
	C495.755188,273.488037 483.225861,268.094604 475.643768,272.102051 
	C477.926697,277.280609 482.309906,280.128723 487.763641,282.862793 
M495.280823,259.822296 
	C494.602844,248.248154 487.576935,238.653946 478.656738,237.935364 
	C479.416443,244.550980 480.908142,250.702225 485.606323,255.535385 
	C488.071594,258.071472 490.623047,260.928619 495.280823,259.822296 
M513.941895,274.347839 
	C518.452393,267.559998 519.973389,260.287476 517.929321,252.134995 
	C508.656647,257.233551 504.145813,271.899170 509.312988,279.856476 
	C510.759155,278.169128 512.146484,276.550385 513.941895,274.347839 
M488.144043,361.266724 
	C488.808075,369.489868 493.207855,375.127655 500.137756,379.381714 
	C503.577606,370.530731 497.075195,356.507172 488.687836,354.126190 
	C487.754547,356.150574 488.151703,358.308319 488.144043,361.266724 
M503.395630,332.142212 
	C500.166901,328.862091 496.851196,325.723969 491.980164,324.840820 
	C491.565552,335.824097 499.693939,346.350800 509.516815,347.206207 
	C509.096985,341.687836 506.994019,337.008362 503.395630,332.142212 
M488.130920,303.384064 
	C493.091492,310.630127 499.647980,314.768524 508.907501,314.585205 
	C506.190063,304.526642 496.147217,297.261597 486.936310,298.226227 
	C485.842102,299.980835 487.022247,301.347412 488.130920,303.384064 
M530.685791,371.250549 
	C531.447510,369.744080 533.445007,368.686188 532.493347,366.532440 
	C522.574402,365.664459 512.021545,372.472137 509.223419,381.706604 
	C518.299316,382.586761 525.003723,378.768250 530.685791,371.250549 
M507.281982,402.763184 
	C500.963104,404.050446 495.764252,407.149475 491.308105,412.005035 
	C499.646027,416.781738 514.207458,412.320343 517.734070,403.777588 
	C514.668091,402.115753 511.385864,402.309143 507.281982,402.763184 
M476.584839,390.590851 
	C476.645874,397.372162 479.101929,403.080750 484.037750,407.902252 
	C489.196594,398.693420 486.300659,384.524200 478.604126,380.806732 
	C476.672302,383.540344 477.065399,386.806671 476.584839,390.590851 
M535.303650,334.751404 
	C536.315430,332.573395 537.731323,330.499237 537.335571,327.882202 
	C528.139160,328.164673 518.682739,337.774567 518.043213,347.908447 
	C525.864929,346.331940 531.113953,341.879791 535.303650,334.751404 
M522.941345,309.421265 
	C529.306030,304.008179 531.882141,297.139282 531.455811,288.685516 
	C522.763733,291.385376 516.169250,303.281799 518.069153,311.980499 
	C519.926331,312.124146 521.038208,310.730835 522.941345,309.421265 
z"/>
<path fill="#000000" opacity="1.000000" stroke="none" 
	d="
M234.548050,354.544647 
	C238.954407,366.458954 243.275864,377.987366 247.483292,389.557220 
	C250.362167,397.473755 249.929672,398.495972 242.284073,401.498199 
	C236.865875,403.625793 231.330673,405.453674 225.865128,407.462769 
	C218.660919,410.110962 216.561890,409.174103 213.985596,401.820770 
	C208.539993,386.277710 203.190201,370.701019 197.720367,355.166565 
	C195.676437,349.361725 193.471008,343.611237 191.220184,337.882690 
	C189.553787,333.641602 190.701111,330.798523 194.996658,329.210754 
	C202.487305,326.441986 209.969849,323.651184 217.450546,320.855591 
	C221.813187,319.225220 223.436798,321.745972 224.628967,325.340576 
	C227.824173,334.974640 231.144135,344.567322 234.548050,354.544647 
M235.626999,387.587219 
	C233.017105,386.650879 230.712128,386.961823 229.123077,389.434265 
	C228.245911,390.799042 228.236588,392.289001 229.447845,393.528015 
	C231.076981,395.194427 232.961349,396.178101 235.139206,394.584473 
	C237.570480,392.805420 238.769318,390.680359 235.626999,387.587219 
z"/>
<path fill="#000000" opacity="1.000000" stroke="none" 
	d="
M342.453186,146.258163 
	C340.129791,145.649124 339.010468,144.503525 338.734589,142.370667 
	C337.797485,135.125290 336.656342,127.905510 335.787476,120.652672 
	C335.581299,118.931549 334.439911,116.364334 337.622711,115.882660 
	C340.553009,115.439194 342.530975,116.666183 342.886719,119.753494 
	C343.375519,123.995819 343.217804,128.332230 344.928497,132.988297 
	C347.484589,129.608612 348.526855,125.967789 350.107697,122.607437 
	C351.205292,120.274246 351.824890,117.322571 355.488647,117.770401 
	C359.230957,118.227837 358.896637,121.189789 359.328796,123.779099 
	C359.867065,127.004402 359.926697,130.359634 361.955566,134.230927 
	C363.764740,130.197311 365.439484,126.838242 366.783356,123.351639 
	C367.908813,120.431679 369.486084,118.718086 372.752197,120.021149 
	C376.281616,121.429298 374.427582,123.702423 373.496277,125.741356 
	C370.595154,132.092804 367.644623,138.421661 364.747772,144.775024 
	C363.774200,146.910156 362.530304,148.521271 359.841431,147.999451 
	C357.335419,147.513123 356.236481,145.796158 355.927704,143.448761 
	C355.480225,140.046356 355.198547,136.608353 353.208252,132.552200 
	C351.256866,136.462936 349.560699,139.628647 348.086609,142.894577 
	C347.023254,145.250519 345.707397,146.908768 342.453186,146.258163 
z"/>
<path fill="#000000" opacity="1.000000" stroke="none" 
	d="
M367.873718,294.003052 
	C362.277832,298.596710 356.257782,298.585571 351.996765,294.230774 
	C347.359955,289.491882 347.348999,283.485992 351.967407,278.160980 
	C361.915802,266.690491 361.913513,266.692841 373.077850,277.195953 
	C374.045227,278.106018 374.993958,279.064636 376.080322,279.813629 
	C378.508026,281.487366 378.308838,283.176300 376.412231,285.110535 
	C373.620667,287.957397 370.890839,290.864807 367.873718,294.003052 
z"/>
<path fill="#000000" opacity="1.000000" stroke="none" 
	d="
M392.209656,266.760040 
	C389.638184,271.594696 385.897675,274.941895 382.356750,278.461731 
	C380.909882,279.899994 379.463409,280.707703 377.652557,278.941101 
	C374.079498,275.455383 370.535461,271.933441 366.828644,268.593811 
	C364.585876,266.573242 364.611511,264.784760 366.559052,262.671692 
	C368.814362,260.224792 370.869263,257.584778 373.212952,255.229324 
	C378.008118,250.410019 382.812317,249.543655 387.564178,252.415649 
	C392.061127,255.133575 393.869019,260.414642 392.209656,266.760040 
z"/>
<path fill="#000000" opacity="1.000000" stroke="none" 
	d="
M398.766785,155.674728 
	C396.795410,158.650223 394.413300,157.867676 392.477814,156.583786 
	C390.139954,155.033005 391.765106,153.109344 392.633514,151.333237 
	C395.336884,145.804291 397.944916,140.228485 400.675262,134.713089 
	C401.610474,132.823990 402.415161,130.450089 405.262512,130.997253 
	C408.038483,131.530701 409.498657,133.482574 409.944916,136.193207 
	C410.724457,140.928650 411.456879,145.671844 413.302673,150.707748 
	C414.736908,147.689346 416.319061,144.730362 417.562531,141.635330 
	C418.734650,138.717926 420.455170,137.782257 423.352539,139.144424 
	C426.262024,140.512299 425.307068,142.466370 424.295319,144.534912 
	C421.371826,150.511993 418.510742,156.519577 415.599152,162.502533 
	C414.819580,164.104462 414.313263,166.164795 411.828796,165.701416 
	C409.445984,165.257004 408.144226,163.779083 407.675934,161.345718 
	C406.714111,156.348404 405.593658,151.381592 404.422211,145.853500 
	C401.484436,148.935242 400.694519,152.424561 398.766785,155.674728 
z"/>
<path fill="#000000" opacity="1.000000" stroke="none" 
	d="
M235.648300,171.662048 
	C229.695374,165.487747 225.832916,158.357330 222.208679,151.080948 
	C221.492172,149.642426 221.439713,148.039795 222.752670,146.949158 
	C226.860214,143.537125 231.221802,140.304291 236.722260,139.904907 
	C242.510147,139.484695 248.051514,144.982117 246.946701,150.774231 
	C245.991180,155.783661 247.711166,157.809219 251.954758,159.055862 
	C252.871445,159.325150 253.836929,159.772964 254.345047,161.214691 
	C252.709671,164.617096 250.045700,165.515320 246.445190,163.900299 
	C245.390182,163.427048 244.422897,162.758606 243.413956,162.182175 
	C242.067307,161.412811 240.650940,160.794601 239.255539,161.931335 
	C237.736313,163.168915 238.495193,164.627945 239.110626,166.001297 
	C240.593948,169.311401 240.866180,171.952560 235.648300,171.662048 
M239.811447,151.285873 
	C240.020615,148.979797 239.180023,147.065201 236.782410,146.959885 
	C234.121399,146.843033 232.051910,148.595840 230.765182,150.793335 
	C229.891693,152.285080 231.098312,153.727051 232.203293,154.713303 
	C234.380188,156.656296 236.232071,154.902832 238.025757,153.842880 
	C238.691574,153.449417 239.096237,152.614059 239.811447,151.285873 
z"/>
<path fill="#000000" opacity="1.000000" stroke="none" 
	d="
M202.027710,184.975494 
	C198.797546,181.139404 195.832321,177.545105 192.780807,174.025620 
	C190.683121,171.606201 190.961899,169.538864 193.493164,167.728928 
	C197.777649,164.665359 201.543777,160.755630 207.392532,160.492828 
	C214.038116,160.194229 219.390244,162.954254 222.159225,168.608490 
	C224.884903,174.174225 223.927475,179.589844 219.318146,184.635025 
	C218.869415,185.126175 218.390182,185.589600 217.921799,186.062607 
	C209.722534,194.342697 209.280441,194.319641 202.027710,184.975494 
M215.533447,178.836288 
	C217.681763,172.937302 214.774231,167.393570 209.061981,166.445770 
	C205.400421,165.838211 202.979111,167.925919 201.175583,170.534485 
	C199.423080,173.069199 202.323517,174.214523 203.487442,175.807785 
	C204.460419,177.139679 205.555603,178.383224 206.612381,179.652786 
	C210.460159,184.275330 210.919876,184.262482 215.533447,178.836288 
z"/>
<path fill="#000000" opacity="1.000000" stroke="none" 
	d="
M291.708954,121.670685 
	C296.465210,117.780495 301.437805,116.647972 306.898651,118.729774 
	C308.792969,119.451942 311.685303,120.021889 310.738983,122.894554 
	C309.899933,125.441681 307.801697,126.757172 304.769562,125.418770 
	C301.485474,123.969177 298.614502,124.875938 296.275818,127.556076 
	C293.926025,130.248947 293.760101,133.218033 295.166534,136.377060 
	C296.737671,139.906021 299.566437,141.176880 303.257324,140.756317 
	C306.951477,140.335388 306.953827,137.689407 306.869354,134.846558 
	C306.783966,131.972305 308.608978,130.615051 311.258606,130.482239 
	C313.958374,130.346909 313.745300,132.666473 314.076538,134.357849 
	C314.926941,138.700302 315.505524,142.881348 310.746582,145.739822 
	C305.437256,148.928894 300.070129,149.437744 294.708099,146.387955 
	C286.004120,141.437393 284.584442,130.179108 291.708954,121.670685 
z"/>
<path fill="#000000" opacity="1.000000" stroke="none" 
	d="
M431.303711,155.144531 
	C440.916779,149.600800 450.376953,152.218155 454.035675,161.222519 
	C454.708221,162.877701 456.383942,165.081558 453.328217,166.206726 
	C450.930939,167.089432 448.557220,167.799515 447.350159,164.185226 
	C445.881378,159.787247 442.184540,158.573029 438.085541,159.420273 
	C433.924164,160.280380 432.274597,163.570602 432.154205,167.609467 
	C432.060730,170.745407 433.498047,173.089096 436.367493,174.366150 
	C439.130371,175.595795 440.637268,173.810120 442.125427,171.824661 
	C443.439575,170.071457 445.178864,169.120331 447.266144,170.691666 
	C449.180664,172.133011 449.188293,173.813385 448.097870,175.944183 
	C443.932098,184.084610 433.739349,184.548264 428.075836,176.765488 
	C422.929779,169.693848 423.942780,162.312744 431.303711,155.144531 
z"/>
<path fill="#000000" opacity="1.000000" stroke="none" 
	d="
M280.703125,148.158691 
	C278.046387,154.368088 273.312653,156.604294 267.316803,156.193237 
	C261.395966,155.787308 258.217957,151.927475 256.560181,146.570435 
	C255.381302,142.761078 254.242630,138.939316 253.071533,135.127533 
	C252.316788,132.670929 252.887100,130.876144 255.514221,130.053543 
	C258.120300,129.237549 259.187775,130.787735 259.820404,132.900970 
	C260.962952,136.717438 261.858917,140.621033 263.229492,144.351715 
	C264.343201,147.383240 266.150177,150.478714 270.111267,149.061050 
	C273.710693,147.772812 274.217987,144.663208 273.180817,141.188721 
	C271.898254,136.892334 270.767395,132.550354 269.461578,128.261383 
	C268.855194,126.269806 269.363647,125.134689 271.372437,124.469566 
	C273.250214,123.847809 275.336334,123.311569 275.986481,125.644798 
	C278.014008,132.920929 281.942352,139.808395 280.703125,148.158691 
z"/>
<path fill="#000000" opacity="1.000000" stroke="none" 
	d="
M307.265137,271.786194 
	C309.969757,268.871338 312.754364,266.025421 315.348999,263.015747 
	C316.907440,261.208038 318.324890,260.505737 320.318573,262.315674 
	C322.894104,264.653870 325.744232,266.726074 328.096680,269.264435 
	C331.295227,272.715851 331.102173,277.459686 328.047272,281.021515 
	C325.101776,284.455719 320.635376,285.494476 316.884949,282.779144 
	C313.093994,280.034454 308.583344,277.804718 306.915497,272.457520 
	C307.034424,271.990723 307.265137,271.786194 307.265137,271.786194 
z"/>
<path fill="#000000" opacity="1.000000" stroke="none" 
	d="
M405.926880,525.276855 
	C406.963257,529.025879 407.930939,532.373047 408.797607,535.746216 
	C409.218903,537.386230 410.695099,539.230225 408.431152,540.620911 
	C406.533173,541.786865 404.589355,541.503113 402.815247,540.259705 
	C400.277954,538.481384 397.784698,536.640198 395.172424,534.753479 
	C393.641113,537.205200 395.369080,538.899048 395.655304,540.725769 
	C395.902130,542.301208 396.232208,543.708252 394.373688,544.479980 
	C392.455994,545.276184 390.953583,544.596436 390.358887,542.777527 
	C388.555389,537.261169 386.924500,531.687622 385.277679,526.121216 
	C384.918304,524.906494 385.201752,523.781189 386.475281,523.186523 
	C387.809723,522.563416 389.030487,522.949280 390.248535,523.645447 
	C393.374695,525.432129 395.684631,528.474915 399.291473,529.802368 
	C400.186798,527.151672 398.677521,525.013306 398.668121,522.724243 
	C398.660431,520.845459 398.391815,518.976868 400.809967,518.331604 
	C403.586975,517.590637 404.240326,519.584045 404.888062,521.526611 
	C405.255035,522.627197 405.510742,523.764832 405.926880,525.276855 
z"/>
<path fill="#000000" opacity="1.000000" stroke="none" 
	d="
M269.720764,521.210632 
	C275.634735,525.132507 275.589386,531.007202 269.650482,534.038574 
	C265.869110,535.968628 268.011780,538.914612 267.600586,541.743225 
	C260.667145,544.377380 263.356812,535.518616 259.432983,534.764160 
	C259.121246,534.870789 258.747925,534.899963 258.519989,535.097107 
	C256.832886,536.555908 256.282440,540.297913 252.861618,538.320984 
	C249.286057,536.254639 252.112610,533.668701 252.749283,531.379944 
	C253.639359,528.180359 255.015808,525.104736 255.757736,521.878052 
	C256.668823,517.915588 258.578918,516.442932 262.479828,518.140808 
	C264.766479,519.136108 267.082886,520.063110 269.720764,521.210632 
M261.294525,528.966858 
	C263.187897,530.137939 265.079285,530.351929 266.354492,528.245361 
	C267.058197,527.082947 266.238190,525.913269 265.031769,525.530457 
	C262.565399,524.747925 261.300446,525.911560 261.294525,528.966858 
z"/>
<path fill="#000000" opacity="1.000000" stroke="none" 
	d="
M214.095551,517.040039 
	C212.574509,518.921265 211.067322,519.059021 209.612885,517.646423 
	C208.231735,516.304993 208.998169,514.905334 209.842239,513.601807 
	C212.549576,509.420746 215.260269,505.241821 217.976501,501.066467 
	C218.789963,499.816010 219.526215,498.331757 221.412949,498.841400 
	C223.099167,499.296906 223.619278,500.820953 223.922043,502.277893 
	C224.552856,505.313568 225.016617,508.383942 225.585251,511.648071 
	C227.770737,510.490784 228.220291,508.398773 229.348984,506.868225 
	C230.961105,504.682098 232.660263,505.124115 234.532104,506.263458 
	C236.748535,507.612579 236.071045,509.144470 234.916931,510.856018 
	C232.505539,514.432068 230.233765,518.102051 227.833740,521.685974 
	C226.883743,523.104614 226.406860,525.471130 223.963593,524.762268 
	C221.724670,524.112732 220.388489,522.357300 220.159393,519.990051 
	C219.878403,517.086365 219.730286,514.169861 219.484955,510.695618 
	C216.685303,512.461426 215.877731,514.941528 214.095551,517.040039 
z"/>
<path fill="#000000" opacity="1.000000" stroke="none" 
	d="
M332.182556,537.736206 
	C332.187042,534.984985 330.426239,532.115356 333.660126,530.709900 
	C337.264435,529.143372 338.600586,532.216431 340.365845,534.356201 
	C341.989960,536.324829 343.022430,538.915710 345.734528,539.973145 
	C347.376984,537.857178 346.476776,535.593994 346.804443,533.533630 
	C347.055054,531.957947 347.396118,530.421753 349.325500,530.405518 
	C351.117432,530.390381 351.286499,531.903870 351.400940,533.259155 
	C351.778961,537.735291 352.111389,542.215332 352.498932,546.690674 
	C352.659882,548.549316 352.984894,550.525452 350.828613,551.431824 
	C348.607178,552.365540 346.642853,551.718140 344.925751,550.013062 
	C342.962891,548.063965 342.023407,545.152039 339.243713,543.835144 
	C337.594727,545.602478 338.460541,547.719543 338.161865,549.600647 
	C337.901886,551.238098 337.355896,552.613586 335.497101,552.624695 
	C333.650513,552.635742 332.921265,551.331970 332.829712,549.644470 
	C332.622406,545.823425 332.443848,542.000916 332.182556,537.736206 
z"/>
<path fill="#000000" opacity="1.000000" stroke="none" 
	d="
M306.922516,272.096771 
	C301.312744,270.534302 297.377167,266.826904 294.637329,262.024231 
	C292.602234,258.456970 293.676483,254.808884 296.526642,252.043793 
	C299.457489,249.200348 303.079041,249.025116 306.660309,250.799362 
	C309.985016,252.446503 312.276978,255.388809 314.871979,257.927643 
	C316.515381,259.535492 315.491913,260.899963 314.305756,262.204895 
	C311.754364,265.011749 308.903961,267.587524 307.298950,271.472229 
	C307.265137,271.786194 307.034424,271.990723 306.922516,272.096771 
M303.438141,257.819916 
	C303.913055,258.666992 304.252899,259.639587 304.895386,260.330902 
	C305.793152,261.296875 307.084991,262.428406 308.245728,260.967651 
	C309.562531,259.310516 308.173309,258.227112 306.797211,257.475952 
	C305.817719,256.941284 304.756165,256.188599 303.438141,257.819916 
z"/>
<path fill="#000000" opacity="1.000000" stroke="none" 
	d="
M306.699341,549.737549 
	C308.325256,542.742004 312.357086,537.166626 315.609131,531.254761 
	C317.387238,528.022400 322.145203,528.938660 323.350952,532.561584 
	C325.077972,537.751099 326.471130,543.054138 327.912354,548.334473 
	C328.295990,549.739990 328.725250,551.474915 326.712952,552.077820 
	C325.054016,552.574951 323.586487,552.303284 322.354492,550.679565 
	C319.060394,546.337952 315.398621,545.989258 311.446869,549.685730 
	C309.843414,551.185547 308.536072,551.827209 306.699341,549.737549 
z"/>
<path fill="#000000" opacity="1.000000" stroke="none" 
	d="
M149.129547,462.799286 
	C154.772217,457.884674 161.942871,456.393219 168.218201,453.070190 
	C170.717285,451.746887 173.206497,454.829651 172.155701,458.043091 
	C170.192673,464.046234 167.848221,469.925323 165.630646,475.844086 
	C165.127518,477.187012 164.326218,478.293793 162.645035,477.587769 
	C160.963547,476.881653 160.120529,475.653839 160.168777,473.694183 
	C160.321091,467.507141 159.540207,466.735077 153.125122,466.373688 
	C150.998917,466.253906 149.844223,464.996765 149.129547,462.799286 
z"/>
<path fill="#000000" opacity="1.000000" stroke="none" 
	d="
M189.226349,472.733734 
	C192.160797,474.421875 194.400604,476.370728 196.102875,478.897644 
	C198.665070,482.701263 197.531601,486.184296 195.056671,489.460938 
	C192.756149,492.506714 189.733276,492.487976 186.549454,491.125122 
	C184.107666,490.079834 181.869095,488.793182 179.139862,490.805542 
	C177.610718,491.933014 175.971588,490.860168 174.797806,489.489655 
	C173.809006,488.335144 173.630112,487.090515 174.639847,485.884064 
	C178.154480,481.684570 181.676437,477.490479 185.256088,473.346619 
	C186.207626,472.245117 187.516342,472.022461 189.226349,472.733734 
M187.803406,480.428223 
	C186.321167,481.242310 184.844711,482.157440 185.816284,484.159668 
	C186.339249,485.237396 187.484451,485.663696 188.715866,485.545380 
	C189.975967,485.424255 190.938675,484.706024 191.163940,483.515442 
	C191.547516,481.488281 190.337799,480.562805 187.803406,480.428223 
z"/>
<path fill="#000000" opacity="1.000000" stroke="none" 
	d="
M496.165833,451.116638 
	C497.833984,449.465973 499.235657,448.039490 500.697601,446.677673 
	C501.952179,445.509094 503.308838,444.355072 505.010986,445.937622 
	C506.758820,447.562653 506.083588,449.144470 504.887909,450.795746 
	C503.983673,452.044586 502.105652,452.818970 502.684875,455.135895 
	C504.828033,455.299866 505.646149,453.316040 507.054779,452.414398 
	C507.976044,451.824707 508.886444,451.447052 509.789856,452.173462 
	C510.820435,453.002136 510.945343,454.071808 510.308960,455.296722 
	C509.354187,457.134491 507.248260,458.443817 507.598114,460.977203 
	C509.920410,462.362640 510.816315,460.205170 512.194214,459.263428 
	C513.897278,458.099396 515.143799,454.355438 517.658264,456.941345 
	C520.053833,459.405090 516.338745,460.731964 515.269104,462.528625 
	C514.848511,463.235077 514.199524,463.801727 513.690918,464.460083 
	C508.719574,470.894653 508.442688,470.912659 502.786255,465.411194 
	C500.637695,463.321533 498.525665,461.181396 496.243622,459.244995 
	C493.194946,456.658020 492.797760,454.126007 496.165833,451.116638 
z"/>
<path fill="#000000" opacity="1.000000" stroke="none" 
	d="
M248.240204,512.755676 
	C250.543655,519.919678 248.093338,526.693970 247.660950,533.544861 
	C247.578186,534.856384 246.300095,535.422913 244.981277,535.057434 
	C243.461380,534.636230 242.429993,533.765503 242.067032,532.034973 
	C241.064209,527.253784 238.430252,525.907349 233.754639,527.917175 
	C232.009796,528.667175 230.405640,528.987366 229.261932,527.461121 
	C227.812363,525.526794 229.761978,524.425415 230.907089,523.396118 
	C234.743591,519.947754 238.764267,516.704285 242.118378,512.743713 
	C243.942993,510.589264 245.952164,511.352783 248.240204,512.755676 
z"/>
<path fill="#000000" opacity="1.000000" stroke="none" 
	d="
M450.189758,519.413025 
	C447.307343,512.816833 447.391205,505.912384 445.975830,499.305298 
	C445.360321,496.432251 448.862213,494.606934 451.487946,496.309509 
	C456.484070,499.549011 461.318634,503.037659 466.220795,506.422119 
	C467.272705,507.148346 468.048737,508.064148 467.142792,509.301300 
	C465.947968,510.932892 463.983551,510.848511 462.631134,510.080811 
	C459.990662,508.582062 457.983154,509.057831 455.967072,511.019714 
	C454.963776,511.996094 454.127350,513.017944 454.556946,514.486511 
	C455.630127,518.155151 453.460571,519.196777 450.189758,519.413025 
z"/>
<path fill="#000000" opacity="1.000000" stroke="none" 
	d="
M205.343170,507.771240 
	C200.832901,510.527679 197.002274,509.548981 193.829865,506.258972 
	C190.532120,502.838898 191.811401,499.234589 194.228271,495.893127 
	C196.365601,492.938232 198.637543,490.080963 200.796402,487.141235 
	C202.022842,485.471130 203.371201,485.233246 205.021301,486.477020 
	C206.840790,487.848541 206.405701,489.130646 205.083893,490.630096 
	C203.005173,492.988281 201.024994,495.438873 199.101364,497.926331 
	C197.797073,499.612915 197.915283,501.403778 199.528763,502.815094 
	C201.339798,504.399261 202.962036,503.512665 204.239182,501.969299 
	C206.035126,499.798920 207.693298,497.515076 209.434341,495.298523 
	C210.757263,493.614258 212.205109,492.211548 214.348190,494.163666 
	C216.283859,495.926849 215.143372,497.387604 213.802032,498.807800 
	C211.069717,501.700806 208.347107,504.602966 205.343170,507.771240 
z"/>
<path fill="#000000" opacity="1.000000" stroke="none" 
	d="
M289.180237,548.104675 
	C288.247345,543.273865 289.776978,541.743225 293.615204,543.383362 
	C295.972900,544.390808 298.427399,545.519775 298.786377,541.830322 
	C299.075348,538.860229 303.167114,534.710938 296.875305,532.978943 
	C294.775909,532.401062 291.625977,532.264648 292.519135,528.873169 
	C293.344940,525.737610 296.264954,526.761169 298.448090,526.957581 
	C307.493683,527.771057 307.487671,527.816956 306.322815,536.793884 
	C306.258911,537.286194 306.287140,537.789673 306.240479,538.285034 
	C305.229431,549.019836 299.595642,552.396667 289.180237,548.104675 
z"/>
<path fill="#000000" opacity="1.000000" stroke="none" 
	d="
M486.009766,472.799500 
	C488.240845,473.295990 489.810638,475.009644 492.310425,474.116760 
	C492.081482,470.773163 489.666931,468.561920 488.143250,465.953217 
	C487.154419,464.260315 486.253113,462.622589 488.540192,461.328400 
	C490.564819,460.182739 491.588989,461.560425 492.407227,463.135162 
	C495.004761,468.134338 497.598663,473.135529 500.157654,478.154480 
	C500.867584,479.546783 501.174591,481.008728 499.931732,482.305359 
	C498.708893,483.581085 497.196716,483.432007 495.781799,482.819885 
	C490.917419,480.715515 486.042084,478.624786 481.272522,476.318756 
	C479.475189,475.449738 476.562714,474.468323 477.985046,471.776672 
	C479.157715,469.557495 481.519073,471.068115 483.341827,471.744080 
	C484.118225,472.032013 484.877502,472.366119 486.009766,472.799500 
z"/>
<path fill="#000000" opacity="1.000000" stroke="none" 
	d="
M382.439880,152.707886 
	C377.731720,153.086990 375.863251,151.477783 377.497742,146.913055 
	C379.840607,140.369949 382.060760,133.780914 384.208252,127.170830 
	C385.005615,124.716362 386.526154,124.245689 388.784912,124.758553 
	C390.994904,125.260338 392.062195,126.619125 391.285034,128.722733 
	C388.367310,136.620407 386.766541,144.989960 382.439880,152.707886 
z"/>
<path fill="#000000" opacity="1.000000" stroke="none" 
	d="
M287.311523,539.172180 
	C285.583557,545.379211 282.072937,547.574890 276.545563,546.140015 
	C274.781982,545.682251 272.678680,545.141235 272.395203,543.055725 
	C272.091461,540.821228 272.913788,538.807251 275.301270,538.215576 
	C277.611023,538.469604 277.305542,542.748291 279.879944,541.304565 
	C282.963501,539.575317 282.304993,535.788513 283.106506,532.844788 
	C283.816498,530.237183 281.744904,529.888672 280.020996,529.252686 
	C278.936737,528.852661 277.782257,528.469360 276.881378,527.785767 
	C275.439209,526.691406 275.213593,524.666809 276.647125,523.987671 
	C280.582367,522.123413 284.373230,524.496521 288.110352,525.406006 
	C290.667603,526.028259 289.856842,528.612915 289.420868,530.543152 
	C288.797913,533.301025 288.067261,536.034546 287.311523,539.172180 
z"/>
<path fill="#000000" opacity="1.000000" stroke="none" 
	d="
M475.329620,499.587341 
	C476.762848,501.417358 476.967499,502.885040 475.040131,504.022583 
	C473.274384,505.064850 471.513092,505.193878 470.200317,503.331879 
	C468.288818,500.620697 466.460449,497.849426 464.648224,495.070160 
	C463.086517,492.675049 461.213470,491.542145 458.387085,493.071960 
	C457.036133,493.803192 455.482025,494.381714 454.413300,492.716370 
	C453.252228,490.907013 454.800354,489.980377 455.990082,489.135590 
	C459.373138,486.733307 462.749329,484.311371 466.247223,482.084015 
	C468.889191,480.401672 471.358429,482.088287 470.288269,484.376190 
	C467.073853,491.248260 472.669525,494.648010 475.329620,499.587341 
z"/>
<path fill="#000000" opacity="1.000000" stroke="none" 
	d="
M421.913544,517.691650 
	C420.432648,517.404358 419.189606,517.562195 418.146484,517.177673 
	C415.429474,516.176147 414.738831,514.023071 417.150574,512.417664 
	C420.287231,510.329620 423.854767,508.784729 427.404968,507.454987 
	C430.248871,506.389740 431.655029,508.946625 430.369049,510.623535 
	C425.988190,516.336182 430.842194,520.118347 432.569458,524.571411 
	C433.351685,526.588013 436.665344,528.636719 432.774841,530.621033 
	C429.237274,532.425354 428.218262,529.617615 427.078308,527.103088 
	C425.645630,523.942932 424.463623,520.639832 421.913544,517.691650 
z"/>
<path fill="#000000" opacity="1.000000" stroke="none" 
	d="
M410.840820,527.066467 
	C409.839844,524.021484 408.924530,521.362000 408.108765,518.672363 
	C407.613464,517.039246 408.065155,515.677002 409.779877,515.067261 
	C411.497498,514.456543 412.724030,515.240173 413.364288,516.808105 
	C415.552094,522.165833 417.688751,527.544678 419.809326,532.929565 
	C420.642487,535.045227 419.820160,536.466309 417.750336,537.198059 
	C415.551270,537.975586 414.300598,536.973877 413.602631,534.925964 
	C412.749176,532.421997 411.848572,529.934143 410.840820,527.066467 
z"/>
<path fill="#000000" opacity="1.000000" stroke="none" 
	d="
M362.058838,541.128174 
	C362.409637,543.697876 362.731018,545.825684 362.977997,547.962097 
	C363.175598,549.671082 362.574249,550.893982 360.702179,551.147949 
	C358.917175,551.390015 357.145508,551.197083 356.857056,549.066528 
	C356.080872,543.332886 355.454926,537.577148 354.882050,531.818909 
	C354.704895,530.038208 355.858551,529.067444 357.571686,528.897583 
	C359.675049,528.689026 360.620972,530.082642 360.908539,531.830078 
	C361.391296,534.763672 361.646423,537.734680 362.058838,541.128174 
z"/>
<path fill="#000000" opacity="1.000000" stroke="none" 
	d="
M445.562378,519.334717 
	C446.617523,521.443481 447.104401,523.190857 444.724030,524.219299 
	C442.336761,525.250732 440.959412,523.940186 439.941925,521.966187 
	C437.732117,517.679138 435.540405,513.382629 433.308441,509.107147 
	C432.437988,507.439697 431.321747,505.812958 433.804871,504.520111 
	C436.031799,503.360748 437.633728,504.026459 438.743835,506.163666 
	C440.968292,510.446075 443.182892,514.733643 445.562378,519.334717 
z"/>
<path fill="#000000" opacity="1.000000" stroke="none" 
	d="
M382.937408,532.194336 
	C383.894348,535.983459 384.651611,539.402405 385.609802,542.763977 
	C386.256927,545.034119 386.161804,546.762756 383.432098,547.270081 
	C380.708618,547.776367 380.075867,546.067078 379.636444,543.844788 
	C378.733398,539.277649 377.667419,534.741150 376.588226,530.211121 
	C376.112579,528.214478 375.314697,526.055054 378.009613,525.204468 
	C381.134247,524.218140 381.486267,526.852417 382.128723,528.886047 
	C382.428711,529.835632 382.595917,530.827148 382.937408,532.194336 
z"/>
<path fill="#000000" opacity="1.000000" stroke="none" 
	d="
M475.551819,485.374725 
	C474.225128,482.815826 469.875549,480.881592 472.887360,478.189667 
	C476.214661,475.215759 477.767548,479.768402 479.708740,481.535889 
	C482.140808,483.750336 484.309174,486.264954 486.495361,488.734985 
	C487.877441,490.296448 488.902924,492.111633 486.962860,493.942261 
	C484.893280,495.895142 483.022675,495.051941 481.487793,493.126556 
	C479.535034,490.676971 477.670013,488.157471 475.551819,485.374725 
z"/>
</svg>