<svg version="1.1" id="Layer_1" xmlns="http://www.w3.org/2000/svg" xmlns:xlink="http://www.w3.org/1999/xlink" x="0px" y="0px"
	 width="100%" viewBox="0 0 848 848" enable-background="new 0 0 848 848" xml:space="preserve">
<path fill="#000000" opacity="1.000000" stroke="none" 
	d="
M103.909744,410.113708 
	C108.963989,323.111664 141.622726,248.882431 203.491699,188.015900 
	C246.374908,145.827530 297.376801,117.815155 355.830139,103.414062 
	C382.152618,96.929031 408.874268,93.733978 435.950745,94.053665 
	C515.878906,94.997353 586.872620,120.626389 647.995605,172.315369 
	C705.153992,220.651688 741.515991,281.812683 757.745728,354.805939 
	C766.059143,392.194946 768.010376,430.081421 762.289062,467.996185 
	C745.172058,581.428955 685.596802,665.221252 584.622498,719.355286 
	C549.633362,738.113525 511.992157,749.139954 472.484467,753.328979 
	C384.408905,762.667542 304.412384,741.375488 233.867004,687.779846 
	C172.122253,640.870117 132.306335,578.906372 113.116508,503.776825 
	C105.308777,473.208954 102.785156,442.072083 103.909744,410.113708 
M651.239380,656.737061 
	C677.362671,632.458801 698.731750,604.492737 715.317017,572.969482 
	C748.823425,509.284576 759.327820,441.629456 747.276550,370.944763 
	C734.537354,296.225525 698.764282,233.726822 641.151855,184.601898 
	C575.826721,128.900543 499.759979,103.877274 413.859528,108.989838 
	C379.265198,111.048790 345.996490,118.586945 314.081818,131.932419 
	C241.361877,162.341156 187.047699,212.891434 151.371887,283.017334 
	C122.803986,339.171692 113.080460,398.988983 120.015396,461.512451 
	C126.333885,518.478210 146.696365,570.101868 181.497910,615.530518 
	C234.840622,685.162170 305.116821,726.749939 392.189362,739.023621 
	C430.467041,744.419189 468.604950,742.658081 506.315735,733.934692 
	C561.262451,721.224243 609.282227,695.401123 651.239380,656.737061 
z"/>
<path fill="#000000" opacity="1.000000" stroke="none" 
	d="
M446.899353,557.761719 
	C443.586639,565.316528 446.332001,571.951233 449.017120,578.349670 
	C452.694275,587.111938 457.364136,595.400757 462.746582,603.263184 
	C466.193390,608.298157 470.557922,612.832031 470.650452,619.589783 
	C470.677368,621.554993 472.477448,623.075562 473.912781,624.491577 
	C476.499603,627.043579 475.696655,628.811646 472.638123,630.080627 
	C463.362183,633.929260 453.595612,636.192810 443.780579,637.777588 
	C433.604126,639.420593 423.188446,639.649475 412.951080,637.964294 
	C397.406311,635.405579 383.288269,629.544250 371.127808,619.183533 
	C366.774323,615.474304 363.253693,610.497986 357.193726,609.016846 
	C355.391479,608.576416 353.581024,607.934265 351.798004,608.433899 
	C338.317413,612.211365 328.192993,606.107056 319.289703,597.127319 
	C314.477478,592.273804 309.735260,587.429993 304.380615,583.134155 
	C299.029236,578.841003 293.199860,576.869629 286.400482,576.984741 
	C279.957031,577.093811 278.205200,574.901550 279.546234,568.741089 
	C284.416962,546.366028 295.004181,526.698120 308.277130,508.303558 
	C319.603577,492.606628 333.422516,478.997131 345.403229,463.861389 
	C350.552795,457.355774 355.413635,450.538147 355.957855,441.665680 
	C356.452484,433.602264 354.207855,426.444733 349.197205,420.276001 
	C341.879517,411.267059 339.395782,401.708923 343.995911,390.553894 
	C345.687225,386.452484 346.140320,381.846710 347.235596,377.490479 
	C347.735931,375.500458 348.514191,373.361755 350.988037,373.481781 
	C354.056335,373.630676 353.248718,376.274902 353.286224,378.103668 
	C353.456543,386.405151 356.162262,393.322662 363.215881,398.316132 
	C365.705627,400.078796 367.308350,400.358856 369.524384,397.956390 
	C375.672638,391.291016 383.054077,386.662079 392.225830,385.374542 
	C393.700287,385.167542 395.205902,384.884430 396.673676,384.983673 
	C401.227264,385.291595 402.241119,386.758301 400.955383,391.113495 
	C397.701965,402.133850 394.879639,413.211670 393.205078,424.636108 
	C390.231018,444.926056 390.509796,465.085541 393.662262,485.302032 
	C399.397583,522.081665 413.664551,555.233643 435.562073,585.233704 
	C440.204834,591.594421 445.842865,597.035522 451.027039,602.895142 
	C451.846649,603.821533 452.793915,604.902039 454.409058,604.707703 
	C454.222321,599.192444 450.210052,595.820190 447.283875,591.962524 
	C427.748871,566.208801 412.854218,538.215332 404.595947,506.764099 
	C396.169006,474.670227 393.500031,442.315582 401.331543,409.915192 
	C410.709045,371.119019 432.610413,341.296692 467.977386,321.773743 
	C482.155548,313.947174 497.224182,308.045258 511.572693,300.602234 
	C528.560852,291.789978 543.452332,280.127045 557.682800,267.537292 
	C560.420105,265.115601 562.373596,261.864349 562.817627,258.050079 
	C563.431458,252.777603 560.435608,250.043854 555.321533,251.301620 
	C553.579590,251.730042 551.826782,252.507996 550.347595,253.519302 
	C548.086060,255.065475 546.728271,254.456436 545.536377,252.274841 
	C543.830383,249.152100 541.458130,246.399643 537.635315,247.991989 
	C533.445862,249.737076 532.988892,253.523346 533.822266,257.719360 
	C534.284668,260.047638 535.948242,262.335968 534.236084,265.811615 
	C529.515564,263.043152 527.320923,258.817108 526.109436,254.088745 
	C524.845215,249.154465 526.282288,244.821732 530.450073,241.700073 
	C534.438232,238.712952 538.493347,239.245605 542.565186,241.731232 
	C549.726318,246.102676 549.747131,246.068573 557.299622,243.467880 
	C565.050659,240.798813 571.673584,245.145065 572.099976,253.282974 
	C572.677490,264.306183 565.701660,271.457275 557.502930,276.044891 
	C549.826538,280.340240 548.074951,285.298737 548.114807,293.435120 
	C548.225098,315.915009 538.739624,334.270782 521.713013,348.797119 
	C514.596436,354.868683 506.995117,360.230164 498.638428,364.500214 
	C497.220062,365.225006 495.552002,365.773132 494.284790,367.946564 
	C516.468201,361.472351 534.275513,349.334991 548.816467,332.151642 
	C552.000854,334.483826 551.142700,337.133362 550.978149,339.446625 
	C548.843323,369.455078 533.845947,391.273041 508.317841,406.428741 
	C500.872894,410.848755 493.038452,414.480957 484.378387,418.514282 
	C488.302948,419.318512 490.946869,417.917084 493.672791,417.198151 
	C510.190491,412.841797 525.017578,405.201782 538.122986,394.234161 
	C539.127319,393.393707 540.117798,392.088684 541.569092,392.852722 
	C543.488525,393.863159 542.810852,395.655579 542.479004,397.292725 
	C538.134216,418.727753 526.140747,434.878845 508.138275,446.816284 
	C500.707031,451.743927 493.137482,456.463013 485.272797,461.506592 
	C498.711517,458.076294 510.477692,451.876190 521.673645,444.475250 
	C523.868347,448.015747 522.230103,450.246918 521.325012,452.418671 
	C514.565186,468.639496 502.080322,479.714630 487.891998,489.183960 
	C482.435120,492.825867 476.816895,496.226044 470.653656,500.127899 
	C480.962769,498.532898 489.319672,493.859894 498.296936,489.340576 
	C498.989380,494.627930 496.645447,497.469574 494.437897,500.293823 
	C487.670715,508.951599 478.173309,514.501953 470.001434,521.561584 
	C458.780212,531.255432 449.950287,542.400269 446.899353,557.761719 
M397.834625,560.654358 
	C393.758606,553.327637 391.384369,545.317688 389.032288,537.372131 
	C385.446075,525.257690 382.376160,512.987671 379.243683,500.743622 
	C378.473969,497.735016 376.631653,496.102936 373.877106,495.538818 
	C371.478516,495.047546 369.815277,496.617279 368.478577,498.442291 
	C361.534790,507.922607 362.012207,517.988525 370.150909,526.484558 
	C373.333405,529.806763 374.964935,533.616821 373.778748,537.817505 
	C371.791534,544.854736 374.910095,549.209900 380.103241,553.121399 
	C386.727478,558.110779 393.508545,563.116760 396.296600,571.427368 
	C397.353607,574.578064 399.162689,576.343750 402.099701,577.267700 
	C403.655121,575.654297 404.203461,574.263367 403.142395,572.214661 
	C401.310089,568.676758 399.815399,564.963989 397.834625,560.654358 
M332.360840,559.088806 
	C332.699402,561.057739 332.999115,563.034363 333.382843,564.994446 
	C335.862274,577.659241 339.786652,589.791504 346.380432,600.986755 
	C348.238220,604.140930 350.871613,604.349182 353.636780,603.125549 
	C356.768738,601.739502 355.858795,599.080200 354.859497,596.676697 
	C352.622894,591.297302 350.106232,586.021729 348.121918,580.552124 
	C339.150970,555.824524 337.111053,530.310486 339.569031,504.263428 
	C339.981506,499.892609 341.260651,495.547882 340.568176,490.316528 
	C338.799194,496.783173 336.485046,502.252014 335.131042,508.109833 
	C331.300873,524.680420 330.110657,541.323608 332.360840,559.088806 
z"/>
<path fill="#000000" opacity="1.000000" stroke="none" 
	d="
M212.169037,605.846924 
	C231.602570,629.185059 254.295242,648.291626 280.352051,664.673340 
	C275.923859,667.133484 272.805908,666.498169 269.742767,664.494629 
	C243.562180,647.369934 220.933502,626.358276 201.717789,601.724060 
	C175.389542,567.971741 157.623093,530.144104 148.165085,488.365570 
	C139.088760,448.273041 138.776306,408.206421 147.268570,367.967926 
	C157.021378,321.756744 176.746826,280.419617 206.810425,244.012741 
	C217.340240,231.261169 228.999954,219.616074 241.554001,208.860352 
	C244.039963,206.730515 246.616104,205.038223 250.690872,207.536743 
	C175.853561,271.824310 140.413193,353.027679 147.833206,451.170135 
	C152.215347,509.131622 174.450790,560.799561 212.169037,605.846924 
z"/>
<path fill="#000000" opacity="1.000000" stroke="none" 
	d="
M720.801147,395.127136 
	C714.448547,339.794312 694.041260,290.840302 659.009827,248.062958 
	C645.232727,231.239578 629.833679,216.073578 612.416077,203.003433 
	C610.572815,201.620255 610.591858,201.594879 609.268799,198.616669 
	C612.846375,196.602844 615.577759,198.436768 618.224487,200.499268 
	C631.268921,210.664551 643.384705,221.856216 654.399109,234.177200 
	C686.085266,269.621918 707.835571,310.486267 719.286926,356.567352 
	C727.741760,390.590210 730.162415,425.064667 725.573669,460.093231 
	C719.621033,505.532562 704.355225,547.279358 678.696411,585.190125 
	C657.714111,616.191284 631.497314,641.989685 600.410339,662.843872 
	C597.385803,664.872803 594.254517,666.092896 590.562927,664.699585 
	C590.058289,662.129150 592.206116,661.619263 593.614441,660.708862 
	C648.660400,625.124084 686.697083,576.243164 707.884094,514.275391 
	C715.897766,490.837128 720.183044,466.649353 721.988586,441.942535 
	C723.123535,426.412628 722.272583,411.007050 720.801147,395.127136 
z"/>
<path fill="#000000" opacity="1.000000" stroke="none" 
	d="
M515.700317,213.939087 
	C515.472656,201.645157 516.431152,189.816605 514.919861,178.035355 
	C514.710510,176.403275 514.956970,174.712082 514.999329,173.048447 
	C515.105103,168.901733 517.088501,167.171585 521.349731,167.444321 
	C526.492798,167.773514 531.667786,167.572174 536.826965,167.689545 
	C544.924561,167.873779 549.114258,170.867569 551.478516,178.639420 
	C554.194824,187.568436 554.385132,196.413635 548.809082,204.479980 
	C547.311951,206.645691 547.631775,208.367142 548.609253,210.461227 
	C550.507935,214.528900 552.307556,218.645462 554.043457,222.785706 
	C555.913696,227.246414 554.820374,228.583862 549.900208,229.157059 
	C544.192566,229.822021 540.206848,228.085831 538.154053,222.468826 
	C537.243164,219.976242 536.055908,217.574631 534.857483,215.200714 
	C534.076843,213.654434 533.599854,211.434433 531.075684,212.080414 
	C528.884277,212.641251 529.287292,214.610672 529.228760,216.216125 
	C529.125610,219.043457 529.283997,221.890381 529.019897,224.699677 
	C528.459106,230.664551 523.858887,229.111450 520.244019,229.126358 
	C516.482178,229.141876 514.869080,227.338150 515.404907,223.403030 
	C515.806580,220.453094 515.620911,217.423187 515.700317,213.939087 
M539.467163,191.725403 
	C539.476685,189.419189 539.796875,187.061417 539.424805,184.818497 
	C538.825745,181.207184 536.073730,180.262833 532.763184,180.303986 
	C528.989380,180.350891 529.247009,183.034286 529.248047,185.547592 
	C529.249268,188.525497 529.264160,191.504333 529.342896,194.480911 
	C529.385925,196.109863 529.205627,198.027130 531.307861,198.557236 
	C533.488403,199.107101 535.741699,198.903076 537.173767,196.964447 
	C538.127441,195.673416 538.565247,194.001328 539.467163,191.725403 
z"/>
<path fill="#000000" opacity="1.000000" stroke="none" 
	d="
M336.388184,199.592651 
	C334.354187,199.983414 332.703003,200.167480 331.050476,200.338242 
	C322.236084,201.249039 322.480133,201.253952 322.256042,210.255539 
	C322.146423,214.658325 323.846222,215.869003 327.806885,215.439667 
	C330.452118,215.152939 333.125549,215.028397 335.787445,215.012909 
	C342.176147,214.975739 344.178925,217.079681 343.943970,223.464203 
	C343.838470,226.330704 342.632385,228.228867 339.458160,228.330994 
	C330.636322,228.614792 321.816284,228.962753 312.993347,229.204407 
	C308.875397,229.317200 306.715363,227.199753 306.958038,223.059052 
	C307.953003,206.084351 307.786591,189.088562 307.978058,172.099274 
	C308.018066,168.546753 309.876770,166.989319 313.310577,166.991470 
	C321.475525,166.996552 329.640503,166.964279 337.805420,166.973801 
	C342.391937,166.979141 343.170685,170.032959 343.176605,173.730850 
	C343.182281,177.274841 343.711792,181.074310 338.432495,181.330368 
	C334.442596,181.523911 330.457855,181.821640 326.468414,182.025848 
	C324.340363,182.134781 322.447601,182.345291 322.368134,185.189575 
	C322.282166,188.267624 324.150421,188.749939 326.591125,188.688263 
	C327.923126,188.654602 329.257111,188.699203 330.590179,188.705215 
	C338.358551,188.740219 340.294495,192.083633 336.388184,199.592651 
z"/>
<path fill="#000000" opacity="1.000000" stroke="none" 
	d="
M473.810211,196.995300 
	C473.852051,188.830154 473.990936,181.162827 473.896667,173.498367 
	C473.839539,168.856232 475.802216,166.838272 480.505524,166.946823 
	C488.000793,167.119766 495.505096,167.082397 503.001984,166.941803 
	C508.124298,166.845764 508.991699,169.976608 509.138489,174.086700 
	C509.284241,178.168411 508.873840,181.456924 503.520294,181.398224 
	C499.699524,181.356323 495.875244,181.841049 492.049042,182.013763 
	C489.742981,182.117859 488.240967,182.836090 488.245667,185.513885 
	C488.250580,188.336105 489.948181,188.767685 492.195282,188.721161 
	C494.027496,188.683212 495.871307,188.853363 497.692566,188.710236 
	C501.586823,188.404221 504.065857,189.316315 504.192078,193.979965 
	C504.312683,198.435379 502.751160,200.620377 498.178406,200.306351 
	C497.686646,200.272598 497.182983,200.382462 496.687012,200.443359 
	C488.354919,201.466370 486.447998,204.302124 488.314545,212.536499 
	C488.994263,215.534988 491.285004,215.346130 493.377472,215.359543 
	C496.871277,215.381943 500.365875,215.081696 503.861542,215.043396 
	C509.539642,214.981140 509.326691,219.403030 509.736938,223.136337 
	C510.168060,227.060074 507.872040,228.194153 504.282318,228.509384 
	C495.962158,229.240021 487.629822,229.014923 479.305450,229.268707 
	C474.593567,229.412354 472.676910,226.982162 472.865967,222.453262 
	C473.213165,214.134979 473.498077,205.814117 473.810211,196.995300 
z"/>
<path fill="#000000" opacity="1.000000" stroke="none" 
	d="
M429.993805,219.826538 
	C430.687500,203.898514 431.019379,188.432922 430.725525,172.966904 
	C430.633911,168.145309 433.065735,167.022049 437.178009,166.961243 
	C441.403870,166.898758 443.303528,168.748734 443.208252,172.952820 
	C443.121552,176.777405 443.400024,180.615402 443.200256,184.430878 
	C442.991028,188.426636 445.104645,189.389038 448.454590,188.979706 
	C451.625061,188.592285 455.999664,190.069778 455.765839,184.225204 
	C455.612976,180.405365 455.825226,176.572311 455.792908,172.745865 
	C455.753510,168.078827 458.442444,166.903839 462.572601,166.869873 
	C466.772766,166.835342 467.266663,169.104706 467.450623,172.596298 
	C468.317993,189.057739 468.125488,205.522247 467.951416,221.988434 
	C467.919220,225.034454 467.682556,228.038452 463.669006,228.810989 
	C458.333008,229.838104 455.781006,227.935699 455.722656,222.489044 
	C455.665588,217.164963 455.595215,211.837250 455.730804,206.516235 
	C455.815002,203.212418 455.242035,200.697235 451.170807,201.365112 
	C447.760864,201.924484 442.929535,200.384415 443.176575,206.735870 
	C443.376831,211.885071 443.043884,217.053314 443.170959,222.207611 
	C443.275360,226.443375 442.439911,229.327667 437.225952,229.183807 
	C431.402039,229.023102 430.314087,228.235001 429.988342,222.295486 
	C429.951935,221.631973 429.986298,220.964569 429.993805,219.826538 
z"/>
<path fill="#000000" opacity="1.000000" stroke="none" 
	d="
M391.115173,225.879700 
	C386.911865,231.177582 379.161713,230.429871 376.582428,224.845917 
	C375.714508,222.966919 374.932220,220.795990 372.441376,221.421494 
	C369.290039,222.212830 365.321625,220.358704 363.088013,224.384476 
	C360.790009,228.526413 353.900482,230.529800 349.756134,228.541275 
	C347.435852,227.427979 347.346283,225.571701 347.918152,223.489609 
	C352.581299,206.511749 357.203949,189.522354 361.974548,172.574646 
	C363.479126,167.229630 368.282806,168.060913 372.300629,167.686035 
	C376.052094,167.336029 376.886353,169.944763 377.675140,172.901581 
	C382.337494,190.377731 387.776367,207.653000 391.115173,225.879700 
M371.227112,199.515244 
	C370.666992,198.591522 371.191498,197.123337 369.520050,196.488373 
	C368.496765,199.578629 367.425049,202.565414 367.897369,206.030289 
	C369.650116,206.183731 371.099213,206.400085 372.430695,204.771057 
	C372.125366,203.359390 371.781189,201.768112 371.227112,199.515244 
z"/>
<path fill="#000000" opacity="1.000000" stroke="none" 
	d="
M593.965698,172.020340 
	C597.662231,175.260651 596.975952,178.134384 594.317749,181.321457 
	C591.850403,184.279678 589.465149,185.051300 586.224426,182.558701 
	C585.235474,181.798080 583.794434,181.453110 582.512207,181.284286 
	C580.326965,180.996552 577.991394,180.982269 576.876953,183.399002 
	C575.661682,186.034409 577.696594,187.521790 579.453430,188.661499 
	C582.237976,190.468002 585.257446,191.912216 588.176453,193.511612 
	C596.329285,197.978683 599.598145,204.569534 598.052124,213.420624 
	C596.726685,221.008575 589.881042,227.779343 582.330933,228.969803 
	C574.692078,230.174240 565.822998,225.682755 561.940063,218.983932 
	C559.476685,214.734131 562.567566,213.013092 565.044495,210.813828 
	C567.592651,208.551254 569.837280,208.145126 572.173035,211.202148 
	C573.036072,212.331650 574.442383,213.155655 575.754883,213.810242 
	C578.875427,215.366547 582.292480,215.722443 584.051086,212.223877 
	C585.873657,208.598022 582.211365,207.466934 579.939575,206.043549 
	C577.685791,204.631393 575.248962,203.514755 572.924988,202.210495 
	C562.150085,196.163467 559.607117,184.869080 566.691040,174.604019 
	C573.088501,165.333527 584.341370,164.150375 593.965698,172.020340 
z"/>
<path fill="#000000" opacity="1.000000" stroke="none" 
	d="
M299.667725,180.208038 
	C295.896454,180.410721 292.578033,180.556442 289.259735,180.704712 
	C285.134277,180.889084 285.356415,183.762650 285.311188,186.737793 
	C285.257019,190.300415 287.364197,190.318405 289.924683,190.083313 
	C291.243073,189.962265 292.585449,190.129852 293.912018,190.065125 
	C298.590942,189.836761 300.323395,191.995682 300.342529,196.684052 
	C300.363190,201.752930 297.607178,202.480820 293.633484,202.231415 
	C292.805176,202.179413 291.955444,202.323273 291.142273,202.200272 
	C286.223907,201.456345 284.639526,203.782791 284.906158,208.419601 
	C285.173035,213.061432 285.133240,217.730316 285.018433,222.382172 
	C284.885406,227.772903 283.977631,228.283020 277.724579,228.400726 
	C273.486572,228.480499 270.759705,227.771317 270.826538,222.510391 
	C271.033569,206.217392 270.961304,189.919510 270.844910,173.624634 
	C270.815460,169.497803 272.515900,167.282791 276.586884,167.152740 
	C283.395630,166.935242 290.208984,166.821884 297.021179,166.772385 
	C299.682678,166.753036 302.986145,166.667679 303.141968,170.263107 
	C303.292114,173.727798 305.231262,178.146805 299.667725,180.208038 
z"/>
<path fill="#000000" opacity="1.000000" stroke="none" 
	d="
M416.065247,199.997299 
	C415.797424,207.811020 415.335999,215.127197 415.374084,222.440765 
	C415.396271,226.700211 414.226959,229.157883 409.568909,229.100739 
	C404.922729,229.043747 403.179749,227.472351 403.211121,222.231918 
	C403.279785,210.766373 403.452850,199.298218 403.831207,187.839310 
	C403.990997,183.000565 403.801239,179.206406 397.256317,179.962509 
	C394.310364,180.302811 393.130646,178.119354 393.564178,175.351227 
	C394.053253,172.228516 392.220917,167.839645 397.725891,167.249527 
	C403.226501,166.659882 408.693390,167.493546 414.177429,167.583511 
	C415.841309,167.610809 417.507812,167.617325 419.170471,167.558746 
	C426.525269,167.299713 428.864044,170.726852 426.088654,177.616852 
	C425.120636,180.020004 423.094360,180.061356 421.107483,179.962875 
	C417.442810,179.781265 416.080322,181.382156 416.208008,185.020966 
	C416.377075,189.839447 416.142456,194.672104 416.065247,199.997299 
z"/>
<path fill="#000000" opacity="1.000000" stroke="none" 
	d="
M493.980286,713.907959 
	C491.225159,716.037781 489.779297,714.488831 488.483185,712.527710 
	C486.412567,709.394653 484.356720,706.251770 481.684906,702.184998 
	C480.929474,706.604004 482.544891,709.527527 482.628967,712.590027 
	C482.676514,714.320496 482.707458,716.208679 480.677551,716.667297 
	C478.479828,717.163757 477.847168,715.304382 477.538086,713.634888 
	C476.115540,705.950439 474.758820,698.253601 473.414917,690.554871 
	C473.102173,688.763245 473.472748,687.174622 475.427124,686.511658 
	C477.324219,685.868042 478.688263,686.843506 479.678833,688.304932 
	C481.786163,691.414001 483.798553,694.587402 486.650024,697.415649 
	C486.072357,694.221558 485.421906,691.038269 484.947906,687.828857 
	C484.712585,686.235474 485.253662,684.795654 486.977753,684.274292 
	C488.325134,683.866699 489.511505,684.647278 489.743073,685.798950 
	C491.593872,695.005066 495.092590,703.955505 493.980286,713.907959 
z"/>
<path fill="#000000" opacity="1.000000" stroke="none" 
	d="
M334.960815,694.123840 
	C336.673981,688.667603 338.203186,683.571838 339.899078,678.532166 
	C340.464813,676.850952 341.136292,674.801086 343.544922,675.156799 
	C345.669617,675.470703 346.563843,677.272400 346.779266,679.129211 
	C347.211212,682.852539 347.363953,686.608337 348.418396,690.463745 
	C349.409454,687.408691 350.347046,684.334900 351.413483,681.306396 
	C351.967499,679.733093 352.714142,677.890686 354.820831,678.432190 
	C357.052765,679.005859 357.259644,680.854797 356.679138,682.853271 
	C354.546265,690.195435 352.451935,697.549011 350.282166,704.880249 
	C349.749298,706.680542 348.905762,708.501892 346.605408,708.265198 
	C344.311737,708.029114 343.921356,706.061279 343.657837,704.207764 
	C343.123383,700.448792 342.644257,696.681946 342.015350,691.966125 
	C339.882965,695.111450 339.817230,698.091431 338.742645,700.655212 
	C337.987823,702.456116 337.380371,704.980713 334.833740,704.325745 
	C332.121460,703.628174 333.038483,701.244446 333.537659,699.318542 
	C333.954590,697.709839 334.405823,696.109924 334.960815,694.123840 
z"/>
<path fill="#000000" opacity="1.000000" stroke="none" 
	d="
M452.320221,707.672852 
	C452.572388,710.617737 452.973480,713.097229 452.994934,715.580017 
	C453.010925,717.429199 452.501373,719.445801 450.376190,719.938354 
	C448.154999,720.453003 447.140991,718.681824 446.306763,716.992310 
	C444.578278,713.491516 442.885010,709.973267 440.277954,706.649353 
	C440.277954,710.067810 440.337097,713.487671 440.250824,716.903992 
	C440.212646,718.415649 439.955841,720.096497 437.945648,720.165344 
	C435.998657,720.232056 435.334686,718.577393 435.276947,717.124329 
	C434.953613,708.990601 434.767456,700.850647 434.623291,692.711243 
	C434.594940,691.109375 435.293365,689.723938 437.174194,689.578125 
	C439.090912,689.429565 440.307251,690.538635 441.071136,692.148987 
	C442.680115,695.540894 444.227753,698.961853 446.127899,703.080566 
	C447.223572,699.376282 445.870544,696.663818 446.050323,693.913696 
	C446.181305,691.909912 446.139374,689.456787 448.607330,689.103577 
	C451.451538,688.696472 451.605194,691.377747 451.745850,693.246765 
	C452.095306,697.888550 452.139435,702.553284 452.320221,707.672852 
z"/>
<path fill="#000000" opacity="1.000000" stroke="none" 
	d="
M373.613953,704.597717 
	C374.399841,699.754883 374.976166,695.300720 375.884674,690.915344 
	C376.497589,687.956665 376.527191,684.228455 380.951447,684.078796 
	C386.264526,683.898987 390.595947,687.120911 391.182770,691.714722 
	C391.725159,695.960754 391.063019,700.128540 388.606689,703.645569 
	C386.765137,706.282471 385.716980,708.721436 386.836639,711.929932 
	C387.454315,713.699829 387.554352,715.996826 385.363953,716.599304 
	C382.683777,717.336548 382.339020,714.777588 381.606476,712.958557 
	C380.957977,711.348083 381.114410,709.361023 379.659210,708.056458 
	C377.739441,709.011047 378.433228,710.845032 377.780487,712.106079 
	C376.937103,713.735291 376.255768,715.818726 373.901398,715.051697 
	C372.025330,714.440369 371.871674,712.635010 372.267120,710.857117 
	C372.699890,708.911438 373.120117,706.962891 373.613953,704.597717 
M383.010406,701.388611 
	C386.432770,699.214600 386.046082,695.841370 385.590576,692.590881 
	C385.337128,690.782471 384.105072,689.738953 381.675079,690.368774 
	C381.234283,692.624939 380.620239,694.986450 380.357117,697.386292 
	C380.178223,699.018311 379.445435,701.204956 383.010406,701.388611 
z"/>
<path fill="#000000" opacity="1.000000" stroke="none" 
	d="
M288.316498,660.311523 
	C291.057495,658.248596 292.565613,653.454651 296.435944,655.656799 
	C300.536652,657.989990 297.609222,661.990173 296.754486,665.101562 
	C295.218292,670.693848 293.239075,676.165955 291.389923,681.669800 
	C290.819824,683.366638 290.364136,685.580872 288.024048,685.330017 
	C285.534210,685.063049 285.693481,682.859680 285.923401,681.036133 
	C286.127014,679.421448 286.103912,678.113220 284.383209,677.298035 
	C282.734497,676.516724 281.580017,677.125305 280.382904,678.235474 
	C279.048279,679.473267 277.463165,681.043213 275.696655,679.227722 
	C273.944855,677.427368 275.668243,675.806824 276.743622,674.453247 
	C280.458313,669.777527 284.288849,665.193787 288.316498,660.311523 
z"/>
<path fill="#000000" opacity="1.000000" stroke="none" 
	d="
M417.724060,704.880371 
	C418.800598,700.784912 419.756042,697.081116 420.878845,693.428772 
	C421.422668,691.659729 422.273163,689.848755 424.544586,689.933716 
	C426.758972,690.016357 427.706573,691.739258 428.036743,693.601624 
	C429.428711,701.453979 430.731171,709.322876 431.978729,717.199585 
	C432.224487,718.751282 431.821106,720.330566 429.995880,720.720764 
	C428.435577,721.054199 427.678375,719.835632 426.948212,718.659119 
	C423.952545,713.831848 422.815216,713.829773 419.763947,718.702698 
	C419.007568,719.910706 418.211304,721.064941 416.671387,720.619446 
	C414.884033,720.102295 414.631287,718.473938 414.952728,716.945068 
	C415.773254,713.043030 416.754730,709.174927 417.724060,704.880371 
z"/>
<path fill="#000000" opacity="1.000000" stroke="none" 
	d="
M354.241943,703.335815 
	C357.242920,697.158691 360.024384,691.294495 362.928253,685.491577 
	C363.821106,683.707458 364.965424,681.755310 367.468597,682.500793 
	C369.784271,683.190491 370.211731,685.297729 370.142517,687.359253 
	C369.896912,694.674255 369.555542,701.986206 369.217560,709.297791 
	C369.130280,711.186646 368.814545,713.347717 366.559479,713.482056 
	C364.514648,713.603943 364.286407,711.505798 363.814667,709.886108 
	C362.679077,705.986877 360.544403,705.327454 358.041412,708.105713 
	C356.740631,709.549561 355.758759,712.057739 353.402008,710.714355 
	C350.638428,709.139038 352.851105,706.945496 353.453918,705.037598 
	C353.603271,704.564880 353.861389,704.126526 354.241943,703.335815 
z"/>
<path fill="#000000" opacity="1.000000" stroke="none" 
	d="
M524.873901,679.258423 
	C524.918091,676.687988 525.444153,674.679565 527.846924,674.278748 
	C530.244080,673.878723 531.341675,675.835388 532.334717,677.573486 
	C535.878235,683.775085 539.394226,689.992798 542.863647,696.236084 
	C543.727356,697.790283 545.085632,699.679626 542.947083,701.059570 
	C541.148987,702.219910 539.839539,700.602112 538.841431,699.277039 
	C537.651367,697.697021 536.362915,697.316162 534.535034,698.145447 
	C532.923462,698.876587 532.243103,699.932251 532.571228,701.675293 
	C532.905029,703.448364 532.736450,705.393311 530.712952,705.653809 
	C528.233704,705.973145 528.017151,703.695801 527.775085,701.894226 
	C526.781067,694.495483 525.838196,687.089905 524.873901,679.258423 
z"/>
<path fill="#000000" opacity="1.000000" stroke="none" 
	d="
M318.229645,689.631836 
	C319.904663,683.773499 322.015259,678.527466 324.390289,673.387939 
	C325.149719,671.744446 326.031219,669.592773 328.295654,670.489380 
	C330.619446,671.409424 329.669006,673.537048 329.059021,675.253357 
	C327.388031,679.954773 325.637878,684.628235 323.980255,689.334351 
	C323.384064,691.027039 322.582855,692.826416 324.697296,694.431580 
	C327.608368,693.583740 328.357086,690.836243 329.361298,688.533813 
	C331.021149,684.727905 332.272430,680.745972 333.813965,676.885376 
	C334.468781,675.245361 335.152008,672.940308 337.536194,673.861023 
	C339.859833,674.758484 338.905243,676.921082 338.384979,678.641602 
	C336.743652,684.069641 334.734924,689.379700 331.979095,694.326477 
	C329.991486,697.894287 327.951447,702.385986 322.675720,700.760742 
	C317.419159,699.141418 317.313843,694.609497 318.229645,689.631836 
z"/>
<path fill="#000000" opacity="1.000000" stroke="none" 
	d="
M301.245544,684.274780 
	C303.754333,678.608093 306.079224,673.273193 308.437012,667.952881 
	C309.429932,665.712280 310.143982,662.565369 313.302917,663.240356 
	C316.626282,663.950562 320.088959,665.179382 321.345856,669.116028 
	C323.820740,676.867310 317.700348,685.930664 309.596436,686.175171 
	C307.329163,686.243530 305.862213,686.842896 304.743622,688.831421 
	C303.809357,690.492249 302.749023,692.901611 300.265228,691.345581 
	C298.210785,690.058533 299.563049,688.083130 300.237061,686.423401 
	C300.487061,685.807861 300.794006,685.215454 301.245544,684.274780 
M309.626038,678.387207 
	C309.614563,680.269409 310.642090,680.645935 312.196381,680.079590 
	C315.720886,678.795288 317.030548,672.838745 314.400970,669.396423 
	C311.440857,671.418579 311.239624,674.935303 309.626038,678.387207 
z"/>
<path fill="#000000" opacity="1.000000" stroke="none" 
	d="
M566.873108,660.069519 
	C566.850647,658.270325 567.080505,656.910400 568.773865,656.677551 
	C570.192688,656.482300 570.885071,657.592346 571.299377,658.688293 
	C574.185364,666.322937 576.911255,674.014038 578.208435,682.112427 
	C578.474060,683.771118 578.420654,685.590942 576.617737,686.492126 
	C574.699036,687.451172 573.385681,686.098328 572.374634,684.802979 
	C567.556335,678.629944 562.794739,672.411499 558.103455,666.141541 
	C557.131775,664.842957 556.004211,663.094055 557.811340,661.721924 
	C559.641418,660.332336 560.902222,661.980225 561.955383,663.227966 
	C564.615540,666.379700 567.181763,669.610840 570.472046,672.503052 
	C569.287903,668.488220 568.103760,664.473328 566.873108,660.069519 
z"/>
<path fill="#000000" opacity="1.000000" stroke="none" 
	d="
M584.611145,677.499634 
	C581.140747,671.566406 577.801086,665.992371 574.600769,660.339355 
	C571.388489,654.665283 572.423767,652.093872 578.613892,649.688599 
	C580.102417,649.110291 581.562927,648.673706 582.632690,650.248901 
	C583.613953,651.693726 583.321289,653.116455 582.001160,654.253479 
	C580.646057,655.420654 578.765442,656.253784 580.052307,658.653931 
	C581.418518,661.202087 583.111267,659.398376 584.776306,659.251404 
	C587.490051,659.011902 588.981323,661.101196 587.441528,662.906738 
	C583.710815,667.281372 586.527222,670.069092 588.684509,673.156067 
	C589.300659,673.156067 589.657227,673.244690 589.945557,673.141846 
	C591.992065,672.412292 593.938904,670.096924 596.189697,672.626648 
	C597.088501,673.636841 596.907410,674.959229 595.949524,675.792786 
	C593.366760,678.040100 591.004639,681.042358 586.937317,679.840454 
	C586.100342,679.593201 585.508118,678.517883 584.611145,677.499634 
z"/>
<path fill="#000000" opacity="1.000000" stroke="none" 
	d="
M508.056396,707.607422 
	C506.736267,702.062500 505.552002,696.896912 504.308258,691.745789 
	C503.803162,689.653748 503.341797,687.543701 500.841553,686.714233 
	C499.458069,686.255371 498.759766,685.053894 499.022797,683.551392 
	C499.285767,682.048889 500.487335,681.381226 501.795288,681.001221 
	C503.384949,680.539551 505.000244,680.123230 506.632477,679.863708 
	C508.099457,679.630554 509.696503,679.457886 510.660583,681.003235 
	C511.511047,682.366577 510.910248,683.601562 509.939758,684.593506 
	C508.028748,686.546631 509.126648,688.669922 509.560364,690.690369 
	C510.706268,696.028503 512.058105,701.322815 513.171631,706.667175 
	C513.473145,708.114319 513.315063,709.875854 511.647797,710.525513 
	C509.419647,711.393616 508.877777,709.471313 508.056396,707.607422 
z"/>
<path fill="#000000" opacity="1.000000" stroke="none" 
	d="
M548.985840,678.088989 
	C550.907715,682.916687 552.704102,687.378662 554.451660,691.859741 
	C555.145752,693.639526 555.624939,695.691772 553.496094,696.647278 
	C551.113586,697.716736 550.341858,695.533325 549.656799,693.887146 
	C547.681885,689.141235 545.817932,684.349182 543.906067,679.577026 
	C542.951904,677.195557 542.694763,674.183228 539.042542,674.232361 
	C538.755554,674.236145 538.391174,674.009583 538.187866,673.779602 
	C537.198242,672.660156 536.739380,671.112915 537.986755,670.254944 
	C540.828430,668.300476 543.887817,666.359436 547.573242,667.102112 
	C549.134094,667.416565 549.568848,669.174377 548.633362,670.310791 
	C546.445679,672.968201 547.975525,675.290100 548.985840,678.088989 
z"/>
<path fill="#000000" opacity="1.000000" stroke="none" 
	d="
M395.767578,706.779968 
	C396.450775,701.426758 397.058990,696.492859 397.790314,691.577148 
	C398.081421,689.620667 398.470337,687.128845 401.169189,687.689758 
	C403.412506,688.156006 403.098389,690.445068 402.859314,692.289246 
	C402.028351,698.700195 401.192810,705.110535 400.345093,711.519226 
	C400.059967,713.674683 399.679230,715.878784 398.160339,717.504883 
	C396.319794,719.475403 393.934052,719.748840 391.941589,717.934875 
	C389.911499,716.086548 390.878448,714.400696 393.010956,713.226807 
	C395.421021,711.900085 395.583160,709.554199 395.767578,706.779968 
z"/>
<path fill="#000000" opacity="1.000000" stroke="none" 
	d="
M413.262115,702.052368 
	C412.840576,706.643250 412.563599,710.789185 411.976532,714.890747 
	C411.584747,717.628113 410.552399,720.123535 407.080261,720.142761 
	C405.524719,720.151367 403.980530,719.883484 403.239685,718.355408 
	C402.435791,716.697449 403.283905,715.566956 404.776611,714.705017 
	C407.717834,713.006592 407.400696,709.938782 407.675964,707.210205 
	C408.141907,702.592102 408.357483,697.948792 408.822632,693.330566 
	C409.030579,691.266357 409.038361,688.276306 412.010071,688.750244 
	C414.768555,689.190186 414.124603,692.045288 413.960999,694.162781 
	C413.769562,696.640930 413.506683,699.113586 413.262115,702.052368 
z"/>
<path fill="#000000" opacity="1.000000" stroke="none" 
	d="
M453.747314,695.119019 
	C453.722198,693.845276 453.656219,693.013062 453.709320,692.188538 
	C453.808044,690.655151 454.026733,689.013062 455.933380,688.824951 
	C458.276611,688.593689 458.602478,690.628662 458.763397,692.174805 
	C459.363251,697.937744 459.753113,703.722778 460.209900,709.500427 
	C460.353485,711.316162 460.440704,713.136414 460.588104,714.951782 
	C460.754608,717.002136 460.918854,719.430847 458.315552,719.660217 
	C455.718079,719.889160 455.375641,717.304749 455.140533,715.383606 
	C454.819489,712.760010 454.924835,710.087341 454.739746,707.443237 
	C454.462280,703.480042 454.091400,699.523499 453.747314,695.119019 
z"/>
<path fill="#000000" opacity="1.000000" stroke="none" 
	d="
M497.494171,686.789978 
	C499.167419,694.296936 500.760773,701.409485 502.232391,708.547241 
	C502.621185,710.432983 503.328156,712.931335 500.504211,713.428467 
	C497.806213,713.903442 497.405579,711.377197 496.997589,709.486694 
	C495.459381,702.358765 494.050171,695.203125 492.579071,688.060669 
	C492.203674,686.237976 491.620087,684.089417 493.821869,683.296692 
	C496.281982,682.410950 496.724670,684.725586 497.494171,686.789978 
z"/>
<path fill="#000000" opacity="1.000000" stroke="none" 
	d="
M474.068512,708.085449 
	C474.440369,710.483154 474.807831,712.438782 475.035858,714.410461 
	C475.217560,715.981812 474.953430,717.531311 473.139862,717.972168 
	C471.317474,718.415222 470.182831,717.272766 469.963165,715.645813 
	C468.834137,707.284119 467.786896,698.910339 466.826050,690.527649 
	C466.649353,688.986328 467.215607,687.405334 469.131927,687.294250 
	C470.832367,687.195679 471.340271,688.679077 471.535126,689.972107 
	C472.421661,695.855286 473.191864,701.755920 474.068512,708.085449 
z"/>
<path fill="#000000" opacity="1.000000" stroke="none" 
	d="
M519.246460,701.569763 
	C517.275635,694.993042 515.429993,688.793152 513.615479,682.584045 
	C513.098999,680.816833 512.375549,678.675720 514.724304,677.892578 
	C517.153992,677.082458 517.753601,679.319092 518.286255,681.044678 
	C520.438599,688.018372 522.522705,695.013184 524.627319,702.001526 
	C525.203369,703.914429 526.169312,706.352051 523.736938,707.219910 
	C520.740356,708.289062 520.539124,705.266724 519.763794,703.385437 
	C519.575989,702.929810 519.507019,702.425171 519.246460,701.569763 
z"/>
<path fill="#000000" opacity="1.000000" stroke="none" 
	d="
M553.801514,673.097961 
	C552.835205,670.936829 551.930908,669.156006 551.221863,667.300659 
	C550.702759,665.942139 550.942078,664.610779 552.419617,663.932678 
	C553.724365,663.333801 554.783203,664.000122 555.308777,665.128113 
	C558.949158,672.941345 562.564575,680.767212 566.060242,688.645752 
	C566.603088,689.869263 566.342529,691.421143 564.721619,691.921692 
	C562.889221,692.487610 561.926575,691.168335 561.289429,689.781799 
	C558.796936,684.357422 556.387573,678.894775 553.801514,673.097961 
z"/>
</svg>