<svg version="1.1" id="Layer_1" xmlns="http://www.w3.org/2000/svg" xmlns:xlink="http://www.w3.org/1999/xlink" x="0px" y="0px"
	 width="100%" viewBox="0 0 1024 976" enable-background="new 0 0 1024 976" xml:space="preserve">
<path fill="#000000" opacity="1.000000" stroke="none" 
	d="
M877.077393,526.867676 
	C871.449402,583.347229 854.916199,635.894958 826.039734,684.269287 
	C787.921326,748.125854 735.552307,796.863770 669.024719,830.304321 
	C628.708801,850.569519 586.021545,862.988098 541.291199,867.935852 
	C506.229736,871.814087 471.218719,870.638977 436.322144,864.669189 
	C377.967133,854.686340 324.837280,832.391357 277.039276,797.671631 
	C230.762741,764.057007 194.031631,721.913025 166.875305,671.484375 
	C149.462234,639.148865 136.955902,605.052795 129.407349,569.108398 
	C122.383926,535.664490 119.706406,501.841217 122.006630,467.809265 
	C126.523003,400.989594 146.775742,339.225037 183.855347,283.286102 
	C222.193146,225.449066 272.574890,181.293228 335.105652,150.987473 
	C375.096741,131.605652 417.222473,119.752594 461.302032,115.151009 
	C493.026367,111.839233 524.719910,112.635727 556.388184,117.450874 
	C611.966492,125.901512 663.226196,145.317596 709.904907,176.535095 
	C779.951416,223.380310 829.008728,286.774719 857.421509,366.027252 
	C868.310120,396.399384 874.831848,427.812836 877.296448,460.030060 
	C878.989807,482.164490 878.858154,504.288605 877.077393,526.867676 
M317.294769,181.162369 
	C314.950439,182.420685 312.531250,183.557983 310.273010,184.955429 
	C276.244263,206.013031 246.309021,231.899124 221.292099,263.067902 
	C165.368179,332.743988 137.904282,412.293854 139.905670,501.852570 
	C140.500198,528.457581 144.091553,554.599915 150.719864,580.323975 
	C169.933990,654.892700 208.779022,717.451355 267.486877,767.129883 
	C330.683258,820.606628 404.276886,848.604248 486.888000,852.511780 
	C517.960571,853.981506 548.796509,850.941467 579.156372,844.046143 
	C619.965149,834.777771 658.175659,819.106506 693.482056,796.561829 
	C764.455566,751.242188 813.711487,688.598511 841.707458,609.339111 
	C857.012817,566.008057 863.411804,521.272461 861.148682,475.257904 
	C859.791992,447.673370 855.550659,420.625488 848.014404,394.117432 
	C836.711853,354.361267 819.310669,317.476868 795.366577,283.694305 
	C762.506958,237.332764 721.140930,200.631348 671.092041,173.753265 
	C628.918152,151.104355 584.046631,137.137146 536.354309,132.509598 
	C508.734924,129.829712 481.101410,130.107864 453.584839,133.592636 
	C429.244171,136.675186 405.473206,142.503952 382.292572,150.557404 
	C361.013458,157.950256 340.379822,166.807236 320.714752,179.213135 
	C319.806122,179.810577 318.897461,180.408020 317.294769,181.162369 
z"/>
<path fill="#000000" opacity="1.000000" stroke="none" 
	d="
M850.931152,849.136414 
	C853.853027,850.067200 854.638916,851.802307 853.091553,854.038574 
	C852.020569,855.586304 850.111816,855.855957 848.885132,854.393616 
	C846.933105,852.066711 847.878601,850.223755 850.931152,849.136414 
z"/>
<path fill="#000000" opacity="1.000000" stroke="none" 
	d="
M320.947113,178.976105 
	C325.478516,178.280334 328.468536,174.818924 332.535034,173.801712 
	C335.599731,173.035080 338.694977,172.489883 340.302002,176.047104 
	C341.785675,179.331360 340.095978,181.799896 337.486877,183.773209 
	C329.647400,189.702377 329.539459,190.621933 335.722321,199.128693 
	C337.835205,199.433701 339.364136,197.783676 341.272614,197.321594 
	C343.897278,196.686081 346.508179,196.626862 347.849609,199.282913 
	C349.170380,201.898163 348.405975,204.434509 346.170990,206.491669 
	C344.317688,208.197495 340.203949,208.828583 341.088959,211.835968 
	C342.429749,216.392197 344.985077,220.630112 347.334503,224.829773 
	C348.188995,226.357162 349.732849,225.215881 350.824890,224.484207 
	C352.487213,223.370392 354.099274,222.209183 356.086151,221.683960 
	C358.481049,221.050903 360.856659,220.816757 362.341431,223.218414 
	C363.875610,225.699982 364.006226,228.604660 361.826447,230.610855 
	C357.552887,234.544128 353.100891,238.323242 347.432465,240.284805 
	C342.876678,241.861328 339.450745,240.350418 337.282440,236.392929 
	C329.192200,221.627151 322.327057,206.260254 315.469299,190.900101 
	C313.953094,187.504074 315.558868,184.408081 317.809418,181.316071 
	C318.897461,180.408020 319.806122,179.810577 320.947113,178.976105 
z"/>
<path fill="#000000" opacity="1.000000" stroke="none" 
	d="
M509.190063,246.792358 
	C518.429199,253.410355 526.970703,260.199371 533.935059,268.905670 
	C550.351746,289.428284 553.896484,311.628967 543.068604,335.727539 
	C530.290039,364.167358 509.721893,385.018524 480.706146,396.615723 
	C453.927917,407.318634 433.410492,400.730042 416.488953,377.307922 
	C414.344696,374.339935 412.313477,371.289062 410.273590,368.247223 
	C407.175781,363.627808 406.163849,363.399872 402.437195,367.326538 
	C391.557922,378.789795 385.681427,392.814270 382.160675,407.949371 
	C375.716614,435.651001 379.116608,462.895081 386.664734,489.789001 
	C395.271820,520.455933 410.102814,548.039124 429.101898,573.509766 
	C449.945496,601.453247 475.236481,624.700745 504.087402,644.009155 
	C533.131287,663.446716 564.539490,677.887695 599.122559,684.120728 
	C614.771362,686.941101 630.685669,689.644836 646.729980,686.090698 
	C648.303589,685.742065 650.387695,685.307617 651.068726,687.354492 
	C651.773621,689.472839 649.650208,690.198792 648.270630,690.888977 
	C632.388977,698.835571 615.880737,704.456116 598.026245,706.360840 
	C561.572327,710.249756 527.685120,701.365723 494.856689,686.745483 
	C457.283936,670.012329 424.245850,646.669189 395.581146,617.255981 
	C367.184692,588.118042 345.379456,554.639343 332.318054,515.975037 
	C320.980103,482.412323 317.806122,447.830322 321.480408,412.554718 
	C324.612152,382.487915 331.992676,353.560181 344.688812,326.170441 
	C358.212036,296.996368 375.813904,270.731506 401.911011,251.011887 
	C413.588409,242.188171 426.249146,235.273254 440.364288,231.345490 
	C465.857941,224.251465 488.787384,229.222260 509.190063,246.792358 
z"/>
<path fill="#000000" opacity="1.000000" stroke="none" 
	d="
M506.363007,584.058044 
	C519.524780,584.923035 531.704346,583.199219 543.095276,577.088867 
	C546.507385,575.258545 549.380737,572.947693 552.814453,569.122498 
	C504.233887,585.584656 465.211456,574.132202 436.348328,532.759399 
	C422.189514,512.464050 416.367371,489.761597 421.085449,464.233795 
	C424.263672,465.751221 424.448395,468.059570 425.307404,469.901703 
	C436.563446,494.039642 451.337738,515.411011 474.905212,529.020935 
	C495.258514,540.774658 515.980469,541.419250 536.251709,528.209229 
	C541.002808,525.113037 544.059204,521.195068 544.901306,516.994812 
	C540.433350,516.477966 536.532410,518.793640 532.419128,519.525879 
	C521.399414,521.487610 511.497589,518.582031 503.251923,512.110107 
	C484.611572,497.479523 476.591309,477.910919 480.654175,454.348114 
	C483.745117,436.421936 498.928894,422.554016 516.987915,419.747131 
	C542.015869,415.856995 561.290222,425.313751 575.593384,448.583771 
	C584.193420,462.575287 588.683716,478.042114 591.349243,494.071075 
	C593.973267,509.849823 595.760864,525.746460 595.169678,541.773193 
	C594.333313,564.447021 589.449951,586.004211 575.888000,604.773560 
	C566.073181,618.356873 553.385132,628.730103 538.740234,636.777954 
	C536.113953,638.221252 533.290161,639.474915 531.029480,641.377014 
	C526.862732,644.882812 523.105225,644.498962 518.813232,641.617065 
	C505.675568,632.795532 492.578583,623.931458 480.499054,613.666260 
	C476.684326,610.424500 477.011841,608.554749 481.254242,605.718323 
	C488.090698,601.147461 494.078827,595.595154 498.364594,588.513123 
	C500.189117,585.498108 502.216339,583.564758 506.363007,584.058044 
z"/>
<path fill="#000000" opacity="1.000000" stroke="none" 
	d="
M614.451050,382.332367 
	C585.861450,379.505096 560.495850,388.202209 536.161194,401.163788 
	C534.499207,402.049042 532.764832,404.379486 530.903931,402.528168 
	C528.902466,400.537079 531.113831,398.487396 532.150146,396.770172 
	C548.016113,370.480835 571.109375,354.101044 600.782654,346.630920 
	C626.285767,340.210663 650.410889,343.930695 672.986816,356.872009 
	C685.746948,364.186554 694.627991,375.516510 700.938293,388.705200 
	C713.849060,415.688568 715.226685,443.933350 710.753113,473.102386 
	C707.701660,492.999084 703.089294,512.362366 694.600403,530.555725 
	C680.365906,561.062805 662.138428,589.009521 639.198669,613.798157 
	C623.545959,630.712402 606.820312,646.300903 587.817505,659.514160 
	C579.096802,665.577942 571.113647,667.957031 561.046814,662.989319 
	C554.358215,659.688599 547.273010,657.098389 540.738464,653.428040 
	C537.027283,651.343506 537.076538,649.503784 540.668396,647.338379 
	C562.172485,634.374084 579.913696,617.050964 596.385132,598.435852 
	C613.548157,579.039246 628.358704,557.827515 639.035400,534.188599 
	C652.255554,504.918488 662.528931,474.690674 661.374084,441.883026 
	C660.809631,425.846710 657.832397,410.534698 646.668884,397.876434 
	C639.164185,389.366913 628.964294,386.440277 618.784485,383.280609 
	C617.516052,382.886902 616.189758,382.679443 614.451050,382.332367 
z"/>
<path fill="#000000" opacity="1.000000" stroke="none" 
	d="
M174.421249,435.519043 
	C179.961533,402.477356 190.321426,371.490234 205.299194,342.026215 
	C206.757034,339.158386 209.080551,337.414612 212.043060,336.469513 
	C216.946060,334.905273 220.763016,337.179718 221.564346,342.283020 
	C222.173904,346.164948 221.303238,349.840057 219.547546,353.380432 
	C205.151535,382.410095 195.513306,413.039581 190.748810,445.002747 
	C186.538177,473.250244 186.240341,501.667572 189.859436,530.145447 
	C194.637222,567.740845 205.782928,603.237000 223.215454,636.803772 
	C232.688049,655.043457 243.829163,672.221436 256.987061,688.032837 
	C259.430908,690.969543 260.902863,694.145752 261.615723,697.808655 
	C262.773926,703.759827 257.651245,708.313843 251.903671,706.276917 
	C248.388260,705.031128 245.496048,702.795227 243.141663,699.869385 
	C209.751251,658.374573 187.444550,611.630249 176.433365,559.486816 
	C171.875656,537.903748 169.468811,516.058167 169.234451,494.063416 
	C169.026840,474.580536 170.808487,455.158875 174.421249,435.519043 
z"/>
<path fill="#000000" opacity="1.000000" stroke="none" 
	d="
M822.320923,577.196838 
	C810.012451,623.698425 788.526123,665.069702 758.581543,702.109375 
	C757.335510,703.650635 755.994751,705.231445 754.385803,706.340820 
	C749.982056,709.377197 745.738342,708.858704 742.305664,705.165771 
	C739.306946,701.939636 739.352295,698.181580 742.810608,693.944214 
	C749.133911,686.196106 755.306335,678.337891 760.917358,670.057434 
	C783.204163,637.168030 798.913818,601.444092 808.039673,562.714417 
	C814.858826,533.773987 817.091370,504.493805 815.674744,474.945374 
	C813.764587,435.099152 804.390198,396.963593 787.689209,360.685486 
	C785.461914,355.847260 783.006287,351.113800 780.794617,346.268768 
	C778.977905,342.289001 779.076477,338.269836 782.484985,335.258545 
	C786.213806,331.964294 789.706116,334.279755 792.767578,336.749329 
	C795.902405,339.278015 798.310669,342.438721 800.083069,346.119385 
	C818.196045,383.734863 829.137390,423.275116 832.345703,464.948395 
	C835.259644,502.798492 832.353577,540.103271 822.320923,577.196838 
z"/>
<path fill="#000000" opacity="1.000000" stroke="none" 
	d="
M399.938324,212.964752 
	C397.261322,215.539978 394.430664,217.291183 391.487427,218.837357 
	C385.342773,222.065323 380.824921,220.467850 378.480713,214.029404 
	C375.581421,206.066345 373.401123,197.879257 371.347900,189.655975 
	C369.780487,183.378387 367.922913,177.173798 366.293732,170.910919 
	C364.454559,163.840927 366.626526,160.699142 373.403442,158.096436 
	C387.013641,152.869385 397.113464,159.094574 405.874908,168.126678 
	C413.784424,176.280533 414.651764,189.951584 409.079010,200.778580 
	C406.785919,205.233658 403.931244,209.314438 399.938324,212.964752 
M393.102997,171.432892 
	C389.905457,167.585663 385.868958,166.780655 380.748779,167.784134 
	C384.621338,180.151581 388.340973,192.030594 392.196106,204.342361 
	C399.691620,196.932602 399.937378,184.443619 393.102997,171.432892 
z"/>
<path fill="#000000" opacity="1.000000" stroke="none" 
	d="
M622.570557,211.498016 
	C623.130615,213.309509 623.555115,214.745255 624.003540,216.173447 
	C625.160522,219.858521 625.271362,223.462479 620.884155,224.798035 
	C616.674500,226.079559 614.924683,222.994553 613.886719,219.534103 
	C612.549561,215.076035 611.296448,210.592712 609.951721,206.137009 
	C609.582214,204.912766 609.510803,203.515778 608.075439,202.408340 
	C606.802979,204.779846 605.581543,207.093369 604.325989,209.388199 
	C601.966797,213.700409 598.167480,215.471130 594.516052,213.985260 
	C591.112915,212.600418 589.590881,208.270203 591.322510,203.651276 
	C596.344116,190.257523 601.551392,176.957886 607.679504,163.990829 
	C613.752197,151.141159 615.551453,152.564590 628.233215,156.970444 
	C629.789062,157.511002 631.268799,158.348618 632.678955,159.218445 
	C641.928101,164.923508 642.365295,175.685944 633.610596,182.984329 
	C630.369995,185.685837 626.668701,187.671326 622.470154,188.312347 
	C618.137695,188.973801 616.967041,191.135529 618.185364,195.230408 
	C619.748413,200.484024 621.038269,205.818939 622.570557,211.498016 
M621.998108,169.650345 
	C621.043701,171.993408 619.726746,174.241989 619.702881,177.066772 
	C623.089111,176.773911 625.417603,175.395050 627.003601,172.913803 
	C628.507141,170.561584 627.055176,168.727783 625.402527,167.365555 
	C623.496216,165.794159 622.995056,167.830154 621.998108,169.650345 
z"/>
<path fill="#000000" opacity="1.000000" stroke="none" 
	d="
M301.063110,266.255066 
	C302.089935,269.181366 302.834442,271.757477 301.602295,274.390503 
	C300.258698,277.261749 298.160400,279.485718 294.897736,279.720703 
	C291.704803,279.950653 289.069885,278.596191 287.599976,275.512970 
	C280.155884,259.898865 272.686615,244.296722 265.275360,228.667053 
	C263.591278,225.115494 263.974304,221.936081 267.285126,219.334000 
	C270.494568,216.811569 273.390381,216.380295 277.262756,218.583969 
	C291.617096,226.752640 305.045074,236.256912 318.291138,246.052811 
	C319.625793,247.039841 320.947144,248.078949 322.110138,249.256409 
	C324.087097,251.257874 324.685455,253.586685 322.799683,255.960907 
	C321.011475,258.212280 318.642883,258.754639 316.137207,257.271484 
	C311.844299,254.730453 307.628082,252.058578 303.406555,249.398956 
	C301.485382,248.188583 299.715790,247.141006 297.683960,249.335312 
	C295.845123,251.321213 294.706573,253.187485 296.210419,255.974091 
	C297.944611,259.187500 299.369965,262.567566 301.063110,266.255066 
z"/>
<path fill="#000000" opacity="1.000000" stroke="none" 
	d="
M504.587524,139.743347 
	C508.370697,157.375397 510.865753,174.856049 514.990540,192.018463 
	C515.691101,194.933289 515.334290,197.918869 511.825531,198.930923 
	C508.015594,200.029831 506.153351,197.488007 505.320831,194.394302 
	C503.894684,189.094604 502.889191,183.683029 501.609802,178.341736 
	C501.247223,176.828079 501.266510,174.665619 498.901764,174.822037 
	C496.637939,174.971786 494.132111,174.937668 493.322906,177.960587 
	C492.204285,182.139389 490.980499,186.290802 489.752869,190.439468 
	C488.051270,196.189713 484.061157,198.683395 478.929962,197.258148 
	C474.785461,196.106964 473.478851,192.934845 474.534882,187.136734 
	C477.468170,171.031586 482.979126,155.638763 487.472107,139.964584 
	C488.699951,135.681122 490.733734,132.212585 495.803680,132.000763 
	C500.917511,131.787109 503.251617,134.933029 504.587524,139.743347 
z"/>
<path fill="#000000" opacity="1.000000" stroke="none" 
	d="
M424.248291,693.103027 
	C438.327911,691.870483 451.706390,689.461853 464.662415,684.981445 
	C466.406738,684.378296 468.097046,683.658264 469.950836,684.582092 
	C480.520966,689.849609 491.098480,695.102173 501.655487,700.395752 
	C502.036682,700.586914 502.229706,701.153198 502.512421,701.547485 
	C484.369843,714.389099 403.914154,708.335083 397.552063,693.018860 
	C406.464417,692.194214 415.184631,695.176025 424.248291,693.103027 
z"/>
<path fill="#000000" opacity="1.000000" stroke="none" 
	d="
M241.317474,308.711975 
	C233.302765,302.426422 225.574371,296.356812 217.855484,290.275208 
	C216.236710,288.999786 215.138016,287.439178 214.819702,285.302399 
	C212.851257,272.088776 226.762070,259.811432 239.363220,263.678986 
	C246.443787,265.852173 253.368271,277.440369 250.700531,285.910339 
	C247.862839,294.920044 251.028519,299.609070 258.376068,303.412933 
	C260.266968,304.391907 261.939575,305.891846 263.511414,307.366699 
	C266.626892,310.289917 266.895538,314.648010 263.997986,317.645844 
	C261.168945,320.572723 258.049927,320.732941 254.656708,318.156158 
	C250.415604,314.935486 245.966492,311.988708 241.317474,308.711975 
M230.599777,276.917877 
	C229.463135,277.778900 227.919769,278.293365 227.827957,280.671295 
	C230.857071,282.568878 234.098434,284.599396 237.594772,286.789642 
	C238.045807,279.616638 236.206696,276.882599 230.599777,276.917877 
z"/>
<path fill="#000000" opacity="1.000000" stroke="none" 
	d="
M772.214417,273.682983 
	C769.653320,272.951752 767.587463,273.649078 765.563538,274.421326 
	C760.101868,276.505280 758.478149,280.004761 760.381470,285.441101 
	C765.000671,298.634216 760.342896,308.133972 747.472473,311.769775 
	C736.839417,314.773560 724.896301,306.968781 722.276245,295.386597 
	C721.689880,292.794556 722.048706,290.386719 723.248596,288.140015 
	C724.530273,285.740112 726.582703,284.321930 729.414001,285.000824 
	C732.124207,285.650696 732.124207,287.942657 732.211609,290.186249 
	C732.505615,297.731995 736.519348,300.868713 742.985962,298.689484 
	C748.340210,296.885162 749.943787,292.820221 747.308838,287.731018 
	C741.914551,277.312317 742.851685,271.087585 750.673706,265.381134 
	C760.447266,258.250885 771.573853,258.440613 778.849182,266.031342 
	C782.963806,270.324432 784.251038,275.492157 782.544861,281.252289 
	C781.673340,284.194244 779.698059,285.820740 776.535217,285.045959 
	C773.387207,284.274780 772.292603,282.070190 773.072754,278.955109 
	C773.516968,277.181366 774.261414,275.400787 772.214417,273.682983 
z"/>
<path fill="#000000" opacity="1.000000" stroke="none" 
	d="
M708.476318,266.123138 
	C708.552124,270.764465 706.038574,272.744080 702.135376,273.364777 
	C696.018311,274.337494 690.369934,273.276489 686.261719,268.362488 
	C682.201965,263.506561 682.304321,257.748444 684.839294,252.345428 
	C691.967712,237.151901 703.353027,226.055511 718.631226,219.158096 
	C724.728577,216.405365 730.502563,217.459549 733.819092,221.492691 
	C737.640076,226.139252 737.327271,231.294266 734.952576,236.499924 
	C733.726746,239.187149 732.175842,241.888824 728.701172,240.912354 
	C725.510437,240.015701 726.084045,237.159851 726.468079,234.629578 
	C726.585754,233.854279 726.486328,233.046036 726.486328,232.206924 
	C716.071960,233.815399 697.177673,252.910233 696.059082,262.762024 
	C699.580322,266.024139 705.167480,261.086060 708.476318,266.123138 
z"/>
<path fill="#000000" opacity="1.000000" stroke="none" 
	d="
M583.161621,144.691284 
	C585.562134,146.454071 586.721863,148.379120 585.227966,150.878769 
	C583.827148,153.222504 581.551147,153.376572 579.077942,152.963898 
	C570.292664,151.498062 569.919128,151.468262 568.590088,160.624466 
	C566.796814,172.978348 563.897156,185.078049 561.221558,197.237137 
	C560.117920,202.252350 556.791870,205.385345 552.885559,204.656387 
	C548.005371,203.745697 546.526184,199.999237 546.818481,195.694321 
	C547.723511,182.362534 551.268188,169.528503 554.654846,156.677582 
	C555.240601,154.454910 555.911987,152.254791 556.476929,150.278320 
	C554.702209,148.172745 552.497192,148.709457 550.650513,148.135422 
	C547.898621,147.279984 545.678772,145.572220 545.932556,142.506195 
	C546.199829,139.277786 549.066528,138.852829 551.603027,138.932724 
	C562.269836,139.268768 572.812683,140.423737 583.161621,144.691284 
z"/>
<path fill="#000000" opacity="1.000000" stroke="none" 
	d="
M445.501434,138.576019 
	C445.243927,156.181076 450.254150,172.693329 452.603271,189.564255 
	C452.872437,191.497192 453.441589,193.284943 455.379608,194.596436 
	C459.014191,197.056046 457.828156,199.769012 454.849030,201.718964 
	C450.840942,204.342468 446.148987,204.988052 441.470001,205.079605 
	C438.986023,205.128204 437.883667,203.553314 437.507477,200.922760 
	C435.132050,184.312073 431.984039,167.810287 430.579773,151.063461 
	C430.552338,150.736130 430.542053,150.329391 430.351990,150.105392 
	C427.745667,147.033981 426.208221,144.073639 430.159058,140.755264 
	C434.713440,136.929993 440.748901,135.802155 445.501434,138.576019 
z"/>
<path fill="#000000" opacity="1.000000" stroke="none" 
	d="
M660.637390,209.688507 
	C664.513855,203.457108 668.190857,197.529556 671.877441,191.607986 
	C672.662964,190.346222 673.724426,189.167114 673.433899,187.533081 
	C672.493347,182.242126 675.906921,182.083679 679.482239,182.624344 
	C681.574829,182.940796 683.680054,183.737091 685.568970,184.721680 
	C689.768250,186.910614 689.801270,189.033508 687.372986,193.024567 
	C682.202026,201.523193 677.176025,210.136749 672.629700,218.980286 
	C668.945007,226.147827 663.290894,232.268097 661.663086,240.591644 
	C660.997803,243.993759 656.911621,244.016342 651.308533,241.121719 
	C646.216614,238.491135 643.786133,234.845718 646.111938,232.593674 
	C652.514038,226.394821 654.756470,217.721390 659.887878,210.823166 
	C660.085938,210.557007 660.257446,210.271179 660.637390,209.688507 
z"/>
<path fill="#000000" opacity="1.000000" stroke="none" 
	d="
M417.653625,791.696411 
	C418.643555,795.719482 417.175568,798.383118 413.827637,799.671814 
	C410.173370,801.078552 409.845947,803.164856 411.670197,806.213684 
	C412.524506,807.641418 413.333221,809.109863 414.006439,810.629089 
	C414.801605,812.423706 415.046509,814.260864 412.945129,815.402283 
	C411.095642,816.406921 409.753998,815.341309 408.621002,814.006470 
	C406.461792,811.462524 405.256989,808.347534 403.770355,804.865051 
	C401.484375,807.248840 401.939606,811.489014 398.031097,811.510864 
	C395.712341,811.523865 395.300507,809.425781 394.618073,808.000183 
	C383.713806,810.997803 390.251404,800.308960 386.404358,797.768494 
	C383.891724,797.962769 383.361908,800.504578 381.857513,801.904602 
	C380.288635,803.364807 378.693512,804.601929 376.594482,803.158875 
	C374.332672,801.604004 374.467682,799.339600 375.870300,797.440186 
	C379.923492,791.951172 384.158234,786.595032 388.378967,781.231934 
	C389.352448,779.994934 390.730743,779.282776 392.362183,779.758789 
	C394.230103,780.303772 394.986816,781.945923 395.058929,783.606812 
	C395.232056,787.595093 395.111847,791.596008 395.110687,795.591858 
	C395.109985,798.030029 395.110535,800.468201 395.815887,803.039612 
	C397.112091,799.158447 398.329041,795.248596 399.721863,791.402405 
	C402.216919,784.512390 403.469482,783.917664 410.467804,786.114624 
	C413.400391,787.035278 415.969360,788.504395 417.653625,791.696411 
z"/>
<path fill="#000000" opacity="1.000000" stroke="none" 
	d="
M380.833069,776.582397 
	C380.558258,784.797791 376.487946,791.447266 373.530701,798.403687 
	C372.181000,801.578613 368.145813,800.628784 366.231781,796.782654 
	C363.920776,792.138733 363.088318,787.054016 362.542358,780.451660 
	C360.690613,784.117310 359.517853,786.601501 358.195587,789.003357 
	C357.196716,790.817810 355.816376,792.536194 353.469055,791.647339 
	C351.004761,790.714172 350.541321,788.502747 351.403259,786.245361 
	C353.667542,780.315308 356.934570,774.862000 360.385986,769.596191 
	C362.435150,766.469727 364.905609,767.612915 366.526123,770.593567 
	C368.847656,774.863708 369.487030,779.690430 371.114075,785.264587 
	C372.880951,782.237061 374.177338,779.866089 375.620697,777.588379 
	C376.836823,775.669312 378.206207,773.793152 380.833069,776.582397 
z"/>
<path fill="#000000" opacity="1.000000" stroke="none" 
	d="
M472.184692,823.544189 
	C468.958099,815.952942 471.371979,808.863708 473.387482,801.963623 
	C474.341461,798.697693 477.142761,800.110901 478.872253,802.025818 
	C482.421814,805.956299 485.839386,810.005981 489.990234,814.788940 
	C490.809540,810.639832 491.360382,807.344849 492.138489,804.104370 
	C492.586182,802.239929 492.886078,799.662109 495.577332,800.034973 
	C498.141022,800.390076 498.237671,802.869690 497.910522,804.816895 
	C497.022034,810.105286 497.309021,815.430420 497.068420,820.737427 
	C496.975922,822.777100 496.856659,824.880432 494.662933,825.806885 
	C492.338928,826.788330 490.332458,825.651978 488.819061,824.061829 
	C485.513245,820.588074 482.405060,816.926270 478.675354,812.733337 
	C478.076752,815.492554 477.670959,817.689880 477.112640,819.847778 
	C476.509888,822.177246 475.780304,824.488220 472.184692,823.544189 
z"/>
<path fill="#000000" opacity="1.000000" stroke="none" 
	d="
M563.825317,806.883667 
	C565.030518,807.667542 565.979553,808.254150 567.110352,808.953125 
	C566.588379,796.571960 566.588379,796.571960 569.132080,793.539185 
	C571.517212,794.279297 571.529541,796.577271 571.961670,798.358093 
	C573.175415,803.359375 574.190552,808.413940 575.109009,813.479309 
	C575.483826,815.546753 576.055359,817.987976 573.651978,819.296997 
	C571.379700,820.534668 569.461060,819.108032 567.766479,817.767151 
	C563.489990,814.383423 559.293274,810.898804 554.483521,806.981384 
	C555.160767,810.983093 555.788025,814.442810 556.319519,817.917175 
	C556.670532,820.211609 556.518250,822.548645 553.623657,822.863403 
	C551.124939,823.135132 550.218079,821.067810 549.856750,819.023254 
	C548.873962,813.462463 547.955139,807.887573 547.172241,802.295776 
	C546.944031,800.665039 547.174255,798.803955 548.713928,797.796143 
	C550.527527,796.608948 551.686035,798.279114 553.070740,799.132324 
	C556.755066,801.402588 560.404602,803.701660 563.825317,806.883667 
z"/>
<path fill="#000000" opacity="1.000000" stroke="none" 
	d="
M622.479065,782.196289 
	C618.940125,780.646484 617.126404,783.473511 614.241821,784.792480 
	C616.204712,789.600220 618.177368,794.149414 619.907471,798.789001 
	C620.765930,801.091309 621.879211,804.040344 618.661499,805.259155 
	C615.695984,806.382263 614.620544,803.473083 613.761658,801.432861 
	C611.770386,796.702271 610.084778,791.842957 608.322266,787.160645 
	C606.328491,786.643127 604.811218,787.585083 603.192932,787.806702 
	C601.824097,787.994263 600.367615,788.067261 599.686401,786.632812 
	C598.890747,784.957397 600.287537,784.132202 601.480164,783.626648 
	C607.524658,781.064087 612.927795,776.528809 620.038940,777.193542 
	C621.939880,777.371338 622.328796,775.376343 624.054688,775.173096 
	C626.858215,775.931458 627.749023,778.659424 628.861328,780.956482 
	C630.890503,785.147278 632.605164,789.492371 634.393188,793.797180 
	C635.257446,795.877747 635.981323,798.322571 633.349365,799.426514 
	C630.737427,800.522217 629.403442,798.220154 628.506653,796.252563 
	C626.436584,791.710388 624.569397,787.075806 622.479065,782.196289 
z"/>
<path fill="#000000" opacity="1.000000" stroke="none" 
	d="
M333.169678,782.642822 
	C331.536987,775.468323 337.076691,762.422119 343.010681,758.625061 
	C344.271332,757.818359 345.499268,757.588867 346.659210,758.607971 
	C348.026764,759.809509 347.767212,761.276672 346.988525,762.685791 
	C344.902008,766.461426 342.683685,770.167969 340.711182,774.001465 
	C339.410065,776.530090 337.946381,779.462402 341.750549,781.164185 
	C345.137604,782.679443 346.033997,779.608459 347.143707,777.529724 
	C349.252472,773.579529 351.115082,769.498718 353.144684,765.505005 
	C354.084747,763.655212 355.386139,761.828247 357.753998,762.730103 
	C360.455566,763.759033 360.164642,766.194580 359.168365,768.206116 
	C356.373260,773.849487 353.719299,779.617126 350.323303,784.894104 
	C346.464905,790.889526 338.536804,789.803101 333.169678,782.642822 
z"/>
<path fill="#000000" opacity="1.000000" stroke="none" 
	d="
M269.453644,731.606384 
	C276.284088,727.010742 283.433807,723.822632 290.540436,720.553101 
	C292.268311,719.758179 294.061768,719.265320 295.716461,720.616882 
	C297.532959,722.100586 297.395660,724.090942 296.863434,726.118225 
	C295.038330,733.069702 291.875702,739.524963 289.378265,746.226807 
	C288.524719,748.517334 286.768158,749.867737 284.289001,749.022095 
	C281.707275,748.141418 281.494324,745.994324 282.274933,743.674072 
	C282.752594,742.254272 283.302948,740.859070 283.809387,739.448792 
	C284.433502,737.710876 285.142487,736.020508 283.409576,734.399109 
	C281.658813,732.761169 280.046265,733.581482 278.384094,734.430847 
	C276.753021,735.264343 275.159332,736.176086 273.499847,736.947205 
	C271.942383,737.670959 270.270782,738.135132 268.859406,736.698975 
	C267.221008,735.031738 267.788940,733.389404 269.453644,731.606384 
z"/>
<path fill="#000000" opacity="1.000000" stroke="none" 
	d="
M705.087280,728.052246 
	C703.915039,728.998962 702.889526,729.634705 702.176208,730.521606 
	C700.875732,732.138184 702.234924,733.275208 703.178162,734.392639 
	C704.419128,735.862671 705.725830,735.644043 707.040039,734.437439 
	C709.209961,732.444885 711.366150,730.402527 714.831299,730.675293 
	C715.641663,734.319641 713.444092,736.262146 711.460327,738.148315 
	C709.868896,739.661377 709.358704,740.899048 710.923096,742.773865 
	C712.668335,744.865479 714.076172,743.794556 715.587830,742.625732 
	C717.953003,740.796936 720.269043,738.899902 722.699097,737.162109 
	C723.648682,736.482971 724.924927,736.194885 725.962891,737.046509 
	C727.272705,738.121338 726.861450,739.538452 726.118835,740.661255 
	C722.817139,745.653259 717.895386,748.807678 712.899719,751.780701 
	C711.263550,752.754456 709.705872,751.605835 708.488098,750.356567 
	C703.362976,745.098816 699.303101,739.010498 695.016724,733.096191 
	C693.959534,731.637512 694.675171,730.590393 695.605286,729.586609 
	C699.238831,725.665222 703.296082,722.238098 707.890869,719.495422 
	C709.188416,718.720825 710.820984,718.112549 711.930054,719.663086 
	C713.004883,721.165833 712.064880,722.584045 710.892517,723.589966 
	C709.130615,725.101562 707.221436,726.441528 705.087280,728.052246 
z"/>
<path fill="#000000" opacity="1.000000" stroke="none" 
	d="
M464.793762,825.386108 
	C462.601288,823.241394 462.485138,820.645264 461.812317,818.279846 
	C461.378296,816.754028 460.879852,815.463196 458.984741,815.337524 
	C457.296631,815.225525 456.093109,815.853516 455.321472,817.339294 
	C454.329865,819.248657 453.446014,821.223816 452.321075,823.050781 
	C451.505219,824.375793 450.229828,825.279297 448.532410,824.644653 
	C446.629211,823.933105 446.040436,822.293823 446.656647,820.587646 
	C449.528839,812.634827 452.717834,804.790833 456.845123,797.407837 
	C458.210876,794.964722 460.487152,795.502686 462.135834,797.627380 
	C463.990723,800.017761 465.261749,802.753418 466.001923,805.651367 
	C467.314880,810.791931 468.489716,815.972046 469.556335,821.169678 
	C470.278076,824.686707 469.303833,826.846863 464.793762,825.386108 
z"/>
<path fill="#000000" opacity="1.000000" stroke="none" 
	d="
M649.891479,783.493042 
	C646.078674,782.531433 645.122131,784.390381 645.524658,787.453369 
	C645.784424,789.430359 646.344238,791.382446 645.706848,793.375427 
	C645.241516,794.830811 644.713440,796.332397 642.892517,796.464966 
	C641.145081,796.592102 639.804565,795.448486 639.595947,793.963013 
	C638.443115,785.752258 636.476929,777.593140 636.900269,769.251343 
	C637.066895,765.968384 640.161316,765.023315 643.344055,767.073425 
	C647.309509,769.627747 650.014221,773.542847 653.279724,776.850464 
	C655.613464,779.214294 657.828186,781.706360 659.957581,784.256775 
	C661.060242,785.577454 661.768494,787.253052 660.229187,788.731628 
	C658.816284,790.088623 657.045349,789.857971 655.654419,788.749695 
	C653.710022,787.200256 651.979492,785.382385 649.891479,783.493042 
z"/>
<path fill="#000000" opacity="1.000000" stroke="none" 
	d="
M327.750671,761.943237 
	C325.856476,761.354858 324.874023,762.125854 324.030029,763.297302 
	C323.056763,764.648376 322.056976,765.981445 321.034393,767.295593 
	C319.080688,769.806519 316.870453,773.225037 313.424988,770.790283 
	C309.747040,768.191284 312.747803,765.170288 314.526154,762.647034 
	C317.499176,758.428772 320.669769,754.347351 323.574615,750.083984 
	C326.549561,745.717712 330.370972,746.677429 334.213287,748.212524 
	C338.013092,749.730652 340.738861,752.487976 340.946136,756.728516 
	C341.102264,759.922302 339.058807,761.917969 335.958374,762.746887 
	C333.249298,763.471252 330.676300,762.769775 327.750671,761.943237 
M333.074829,752.937378 
	C330.534180,752.600952 330.264587,754.167358 330.142883,756.258301 
	C333.051544,756.942566 335.552673,757.650635 333.074829,752.937378 
z"/>
<path fill="#000000" opacity="1.000000" stroke="none" 
	d="
M588.236450,814.322510 
	C586.868347,813.887634 586.095337,813.094055 585.989807,812.122253 
	C585.130066,804.211548 586.822144,796.626526 589.599792,789.329834 
	C590.660095,786.544556 593.067993,787.315125 594.861145,789.057983 
	C597.741943,791.857849 599.638855,795.395264 601.834167,798.705933 
	C603.663757,801.465027 605.517456,804.208252 607.335083,806.975159 
	C608.345886,808.513916 608.637390,810.133667 607.049011,811.424133 
	C605.521851,812.664795 603.829773,812.294739 602.550293,811.023193 
	C601.151917,809.633484 599.992126,808.000977 598.753723,806.453918 
	C597.677551,805.109558 597.155579,802.913940 594.650574,803.831055 
	C592.520020,804.611084 592.411133,806.443054 592.279419,808.316711 
	C592.094543,810.947266 592.253174,813.842468 588.236450,814.322510 
z"/>
<path fill="#000000" opacity="1.000000" stroke="none" 
	d="
M695.387695,743.724609 
	C697.002563,748.483032 698.710632,752.815735 699.932678,757.281372 
	C701.069275,761.434875 699.577087,763.050781 695.345032,762.117676 
	C688.307678,760.566101 681.863953,757.539673 676.232788,752.968323 
	C674.966309,751.940186 673.390930,750.612000 674.546448,748.821350 
	C675.617798,747.161194 677.540710,747.798889 679.119385,748.254883 
	C683.221863,749.439758 686.729858,752.217102 691.473389,753.011963 
	C691.046204,746.808777 687.022034,741.067017 689.664978,734.454895 
	C693.926880,736.492981 693.726501,740.455444 695.387695,743.724609 
z"/>
<path fill="#000000" opacity="1.000000" stroke="none" 
	d="
M445.945404,812.659607 
	C445.018036,814.663452 444.473694,816.510620 443.342346,817.868835 
	C441.076538,820.589294 438.153595,822.221008 434.578674,820.406311 
	C431.795685,818.993713 429.239807,816.814148 430.647552,813.370483 
	C432.225006,809.511658 434.780365,813.123169 437.127563,813.262878 
	C439.739502,809.891541 439.999695,805.695618 441.076050,801.768799 
	C441.862030,798.901428 442.001770,794.388245 446.238708,795.348572 
	C449.930817,796.185364 448.714508,800.229492 448.214172,803.091187 
	C447.673157,806.185547 446.794342,809.220764 445.945404,812.659607 
z"/>
<path fill="#000000" opacity="1.000000" stroke="none" 
	d="
M417.173401,813.950806 
	C415.579437,812.043884 414.744934,810.208069 415.948029,808.226074 
	C417.555023,805.578613 419.471405,808.560974 421.431335,808.108337 
	C423.849274,804.539185 424.347473,800.187988 425.552429,796.109375 
	C426.312164,793.537720 427.161438,791.066406 430.427948,791.813965 
	C433.702454,792.563293 433.454773,795.430908 433.062500,797.894348 
	C432.384888,802.149292 431.254364,806.331848 429.456818,810.250366 
	C426.870026,815.889221 423.043823,817.061646 417.173401,813.950806 
z"/>
<path fill="#000000" opacity="1.000000" stroke="none" 
	d="
M662.716309,760.883911 
	C665.129944,765.604980 667.562256,769.956360 669.822327,774.395386 
	C670.871704,776.456482 672.154602,779.031555 669.414917,780.568542 
	C666.583435,782.157043 665.278931,779.534790 664.085876,777.579834 
	C662.617188,775.173096 661.204651,772.716003 659.985962,770.175903 
	C657.024414,764.003540 657.075256,763.979126 650.519958,763.325195 
	C654.383484,758.297119 659.148071,755.293213 664.439880,753.002380 
	C665.394897,752.588867 666.426941,752.959045 666.934875,754.037109 
	C667.409180,755.043884 667.149963,755.965515 666.489990,756.811462 
	C665.382935,758.230408 663.184509,758.531616 662.716309,760.883911 
z"/>
<path fill="#000000" opacity="1.000000" stroke="none" 
	d="
M546.054016,811.188599 
	C546.456726,814.231506 546.960022,816.848999 547.017883,819.476318 
	C547.064453,821.590271 546.097351,823.504333 543.673279,823.665833 
	C541.505310,823.810242 540.273804,822.206177 540.028320,820.296448 
	C539.250610,814.244873 537.602905,808.299622 537.757202,802.131042 
	C537.813171,799.894775 537.954102,797.425354 540.685730,797.153015 
	C543.501648,796.872314 543.969360,799.287292 544.328552,801.511719 
	C544.827881,804.604248 545.413513,807.682861 546.054016,811.188599 
z"/>
<path fill="#000000" opacity="1.000000" stroke="none" 
	d="
M502.726990,806.291504 
	C502.877319,803.524658 502.579498,800.563293 505.715576,800.393677 
	C509.256256,800.202271 508.958984,803.345032 509.314423,805.805420 
	C510.030609,810.762695 510.407471,815.732544 510.102570,820.729980 
	C509.946167,823.293640 509.481537,826.170166 506.170288,826.030762 
	C503.138458,825.903015 502.925018,823.056152 502.849243,820.727844 
	C502.697693,816.073120 502.750519,811.411682 502.726990,806.291504 
z"/>
<path fill="#000000" opacity="1.000000" stroke="none" 
	d="
M675.668762,769.284180 
	C672.692871,763.166870 667.921326,758.072876 668.509949,751.008545 
	C671.785889,749.700989 673.085938,751.915039 674.182556,753.508118 
	C677.277710,758.004272 680.080322,762.703735 682.945679,767.355347 
	C684.232605,769.444336 685.188660,771.841431 682.656006,773.512268 
	C680.075623,775.214600 678.388855,773.180176 676.925964,771.277405 
	C676.523438,770.753967 676.210388,770.161743 675.668762,769.284180 
z"/>
<path fill="#000000" opacity="1.000000" stroke="none" 
	d="
M575.513306,791.960876 
	C578.793762,790.936951 579.688965,793.142029 580.272522,795.173584 
	C581.638306,799.928406 582.794556,804.746887 583.910278,809.568542 
	C584.456909,811.930725 583.705017,814.074585 581.235596,814.684998 
	C578.806641,815.285400 577.496460,813.376831 577.134521,811.339478 
	C576.010254,805.010132 572.067322,798.936707 575.513306,791.960876 
z"/>
</svg>