<svg version="1.1" id="Layer_1" xmlns="http://www.w3.org/2000/svg" xmlns:xlink="http://www.w3.org/1999/xlink" x="0px" y="0px"
	 width="100%" viewBox="0 0 674 799" enable-background="new 0 0 674 799" xml:space="preserve">
<path fill="none" opacity="1.000000" stroke="#000000" stroke-linecap="round" stroke-linejoin="round" stroke-width="7.000000"
	d="
M345.500000,265.500000 
	C338.337830,267.847107 331.588013,271.573639 323.994598,272.453430 
	C315.465790,273.441650 306.961792,274.510406 298.492889,275.958405 
	C285.149445,278.239868 272.194458,281.918549 259.514435,286.539612 
	C244.814865,291.896606 230.871887,298.888245 217.505539,307.009125 
	C202.180740,316.319916 188.163574,327.351868 174.996872,339.496613 
	C153.615662,359.218262 135.304214,381.442780 120.528488,406.516785 
	C115.680702,414.743378 111.169006,423.167999 106.498764,431.499298 
	C104.825745,434.483856 103.655388,437.641846 105.067139,440.971527 
	C105.858269,442.837463 105.013878,443.798706 104.010948,445.009064 
	C98.584518,451.557800 95.200905,459.230804 92.000000,467.000000 
"/>
<path fill="none" opacity="1.000000" stroke="#000000" stroke-linecap="round" stroke-linejoin="round" stroke-width="7.000000"
	d="
M587.000000,444.000000 
	C589.200806,439.509247 587.178223,435.430115 585.448486,431.522797 
	C578.306091,415.388489 569.068542,400.406372 558.914368,386.060608 
	C547.210144,369.524872 533.681885,354.455292 518.965881,340.536102 
	C497.121521,319.874542 473.301300,302.179688 445.041931,290.895020 
	C427.969879,284.077789 410.608521,278.670349 392.511383,275.436371 
	C382.215576,273.596497 371.651642,273.715881 361.505127,270.981018 
	C356.974854,269.759949 352.477783,268.402252 348.012360,266.961670 
	C346.502136,266.474457 346.064209,265.381531 345.859894,263.515350 
	C345.016571,255.812042 346.097443,248.165649 346.139587,240.500763 
	C346.149353,238.716812 345.953674,237.137970 345.500000,235.500000 
"/>
<path fill="none" opacity="1.000000" stroke="#000000" stroke-linecap="round" stroke-linejoin="round" stroke-width="6.000000"
	d="
M557.000000,559.500000 
	C558.139893,561.935120 557.756592,564.510437 557.462158,566.995544 
	C556.438354,575.637939 557.804932,584.413025 555.991943,592.998291 
	C554.195374,601.506042 552.300781,609.993164 550.511902,618.502502 
	C549.403442,623.775146 548.887451,629.116394 548.342834,634.484070 
	C547.581482,641.988342 547.558350,649.503540 547.023682,657.001709 
	C546.583618,663.175049 541.972778,665.843872 537.480896,668.467346 
	C517.358154,680.220032 497.841583,693.111023 475.024170,699.585144 
	C459.580841,703.966919 445.034302,710.704590 431.001617,718.502930 
	C422.224365,723.380737 413.893433,729.319031 411.762115,739.554565 
	C409.865479,748.663025 408.834045,758.285706 412.500000,767.500000 
"/>
<path fill="none" opacity="1.000000" stroke="#000000" stroke-linecap="round" stroke-linejoin="round" stroke-width="7.000000"
	d="
M153.500000,560.500000 
	C153.603088,566.385010 151.925339,572.073242 151.870285,577.998779 
	C151.778000,587.931885 153.097855,597.601257 156.075867,606.975891 
	C159.449921,617.597290 161.344223,628.377808 161.516525,639.499756 
	C161.581100,643.668030 161.836502,647.833191 161.999329,652.000000 
	C162.298050,659.645325 166.109390,665.261658 172.524109,668.958191 
	C191.336945,679.799194 209.656326,691.748108 230.537277,698.382690 
	C242.157974,702.074890 253.474686,706.363892 264.497925,711.504456 
	C271.954285,714.981628 279.221130,718.819214 285.990448,723.513794 
	C295.758057,730.287598 298.927856,740.198242 298.990082,751.500061 
	C299.017883,756.546692 299.261932,761.626221 297.500000,766.500000 
"/>
<path fill="none" opacity="1.000000" stroke="#000000" stroke-linecap="round" stroke-linejoin="round" stroke-width="6.000000"
	d="
M404.000000,72.000000 
	C399.383392,71.321808 396.935669,75.307236 393.582001,77.149284 
	C386.805054,80.871605 385.731873,86.425964 386.581726,94.543785 
	C388.398987,111.902176 391.219696,129.439819 388.449005,146.991943 
	C385.986755,162.590042 374.812988,177.666748 356.505035,183.017181 
	C346.530640,185.932129 336.182983,186.458252 325.990204,187.932220 
	C317.835968,189.111374 312.566223,193.501785 309.939575,201.480103 
	C307.465790,208.993896 306.473755,216.738785 305.538300,224.504608 
	C304.886169,229.918121 301.474548,238.034180 297.572174,241.926758 
	C293.858856,236.192703 288.402252,236.339554 282.477814,237.372879 
	C280.653961,237.690994 278.834747,236.055862 277.499390,234.500534 
	C273.941803,230.356918 269.080505,229.238251 263.997681,229.069595 
	C260.954529,228.968628 258.729309,228.215286 256.932587,225.545364 
	C254.862732,222.469513 251.636429,220.422928 247.990616,220.109024 
	C243.462067,219.719116 242.281204,217.241486 243.069611,213.514725 
	C243.979401,209.214142 243.546341,206.034134 239.073349,203.849792 
	C237.504791,203.083817 235.249420,201.658737 235.500000,199.000000 
"/>
<path fill="none" opacity="1.000000" stroke="#000000" stroke-linecap="round" stroke-linejoin="round" stroke-width="6.000000"
	d="
M217.250000,37.000000 
	C218.237518,39.310394 219.765808,40.158039 222.474030,40.644585 
	C240.209473,43.830845 258.159760,45.280155 276.023132,47.294945 
	C283.728485,48.164021 291.393372,49.030052 299.001343,50.493053 
	C304.353729,51.522312 309.082123,53.966480 313.483887,57.023216 
	C322.073120,62.987907 322.953278,72.250946 323.438660,81.503220 
	C323.705200,86.584305 324.232056,91.622154 325.567657,96.481407 
	C327.715698,104.296425 336.960876,106.446732 342.989044,100.987892 
	C347.726807,96.697563 349.332214,90.705894 351.532990,85.012756 
	C354.330963,77.774780 355.325287,69.860138 359.104584,63.058105 
	C362.265228,57.369522 365.522156,51.336903 373.495819,50.920204 
	C376.251129,50.776211 378.565186,51.356705 381.020874,52.453236 
	C389.437958,56.211655 394.278656,63.857948 400.456970,70.042984 
	C400.790314,70.376678 400.500000,71.333336 400.500000,72.000000 
"/>
<path fill="none" opacity="1.000000" stroke="#000000" stroke-linecap="round" stroke-linejoin="round" stroke-width="6.000000"
	d="
M219.000000,41.000000 
	C216.378738,47.736542 218.643478,53.540585 222.527527,58.980350 
	C223.338089,60.115601 224.603317,60.917316 225.481567,62.014755 
	C228.743683,66.091118 232.028442,70.156006 230.518814,76.004852 
	C229.332947,80.599319 231.891434,83.381233 235.509872,85.482994 
	C237.118027,86.417084 238.820419,87.193764 240.502472,87.994812 
	C245.142044,90.204330 248.572006,93.027451 247.569000,99.011566 
	C247.024384,102.260880 249.818771,104.157745 252.063461,105.383827 
	C256.985992,108.072609 260.970001,111.465439 263.503784,116.498085 
	C264.945892,119.362366 267.584991,120.351036 270.496552,121.015144 
	C280.487274,123.294037 290.373566,125.952637 299.997925,129.505661 
	C305.349548,131.481323 306.964142,133.836761 304.904572,138.961655 
	C298.919922,153.853485 291.894653,168.201675 279.995972,179.495743 
	C275.612000,183.656967 270.148529,185.567108 264.560242,187.660812 
	C254.731735,191.343124 243.973160,192.520493 234.980591,198.470673 
	C234.632843,198.700760 234.000000,198.500000 233.500000,198.500000 
"/>
<path fill="none" opacity="1.000000" stroke="#000000" stroke-linecap="round" stroke-linejoin="round" stroke-width="4.000000"
	d="
M336.000000,291.500000 
	C331.837433,291.530426 328.573700,288.971191 325.043701,287.401733 
	C314.070221,282.522705 303.149109,283.072601 291.992523,286.475464 
	C275.145782,291.613861 260.343018,300.656555 246.035522,310.551361 
	C233.863525,318.969330 222.110397,327.991760 209.967163,336.452881 
	C199.101822,344.023560 187.675629,350.679382 175.527649,356.062378 
	C173.098724,357.138702 170.809189,355.995209 168.500000,356.500000 
"/>
<path fill="none" opacity="1.000000" stroke="#000000" stroke-linecap="round" stroke-linejoin="round" stroke-width="4.000000"
	d="
M514.000000,357.000000 
	C511.939972,352.874420 507.420502,352.485291 503.967682,350.557892 
	C489.013123,342.210144 475.075226,332.380920 461.501434,321.998138 
	C444.653473,309.110992 426.993347,297.529877 407.483063,289.038910 
	C397.795044,284.822601 387.588287,283.022247 377.002014,284.021210 
	C372.333557,284.461731 368.114624,286.452820 364.032196,288.562317 
	C361.444641,289.899353 358.993896,291.372620 356.000000,291.500000 
"/>
<path fill="none" opacity="1.000000" stroke="#000000" stroke-linecap="round" stroke-linejoin="round" stroke-width="6.000000"
	d="
M351.500000,279.500000 
	C351.587158,283.260803 350.604675,287.332581 354.503357,289.995087 
	C355.418274,290.619904 355.600739,291.467896 355.507904,292.500702 
	C354.519073,303.499573 355.651642,314.528778 355.276550,325.492371 
	C354.854462,337.830261 354.974304,350.171570 354.658691,362.504059 
	C353.976501,389.157532 354.288757,415.835266 353.871826,442.497986 
	C353.807343,446.621185 354.553375,450.811523 352.757782,455.107758 
	C351.651672,457.754303 354.569275,461.908600 357.035309,462.185760 
	C361.573792,462.695770 363.063049,466.183014 365.391357,468.604462 
	C370.706207,474.132019 376.312347,479.483093 380.486633,486.008545 
	C387.160858,496.442078 385.708282,508.917694 378.373383,518.402100 
	C375.835388,521.683838 371.853851,523.859558 368.491699,526.489380 
	C366.687866,527.900269 364.640808,529.060059 363.736511,531.554077 
	C366.538086,536.442322 370.321014,540.655151 373.753723,544.789307 
	C379.892395,552.182495 379.332397,568.740967 373.970612,576.479675 
	C369.913025,582.335999 364.465210,586.956726 359.500000,592.000000 
"/>
<path fill="none" opacity="1.000000" stroke="#000000" stroke-linecap="round" stroke-linejoin="round" stroke-width="5.000000"
	d="
M336.000000,375.500000 
	C329.479950,374.311676 324.001587,370.335907 317.018188,369.773987 
	C300.816345,368.470306 287.288605,375.373932 282.605957,389.535034 
	C279.281799,399.587921 280.902405,409.513947 286.573059,418.453674 
	C289.742157,423.449768 293.609650,427.995789 297.347229,432.623383 
	C302.057739,438.455475 306.997650,443.120758 313.821320,446.828827 
	C323.040497,451.838684 331.137695,458.994171 339.417786,465.603027 
	C341.968567,467.638916 344.229736,470.267487 341.737549,474.635529 
	C340.354980,477.058716 341.778748,481.065094 341.618439,483.979004 
	C341.037872,494.532288 343.029510,504.987976 342.057190,515.505310 
	C341.600311,520.447083 345.975098,523.136414 352.000000,522.000000 
"/>
<path fill="none" opacity="1.000000" stroke="#000000" stroke-linecap="round" stroke-linejoin="round" stroke-width="5.000000"
	d="
M336.500000,389.500000 
	C329.166656,389.000000 321.838593,388.380707 314.497467,388.057281 
	C311.452209,387.923126 308.627625,386.805389 305.496979,386.907227 
	C297.126587,387.179504 291.924561,394.095642 293.403595,402.516937 
	C294.893341,410.999084 299.298706,417.548431 305.539612,422.954285 
	C314.215546,430.469360 323.144165,437.694061 332.017151,444.979095 
	C334.018860,446.622559 336.437897,447.533783 339.000000,448.000000 
"/>
<path fill="none" opacity="1.000000" stroke="#000000" stroke-linecap="round" stroke-linejoin="round" stroke-width="4.000000"
	d="
M354.500000,451.500000 
	C360.760986,448.758545 365.929016,444.406128 370.960968,439.955872 
	C376.121338,435.392029 381.895477,431.629089 387.205994,427.249817 
	C393.282227,422.239075 397.784119,416.275635 401.892609,409.930450 
	C405.422668,404.478577 404.670380,395.365173 401.097015,390.921967 
	C399.099609,388.438324 396.982117,387.635315 394.003723,387.442322 
	C385.285767,386.877411 376.716217,389.121216 367.995331,388.574646 
	C365.255493,388.402924 362.897949,388.477234 361.447357,385.525879 
	C360.013306,382.608124 361.887207,380.146851 363.159424,378.634094 
	C367.701477,373.233582 373.375916,369.888641 380.999634,369.867706 
	C389.558624,369.844177 397.822174,370.341309 404.980316,375.527161 
	C417.062164,384.280151 419.820343,400.179199 412.954468,414.478149 
	C408.723267,423.290070 402.011414,430.397552 396.111725,438.085754 
	C389.471405,446.738983 378.764923,449.212189 371.003448,456.003937 
	C368.063202,458.576843 363.861298,459.633575 362.000000,463.500000 
"/>
<path fill="none" opacity="1.000000" stroke="#000000" stroke-linecap="round" stroke-linejoin="round" stroke-width="4.000000"
	d="
M354.000000,687.500000 
	C351.636688,685.518005 350.167053,683.063965 349.471069,680.006592 
	C345.878571,664.224426 333.998077,655.212830 318.987671,653.615784 
	C308.540924,652.504333 297.978302,652.491760 287.500854,654.005981 
	C286.660980,654.127319 285.631287,654.074097 285.032135,654.541138 
	C280.431824,658.127319 275.807251,656.329590 270.978241,655.084412 
	C266.244781,653.863770 261.333344,653.333252 256.500000,652.499939 
"/>
<path fill="none" opacity="1.000000" stroke="#000000" stroke-linecap="round" stroke-linejoin="round" stroke-width="5.000000"
	d="
M449.500000,652.500000 
	C443.500000,653.833313 437.552429,655.578186 431.481110,656.351624 
	C427.600708,656.846008 424.102203,653.798462 420.001373,653.695618 
	C408.299957,653.402344 396.637024,651.671875 384.977448,654.919006 
	C371.743286,658.604553 363.473389,666.806335 359.999512,679.999878 
	C359.382629,682.342712 359.148407,684.863342 357.000000,686.500000 
"/>
<path fill="none" opacity="1.000000" stroke="#000000" stroke-linecap="round" stroke-linejoin="round" stroke-width="4.000000"
	d="
M206.500000,659.500000 
	C211.791000,659.857605 216.895966,661.141418 222.008530,662.467102 
	C226.002289,663.502686 228.085999,666.586060 227.745743,669.974487 
	C227.451584,672.903809 228.790253,673.396790 230.484863,674.522766 
	C243.111755,682.912659 257.278320,687.716980 271.475281,692.572266 
	C281.586975,696.030334 291.852386,697.748657 302.500610,697.529114 
	C304.263733,697.492798 305.953796,697.435608 307.500000,696.500000 
"/>
<path fill="none" opacity="1.000000" stroke="#000000" stroke-linecap="round" stroke-linejoin="round" stroke-width="3.000000"
	d="
M503.500000,659.000000 
	C506.439056,664.157776 505.122498,668.122803 499.481659,668.859741 
	C493.630798,669.624146 488.311981,673.934937 481.971313,671.577148 
	C481.695374,671.474487 481.065491,672.596924 480.490356,672.985779 
	C464.678253,683.676392 447.166199,690.753601 428.941467,695.788086 
	C420.479675,698.125671 411.394104,698.277100 402.500000,697.000000 
"/>
<path fill="none" opacity="1.000000" stroke="#000000" stroke-linecap="round" stroke-linejoin="round" stroke-width="4.000000"
	d="
M445.000000,318.500000 
	C453.576660,327.339050 461.732880,336.598022 468.846069,346.609375 
	C473.040985,352.513580 479.347870,353.799011 485.051514,356.386444 
	C492.089905,359.579315 499.670563,361.034760 507.499268,360.489624 
	C508.837738,360.396423 510.810638,360.665070 511.390778,359.915466 
	C514.210754,356.271698 518.146057,356.508972 522.000000,356.250000 
"/>
<path fill="none" opacity="1.000000" stroke="#000000" stroke-linecap="round" stroke-linejoin="round" stroke-width="4.000000"
	d="
M245.000000,321.250000 
	C236.891022,326.333954 231.283463,334.109558 226.267548,341.677338 
	C216.637863,356.206177 202.026779,358.461975 186.983902,360.373352 
	C183.154526,360.859955 178.676346,361.855469 175.500000,358.000000 
"/>
<path fill="none" opacity="1.000000" stroke="#000000" stroke-linecap="round" stroke-linejoin="round" stroke-width="5.000000"
	d="
M334.000000,531.500000 
	C329.884460,537.147888 324.942810,542.119873 322.405396,548.964905 
	C316.754791,564.208313 322.127289,579.373474 333.838898,587.725891 
	C338.561523,591.093994 343.961731,594.544495 346.562256,600.472717 
	C347.400269,602.383057 347.785675,604.013489 347.024506,606.009338 
	C343.813538,614.428711 346.381622,622.995789 346.563965,631.498657 
	C346.578491,632.175720 347.500000,632.833313 348.000000,633.500000 
"/>
<path fill="none" opacity="1.000000" stroke="#000000" stroke-linecap="round" stroke-linejoin="round" stroke-width="11.000000"
	d="
M355.000000,689.000000 
	C353.703156,702.142273 354.040375,715.325928 354.001190,728.500000 
	C353.995422,730.432190 353.669891,732.343018 355.966461,733.563110 
	C357.777069,734.525024 357.790466,736.578003 358.044769,738.494080 
	C359.505280,749.499146 359.867950,760.654358 362.500000,771.500000 
"/>
<path fill="none" opacity="1.000000" stroke="#000000" stroke-linecap="round" stroke-linejoin="round" stroke-width="5.000000"
	d="
M336.500000,465.000000 
	C330.907684,470.407684 324.619141,475.062134 319.948181,481.462189 
	C313.689392,490.037842 309.813599,498.797028 314.416260,509.535889 
	C315.862122,512.909241 317.976898,515.596436 320.533051,517.964355 
	C326.223053,523.235291 330.707764,530.058350 338.972076,532.112366 
	C340.500916,532.492371 341.666656,534.333313 343.000000,535.500000 
"/>
<path fill="none" opacity="1.000000" stroke="#000000" stroke-linecap="round" stroke-linejoin="round" stroke-width="4.000000"
	d="
M275.500000,306.500000 
	C266.124146,317.987793 258.565491,330.774261 249.654800,342.616486 
	C243.347443,350.998901 234.876266,353.254242 225.499695,354.497742 
	C223.907898,354.708862 222.544968,354.268951 221.500000,353.000000 
"/>
<path fill="none" opacity="1.000000" stroke="#000000" stroke-linecap="round" stroke-linejoin="round" stroke-width="8.000000"
	d="
M599.500000,465.500000 
	C597.442932,459.334137 593.888977,453.972931 590.563232,448.461853 
	C588.635132,445.266846 586.332825,443.926361 582.528809,443.319458 
	C575.329468,442.170898 568.353455,440.685516 560.980042,442.414856 
	C553.278503,444.221222 547.608948,448.993744 542.012695,454.014160 
	C536.608459,458.862396 536.322449,459.019043 531.027649,453.971008 
	C525.511780,448.712219 520.016479,444.019318 512.038940,442.317566 
	C502.064026,440.189728 493.498688,442.371094 485.536926,448.051758 
	C482.862885,449.959686 480.416748,452.243896 477.906586,454.390778 
	C473.253113,458.370819 472.571411,458.909485 467.965668,454.032440 
	C465.610474,451.538513 462.938629,449.417023 460.084015,447.382172 
	C446.367737,437.604828 428.614227,440.738403 418.504547,451.004486 
	C409.335419,460.315491 409.118622,458.830902 401.469025,451.030365 
	C398.830292,448.339539 395.833344,446.000000 393.000000,443.500000 
"/>
<path fill="none" opacity="1.000000" stroke="#000000" stroke-linecap="round" stroke-linejoin="round" stroke-width="8.000000"
	d="
M282.500000,458.000000 
	C279.191589,456.454590 276.526398,454.097229 273.984680,451.515106 
	C261.680817,439.015900 242.510193,437.939606 229.494980,449.494354 
	C227.197144,451.534332 224.660065,453.333893 222.543579,455.541779 
	C219.863174,458.338013 217.476898,457.859100 215.007538,455.492126 
	C213.136200,453.698456 211.464203,451.675781 209.478195,450.026245 
	C198.694031,441.069061 184.332657,437.571198 171.069366,445.614410 
	C165.322632,449.099365 160.333344,453.833344 155.000015,458.000000 
"/>
<path fill="none" opacity="1.000000" stroke="#000000" stroke-linecap="round" stroke-linejoin="round" stroke-width="5.000000"
	d="
M325.500000,310.000000 
	C321.482361,311.982361 319.082031,315.632751 316.545807,319.034149 
	C312.540436,324.405884 308.045166,329.631897 305.250000,335.616760 
	C303.023438,340.384125 300.058716,343.764709 295.461365,344.833832 
	C288.716766,346.402283 281.605286,349.008606 275.000000,344.000000 
"/>
<path fill="none" opacity="1.000000" stroke="#000000" stroke-linecap="round" stroke-linejoin="round" stroke-width="7.000000"
	d="
M336.000000,324.500000 
	C337.686310,327.629395 338.087067,330.964600 338.045380,334.500549 
	C337.919678,345.165710 339.120514,355.993408 337.627228,366.446747 
	C336.533875,374.100250 339.290253,381.508759 337.202332,389.055969 
	C336.564453,391.361725 338.653870,394.299500 338.939636,397.006378 
	C339.780792,404.974396 340.073883,412.977692 340.038147,421.000183 
	C340.011414,426.999298 340.422333,432.999451 340.459412,439.000244 
	C340.475983,441.679169 341.002869,444.409180 339.558990,447.032471 
	C338.619781,448.738892 339.897095,449.742798 341.500000,450.250000 
"/>
<path fill="none" opacity="1.000000" stroke="#000000" stroke-linecap="round" stroke-linejoin="round" stroke-width="4.000000"
	d="
M354.000000,518.500000 
	C367.383240,516.863586 374.944122,501.407379 367.425812,490.551392 
	C364.053345,485.681732 361.397369,479.722290 354.500000,478.500000 
"/>
<path fill="none" opacity="1.000000" stroke="#000000" stroke-linecap="round" stroke-linejoin="round" stroke-width="8.000000"
	d="
M154.500000,467.500000 
	C154.666672,465.333344 154.901245,463.168915 154.973557,460.999115 
	C155.014450,459.772278 155.531311,458.233948 153.991074,457.519226 
	C149.089447,455.244812 146.241043,450.583618 142.125671,447.340546 
	C134.770065,441.543915 126.503845,441.317474 118.001915,441.565643 
	C113.990738,441.682739 110.000000,442.500000 106.000000,443.000000 
"/>
<path fill="none" opacity="1.000000" stroke="#000000" stroke-linecap="round" stroke-linejoin="round" stroke-width="6.000000"
	d="
M435.500000,2.500009 
	C432.166687,6.666676 428.818329,10.821489 425.513824,15.010909 
	C424.916840,15.767740 424.203949,16.613693 424.043945,17.507858 
	C421.219452,33.294365 413.477142,46.945518 405.502716,60.501606 
	C405.314209,60.822079 405.166656,61.166668 405.000000,61.500000 
"/>
<path fill="none" opacity="1.000000" stroke="#000000" stroke-linecap="round" stroke-linejoin="round" stroke-width="6.000000"
	d="
M423.500000,17.000000 
	C411.214081,17.953590 401.168945,23.855135 392.039612,31.547010 
	C388.341187,34.663090 384.317108,37.823185 384.500000,43.500000 
"/>
<path fill="none" opacity="1.000000" stroke="#000000" stroke-linecap="round" stroke-linejoin="round" stroke-width="5.000000"
	d="
M537.500000,594.250000 
	C535.202576,592.120850 533.103699,592.968994 531.533203,595.025330 
	C524.763672,603.889282 521.528137,614.215881 519.513550,625.002502 
	C518.925232,628.152710 518.500000,631.333313 518.000000,634.500000 
"/>
<path fill="none" opacity="1.000000" stroke="#000000" stroke-linecap="round" stroke-linejoin="round" stroke-width="4.000000"
	d="
M338.000000,593.500000 
	C332.574524,599.277161 325.743042,603.689392 322.404816,611.459106 
	C318.675476,620.139038 321.848145,629.387756 330.500000,633.000000 
"/>
<path fill="none" opacity="1.000000" stroke="#000000" stroke-linecap="round" stroke-linejoin="round" stroke-width="5.000000"
	d="
M159.500000,557.500000 
	C162.747650,562.037170 167.480896,565.269165 170.105606,570.446472 
	C172.396820,574.965942 174.703110,579.381592 174.965378,584.501770 
	C175.225174,589.573364 176.957916,593.764648 179.826874,598.114197 
	C186.133240,607.674988 190.134323,618.310730 190.479050,630.000610 
	C190.530609,631.749329 190.566360,633.453369 191.848312,634.923950 
	C199.186264,636.821838 206.586594,639.128540 211.000000,646.500000 
"/>
<path fill="none" opacity="1.000000" stroke="#000000" stroke-linecap="round" stroke-linejoin="round" stroke-width="7.000000"
	d="
M345.000000,538.000000 
	C351.990204,538.394409 352.792389,538.807007 352.908997,545.501587 
	C353.051178,553.665405 352.968750,561.828491 352.369812,570.027039 
	C352.027618,574.711060 352.480225,579.643127 352.280487,584.511536 
	C352.199707,586.480774 354.621674,588.773621 356.792114,590.730530 
	C364.659271,597.823914 372.594299,605.232483 376.411438,615.532837 
	C378.437805,621.000854 374.008636,628.716370 368.000000,631.500000 
"/>
<path fill="none" opacity="1.000000" stroke="#000000" stroke-linecap="round" stroke-linejoin="round" stroke-width="4.000000"
	d="
M416.500000,306.500000 
	C424.762207,318.383423 433.246216,330.130981 441.293091,342.138672 
	C446.781250,350.328186 455.000885,351.815735 463.028778,354.411041 
	C464.791718,354.980988 467.053589,354.918701 468.500000,353.000000 
"/>
<path fill="none" opacity="1.000000" stroke="#000000" stroke-linecap="round" stroke-linejoin="round" stroke-width="5.000000"
	d="
M303.500000,307.000000 
	C298.621033,308.642548 295.751007,312.583221 293.038177,316.526276 
	C287.117340,325.132202 280.707367,333.412872 275.505463,342.503143 
	C274.052734,345.041718 271.357483,345.271149 268.988190,345.959290 
	C265.031494,347.108429 260.966522,347.885162 257.011139,349.038208 
	C254.116043,349.882141 251.487244,349.768707 249.000000,348.000000 
"/>
<path fill="none" opacity="1.000000" stroke="#000000" stroke-linecap="round" stroke-linejoin="round" stroke-width="7.000000"
	d="
M343.500000,472.000000 
	C350.188904,471.334808 353.184479,475.068115 353.213867,481.499023 
	C353.241272,487.503601 353.345825,493.503601 352.984985,499.499084 
	C352.523865,507.161224 353.339996,514.816406 352.271912,522.537598 
	C351.743256,526.359375 355.811096,529.009644 359.520508,530.447021 
	C360.808380,530.946106 362.333344,530.833313 363.750000,531.000000 
"/>
<path fill="none" opacity="1.000000" stroke="#000000" stroke-linecap="round" stroke-linejoin="round" stroke-width="5.000000"
	d="
M549.500000,558.000000 
	C542.559570,562.334656 539.428833,569.378845 536.536865,576.514954 
	C534.459351,581.641479 535.028320,587.122437 535.000000,592.500000 
"/>
<path fill="none" opacity="1.000000" stroke="#000000" stroke-linecap="round" stroke-linejoin="round" stroke-width="5.000000"
	d="
M353.000000,733.500000 
	C349.442963,737.431763 350.626556,742.577637 350.257782,747.021362 
	C349.631348,754.570740 348.309753,761.997375 347.500000,769.500000 
"/>
<path fill="none" opacity="1.000000" stroke="#000000" stroke-linecap="round" stroke-linejoin="round" stroke-width="5.000000"
	d="
M392.500000,307.500000 
	C399.500000,317.833344 406.887482,327.929871 413.388123,338.568359 
	C419.559662,348.668335 429.227539,348.666595 439.002319,348.903900 
	C440.318726,348.935852 441.666687,347.666687 443.000000,347.000031 
"/>
<path fill="none" opacity="1.000000" stroke="#000000" stroke-linecap="round" stroke-linejoin="round" stroke-width="6.000000"
	d="
M347.000000,602.500000 
	C337.191650,604.222107 332.772614,610.882141 331.567200,620.008850 
	C330.554108,627.679565 329.650940,635.538513 336.500000,641.500000 
"/>
<path fill="none" opacity="1.000000" stroke="#000000" stroke-linecap="round" stroke-linejoin="round" stroke-width="8.000000"
	d="
M347.500000,267.500000 
	C346.839050,273.002869 345.935242,278.384277 340.500000,281.500000 
	C340.478607,286.925293 334.852753,290.730499 336.802734,297.060760 
	C338.556641,302.754456 337.700867,309.012390 337.403229,314.995178 
	C337.184601,319.389343 336.032532,323.248810 332.169769,326.690552 
	C326.277344,331.940735 321.532684,338.484619 314.496246,342.493439 
	C310.747742,344.629059 307.006714,345.685608 303.500000,342.000000 
"/>
<path fill="none" opacity="1.000000" stroke="#000000" stroke-linecap="round" stroke-linejoin="round" stroke-width="4.000000"
	d="
M356.500000,326.000000 
	C359.955963,326.805054 362.010345,329.459167 363.957703,332.032013 
	C367.651947,336.912781 372.677277,339.876526 378.000854,342.498260 
	C381.754181,344.346649 385.454681,344.836090 389.000000,342.000000 
"/>
<path fill="none" opacity="1.000000" stroke="#000000" stroke-linecap="round" stroke-linejoin="round" stroke-width="7.000000"
	d="
M244.500000,657.500000 
	C244.548050,655.510315 244.001999,653.940857 242.010681,652.977905 
	C234.699829,649.442810 227.736481,645.713135 219.001419,645.674927 
	C213.349945,645.650085 209.672958,647.126282 207.068146,651.540222 
	C204.848801,655.301025 205.233704,659.917236 204.822662,664.032227 
	C204.483902,667.423584 208.820602,668.643555 212.009003,669.465088 
	C213.455887,669.837830 215.000000,669.833313 216.500000,669.999939 
"/>
<path fill="none" opacity="1.000000" stroke="#000000" stroke-linecap="round" stroke-linejoin="round" stroke-width="8.000000"
	d="
M481.500000,671.500000 
	C480.820770,666.254639 482.070160,664.016785 487.006836,662.016846 
	C490.196686,660.724670 493.624084,660.467529 496.997925,659.985535 
	C499.986816,659.558655 503.403625,659.529419 503.959015,655.494385 
	C504.356934,652.603638 499.951172,646.589172 497.000458,646.602112 
	C487.911743,646.641907 478.475555,644.740784 470.416931,651.399475 
	C468.063690,653.343872 464.852997,655.343689 461.500000,652.500000 
"/>
<path fill="none" opacity="1.000000" stroke="#000000" stroke-linecap="round" stroke-linejoin="round" stroke-width="6.000000"
	d="
M367.500000,310.500000 
	C376.046875,318.860199 382.300079,328.950134 388.327667,339.102325 
	C390.090637,342.071655 392.381409,343.610474 395.035065,344.378906 
	C401.974304,346.388428 409.116608,349.064484 416.000000,344.000000 
"/>
<path fill="none" opacity="1.000000" stroke="#000000" stroke-linecap="round" stroke-linejoin="round" stroke-width="4.000000"
	d="
M348.500000,603.000000 
	C357.431030,604.482788 363.634186,608.997681 366.577301,617.974670 
	C369.559723,627.071411 367.270020,635.684631 360.500000,640.500000 
"/>
<path fill="none" opacity="1.000000" stroke="#000000" stroke-linecap="round" stroke-linejoin="round" stroke-width="5.000000"
	d="
M373.000000,545.000000 
	C371.059631,545.691162 369.105225,546.068665 366.999573,546.051270 
	C363.839233,546.025208 362.208984,547.303223 362.393524,551.005310 
	C362.650116,556.150879 362.479279,561.368164 361.908630,566.489807 
	C361.379547,571.238159 359.049194,575.072693 354.000000,576.500000 
"/>
<path fill="none" opacity="1.000000" stroke="#000000" stroke-linecap="round" stroke-linejoin="round" stroke-width="5.000000"
	d="
M352.000000,605.000000 
	C352.711548,614.680176 353.354248,624.353088 349.000000,633.500000 
"/>
<path fill="none" opacity="1.000000" stroke="#000000" stroke-linecap="round" stroke-linejoin="round" stroke-width="5.000000"
	d="
M339.000000,548.000000 
	C333.052002,554.931702 334.577454,562.718933 336.575012,570.480713 
	C336.868195,571.619690 337.973175,572.861633 339.037018,573.430786 
	C341.982025,575.006470 343.585693,577.261841 344.609741,580.464905 
	C345.644104,583.700195 348.900574,582.911743 351.500000,583.000000 
"/>
<path fill="none" opacity="1.000000" stroke="#000000" stroke-linecap="round" stroke-linejoin="round" stroke-width="4.000000"
	d="
M343.750000,536.500000 
	C343.833344,536.666687 344.023682,536.865234 343.984802,536.995483 
	C340.587189,548.373657 343.355743,560.014893 342.531738,571.502258 
	C342.449554,572.648071 342.250031,573.638916 341.500000,574.500000 
"/>
<path fill="none" opacity="1.000000" stroke="#000000" stroke-linecap="round" stroke-linejoin="round" stroke-width="4.000000"
	d="
M340.000000,480.500000 
	C331.611572,483.829163 329.016632,491.336029 326.394165,498.963623 
	C325.849548,500.547638 326.114899,501.996307 326.603577,502.946747 
	C329.889984,509.338562 333.628784,515.409607 341.500000,517.000000 
"/>
<path fill="none" opacity="1.000000" stroke="#000000" stroke-linecap="round" stroke-linejoin="round" stroke-width="5.000000"
	d="
M518.500000,640.500000 
	C518.500000,638.666687 518.500000,636.833313 518.500000,634.400940 
	C510.258423,636.094360 502.843933,638.627136 498.500000,646.500000 
"/>
<path fill="none" opacity="1.000000" stroke="#000000" stroke-linecap="round" stroke-linejoin="round" stroke-width="8.000000"
	d="
M302.500000,442.000000 
	C295.108368,445.659485 290.576294,452.933472 283.512909,457.022308 
	C281.961090,457.920685 282.599792,459.610260 282.502380,461.000153 
	C282.327240,463.499573 282.166656,466.000000 281.999969,468.500000 
"/>
<path fill="none" opacity="1.000000" stroke="#000000" stroke-linecap="round" stroke-linejoin="round" stroke-width="4.000000"
	d="
M355.500000,700.000000 
	C359.360657,699.920227 361.911377,701.865967 364.069977,704.951050 
	C365.534119,707.043457 366.503174,709.830139 369.500000,710.500000 
"/>
<path fill="none" opacity="1.000000" stroke="#000000" stroke-linecap="round" stroke-linejoin="round" stroke-width="3.000000"
	d="
M219.000000,484.500000 
	C218.833328,489.166656 218.666656,493.833344 218.500000,498.500000 
"/>
<path fill="none" opacity="1.000000" stroke="#000000" stroke-linecap="round" stroke-linejoin="round" stroke-width="3.000000"
	d="
M353.000000,702.000000 
	C347.688446,702.087524 344.403198,705.146912 342.000000,709.500000 
"/>
<path fill="none" opacity="1.000000" stroke="#000000" stroke-linecap="round" stroke-linejoin="round" stroke-width="3.000000"
	d="
M218.500000,458.000000 
	C218.500000,462.166656 218.500000,466.333344 218.500000,470.500000 
"/>
<path fill="none" opacity="1.000000" stroke="#000000" stroke-linecap="round" stroke-linejoin="round" stroke-width="5.000000"
	d="
M154.500000,486.500000 
	C155.241302,492.833344 155.097107,499.166656 154.500000,505.500000 
"/>
<path fill="none" opacity="1.000000" stroke="#000000" stroke-linecap="round" stroke-linejoin="round" stroke-width="5.000000"
	d="
M537.000000,458.500000 
	C537.000000,462.500000 537.000000,466.500000 537.000000,470.500000 
"/>
<path fill="none" opacity="1.000000" stroke="#000000" stroke-linecap="round" stroke-linejoin="round" stroke-width="8.000000"
	d="
M282.500000,487.500000 
	C282.500000,493.833344 282.500000,500.166656 282.500000,506.500000 
"/>
<path fill="none" opacity="1.000000" stroke="#000000" stroke-linecap="round" stroke-linejoin="round" stroke-width="7.000000"
	d="
M416.500000,719.000000 
	C412.995697,719.076172 409.338593,718.174011 406.040344,719.593750 
	C403.687866,720.606384 402.786285,718.188171 401.000000,718.250000 
"/>
<path fill="none" opacity="1.000000" stroke="#000000" stroke-linecap="round" stroke-linejoin="round" stroke-width="5.000000"
	d="
M342.000000,451.000000 
	C344.918518,453.421814 347.440948,456.723846 352.000000,455.500000 
"/>
<path fill="none" opacity="1.000000" stroke="#000000" stroke-linecap="round" stroke-linejoin="round" stroke-width="3.000000"
	d="
M431.000000,657.500000 
	C431.237762,660.091736 429.561981,662.136780 429.000000,664.500000 
"/>
<path fill="none" opacity="1.000000" stroke="#000000" stroke-linecap="round" stroke-linejoin="round" stroke-width="3.000000"
	d="
M219.000000,499.500000 
	C220.738525,501.632599 219.723892,504.158478 220.000000,506.500000 
"/>
<path fill="none" opacity="1.000000" stroke="#000000" stroke-linecap="round" stroke-linejoin="round" stroke-width="3.000000"
	d="
M227.000000,672.000000 
	C225.228180,672.843384 223.338638,672.391663 221.500000,672.500000 
"/>
</svg>